Open Sans-ExtraBold Condensed.ufo
<glyph name="exclam" format="1">
  <advance width="599"/>
  <unicode hex="0021"/>
  <note>
exclam
</note>
  <outline>
    <contour>
      <point x="155" y="515" type="line"/>
      <point x="100" y="1462" type="line"/>
      <point x="503" y="1462" type="line"/>
      <point x="445" y="515" type="line"/>
    </contour>
    <contour>
      <point x="298.0" y="-32.0" type="qcurve" smooth="yes"/>
      <point x="198.25" y="-32.0"/>
      <point x="96.0" y="69.25"/>
      <point x="96.0" y="157.0" type="qcurve" smooth="yes"/>
      <point x="96.0" y="245.5"/>
      <point x="197.5" y="345.0"/>
      <point x="298.0" y="345.0" type="qcurve" smooth="yes"/>
      <point x="401.5" y="345.0"/>
      <point x="502.0" y="244.75"/>
      <point x="502.0" y="157.0" type="qcurve" smooth="yes"/>
      <point x="502.0" y="70.75"/>
      <point x="396.25" y="-32.0"/>
    </contour>
  </outline>
</glyph>
<glyph name="dollar" format="1">
  <advance width="1004"/>
  <unicode hex="0024"/>
  <note>
dollar
</note>
  <outline>
    <contour>
      <point x="434" y="-119" type="line"/>
      <point x="434.0" y="70.0" type="line"/>
      <point x="368.5" y="73.0"/>
      <point x="242.8333333333333" y="96.41666666666666"/>
      <point x="122.5" y="137.5"/>
      <point x="65" y="167" type="qcurve"/>
      <point x="65.0" y="474.0" type="line"/>
      <point x="158.0" y="420.0"/>
      <point x="348.5" y="349.0"/>
      <point x="434" y="343" type="qcurve"/>
      <point x="434" y="615" type="line"/>
      <point x="385.0" y="638.0" type="line" smooth="yes"/>
      <point x="269.5" y="692.75"/>
      <point x="131.0" y="804.75"/>
      <point x="98.0" y="870.0" type="qcurve" smooth="yes"/>
      <point x="61.0" y="942.5769230769231"/>
      <point x="61.0" y="1039.0" type="qcurve" smooth="yes"/>
      <point x="61.0" y="1203.25"/>
      <point x="252.5" y="1388.0"/>
      <point x="434" y="1406" type="qcurve"/>
      <point x="434" y="1556" type="line"/>
      <point x="564" y="1556" type="line"/>
      <point x="564.0" y="1407.0" type="line"/>
      <point x="645.0" y="1401.0"/>
      <point x="810.75" y="1352.75"/>
      <point x="894" y="1310" type="qcurve"/>
      <point x="796.0" y="1042.0" type="line"/>
      <point x="661.8631484794275" y="1108.314847942755"/>
      <point x="564" y="1120" type="qcurve"/>
      <point x="564" y="885" type="line"/>
      <point x="608.0" y="865.0" type="line" smooth="yes"/>
      <point x="721.5" y="813.0"/>
      <point x="867.0833333333334" y="709.4166666666665"/>
      <point x="937.0" y="569.5"/>
      <point x="937.0" y="463.0" type="qcurve" smooth="yes"/>
      <point x="937.0" y="288.25"/>
      <point x="746.25" y="89.0"/>
      <point x="564" y="74" type="qcurve"/>
      <point x="564" y="-119" type="line"/>
    </contour>
    <contour>
      <point x="564" y="349" type="line"/>
      <point x="609.75" y="355.75"/>
      <point x="644.0" y="406.0"/>
      <point x="644.0" y="466.0" type="qcurve" smooth="yes"/>
      <point x="644.0" y="485.5"/>
      <point x="622.5" y="520.75"/>
      <point x="564" y="553" type="qcurve"/>
    </contour>
    <contour>
      <point x="434" y="949" type="qcurve"/>
      <point x="434.0" y="1122.0" type="line"/>
      <point x="391.25" y="1117.5"/>
      <point x="356.0" y="1081.0"/>
      <point x="356.0" y="1042.0" type="qcurve" smooth="yes"/>
      <point x="356.0" y="1007.5"/>
      <point x="388.25" y="965.5"/>
    </contour>
  </outline>
</glyph>
<glyph name="percent" format="1">
  <advance width="1702"/>
  <unicode hex="0025"/>
  <note>
percent
</note>
  <outline>
    <contour>
      <point x="393" y="0" type="line"/>
      <point x="1048" y="1462" type="line"/>
      <point x="1309" y="1462" type="line"/>
      <point x="650" y="0" type="line"/>
    </contour>
    <contour>
      <point x="379.0" y="565.0" type="qcurve" smooth="yes"/>
      <point x="282.625" y="565.0"/>
      <point x="154.828125" y="628.21875"/>
      <point x="80.421875" y="747.78125"/>
      <point x="49.0" y="917.5"/>
      <point x="49.0" y="1024.0" type="qcurve" smooth="yes"/>
      <point x="49.0" y="1168.0"/>
      <point x="107.16666666666666" y="1373.5"/>
      <point x="247.99999999999997" y="1483.0"/>
      <point x="372.0" y="1483.0" type="qcurve" smooth="yes"/>
      <point x="501.5" y="1483.0"/>
      <point x="648.9166666666665" y="1373.1666666666665"/>
      <point x="710.0" y="1168.0"/>
      <point x="710.0" y="1025.0" type="qcurve" smooth="yes"/>
      <point x="710.0" y="884.5"/>
      <point x="647.0" y="677.9166666666665"/>
      <point x="502.0" y="565.0"/>
    </contour>
    <contour>
      <point x="378.0" y="805.0" type="qcurve" smooth="yes"/>
      <point x="393.0" y="805.0"/>
      <point x="420.0" y="827.5"/>
      <point x="429.0" y="856.0" type="qcurve" smooth="yes"/>
      <point x="444.0" y="905.5"/>
      <point x="444.0" y="1022.0" type="qcurve" smooth="yes"/>
      <point x="444.0" y="1080.5"/>
      <point x="436.5" y="1171.0"/>
      <point x="429.0" y="1195.0" type="qcurve" smooth="yes"/>
      <point x="414.625" y="1241.0"/>
      <point x="379.0" y="1241.0" type="qcurve" smooth="yes"/>
      <point x="345.80645161290323" y="1241.0"/>
      <point x="331.0" y="1190.0" type="qcurve" smooth="yes"/>
      <point x="321.25" y="1157.0"/>
      <point x="315.0" y="1068.5"/>
      <point x="315.0" y="1022.0" type="qcurve" smooth="yes"/>
      <point x="315.0" y="901.2"/>
      <point x="329.0" y="855.0" type="qcurve" smooth="yes"/>
      <point x="337.25" y="826.5"/>
      <point x="364.5" y="805.0"/>
    </contour>
    <contour>
      <point x="1316.0" y="-17.0" type="qcurve" smooth="yes"/>
      <point x="1223.0" y="-17.0"/>
      <point x="1098.0" y="44.682291666666664"/>
      <point x="1024.0" y="161.06770833333334"/>
      <point x="992.0" y="325.875"/>
      <point x="992.0" y="429.0" type="qcurve" smooth="yes"/>
      <point x="992.0" y="573.5"/>
      <point x="1051.9999999999998" y="784.9166666666666"/>
      <point x="1196.0" y="900.0"/>
      <point x="1322.0" y="900.0" type="qcurve" smooth="yes"/>
      <point x="1446.0" y="900.0"/>
      <point x="1590.3333333333333" y="786.25"/>
      <point x="1652.0" y="581.5"/>
      <point x="1652.0" y="445.0" type="qcurve" smooth="yes"/>
      <point x="1652.0" y="301.5"/>
      <point x="1590.6666666666667" y="94.41666666666666"/>
      <point x="1444.0" y="-17.0"/>
    </contour>
    <contour>
      <point x="1321.0" y="222.0" type="qcurve" smooth="yes"/>
      <point x="1354.8235294117646" y="222.0"/>
      <point x="1371.0" y="272.0" type="qcurve" smooth="yes"/>
      <point x="1387.0" y="322.90909090909093"/>
      <point x="1387.0" y="445.0" type="qcurve" smooth="yes"/>
      <point x="1387.0" y="494.5"/>
      <point x="1382.0" y="574.25"/>
      <point x="1376.0" y="599.0" type="qcurve" smooth="yes"/>
      <point x="1370.0" y="623.0"/>
      <point x="1342.5" y="656.0"/>
      <point x="1323.0" y="656.0" type="qcurve" smooth="yes"/>
      <point x="1287.8484848484848" y="656.0"/>
      <point x="1273.0" y="607.0" type="qcurve" smooth="yes"/>
      <point x="1258.0" y="559.0"/>
      <point x="1258.0" y="438.0" type="qcurve" smooth="yes"/>
      <point x="1258.0" y="380.25"/>
      <point x="1264.5" y="296.75"/>
      <point x="1272.0" y="272.0" type="qcurve" smooth="yes"/>
      <point x="1286.7058823529412" y="222.0"/>
    </contour>
  </outline>
</glyph>
<glyph name="ampersand" format="1">
  <advance width="1342"/>
  <unicode hex="0026"/>
  <note>
ampersand
</note>
  <outline>
    <contour>
      <point x="523.0" y="-20.0" type="qcurve" smooth="yes"/>
      <point x="374.0" y="-20.0"/>
      <point x="164.83333333333334" y="83.00000000000001"/>
      <point x="55.0" y="270.0"/>
      <point x="55.0" y="396.0" type="qcurve" smooth="yes"/>
      <point x="55.0" y="487.0"/>
      <point x="118.41666666666666" y="641.0"/>
      <point x="233.49999999999997" y="767.0"/>
      <point x="311" y="816" type="qcurve"/>
      <point x="309.0" y="819.0" type="line" smooth="yes"/>
      <point x="257.5" y="892.5"/>
      <point x="202.08333333333331" y="992.3333333333334"/>
      <point x="181.0" y="1071.5"/>
      <point x="181.0" y="1114.0" type="qcurve" smooth="yes"/>
      <point x="181.0" y="1224.5"/>
      <point x="286.3333333333333" y="1390.5833333333335"/>
      <point x="474.99999999999994" y="1483.0"/>
      <point x="600.0" y="1483.0" type="qcurve" smooth="yes"/>
      <point x="779.25" y="1483.0"/>
      <point x="991.0" y="1298.75"/>
      <point x="991.0" y="1151.0" type="qcurve" smooth="yes"/>
      <point x="991.0" y="1085.5"/>
      <point x="940.0833333333333" y="961.4999999999999"/>
      <point x="821.5" y="833.5"/>
      <point x="720" y="762" type="qcurve"/>
      <point x="910.0" y="534.0" type="line"/>
      <point x="945.25" y="597.0"/>
      <point x="991.75" y="751.25"/>
      <point x="1009" y="821" type="qcurve"/>
      <point x="1299.0" y="821.0" type="line"/>
      <point x="1281.5" y="714.5"/>
      <point x="1228.1666666666665" y="528.0"/>
      <point x="1153.5" y="357.5"/>
      <point x="1104" y="275" type="qcurve"/>
      <point x="1314" y="0" type="line"/>
      <point x="934" y="0" type="line"/>
      <point x="875.0" y="69.0" type="line"/>
      <point x="830.5" y="42.5"/>
      <point x="719.8333333333333" y="2.416666666666666"/>
      <point x="592.5" y="-20.0"/>
    </contour>
    <contour>
      <point x="565.0" y="278.0" type="qcurve" smooth="yes"/>
      <point x="596.5" y="278.0"/>
      <point x="673.0" y="292.0"/>
      <point x="706" y="304" type="qcurve"/>
      <point x="471.0" y="603.0" type="line"/>
      <point x="451.5" y="585.0"/>
      <point x="418.75" y="533.75"/>
      <point x="399.0" y="471.5"/>
      <point x="399.0" y="437.0" type="qcurve" smooth="yes"/>
      <point x="399.0" y="366.5"/>
      <point x="485.5" y="278.0"/>
    </contour>
    <contour>
      <point x="573.0" y="969.0" type="qcurve"/>
      <point x="632.25" y="1008.75"/>
      <point x="680.0" y="1060.5"/>
      <point x="680.0" y="1104.0" type="qcurve" smooth="yes"/>
      <point x="680.0" y="1156.5"/>
      <point x="627.25" y="1199.0"/>
      <point x="592.0" y="1199.0" type="qcurve" smooth="yes"/>
      <point x="551.5" y="1199.0"/>
      <point x="494.0" y="1150.25"/>
      <point x="494.0" y="1103.0" type="qcurve" smooth="yes"/>
      <point x="494.0" y="1075.0"/>
      <point x="513.0833333333333" y="1032.6666666666665"/>
      <point x="548.5" y="993.0"/>
    </contour>
  </outline>
</glyph>
<glyph name="quotesingle" format="1">
  <advance width="553"/>
  <unicode hex="0027"/>
  <note>
quotesingle
</note>
  <outline>
    <contour>
      <point x="159" y="934" type="line"/>
      <point x="116" y="1462" type="line"/>
      <point x="438" y="1462" type="line"/>
      <point x="391" y="934" type="line"/>
    </contour>
  </outline>
</glyph>
<glyph name="parenleft" format="1">
  <advance width="709"/>
  <unicode hex="0028"/>
  <note>
parenleft
</note>
  <outline>
    <contour>
      <point x="364" y="-324" type="line"/>
      <point x="214.75" y="-151.5"/>
      <point x="61.0" y="297.75"/>
      <point x="61.0" y="561.0" type="qcurve" smooth="yes"/>
      <point x="61.0" y="828.75"/>
      <point x="215.5" y="1285.75"/>
      <point x="364" y="1462" type="qcurve"/>
      <point x="666.0" y="1462.0" type="line"/>
      <point x="522.75" y="1272.25"/>
      <point x="377.0" y="809.75"/>
      <point x="377.0" y="563.0" type="qcurve" smooth="yes"/>
      <point x="377.0" y="397.0"/>
      <point x="445.5" y="83.25000000000001"/>
      <point x="574.0" y="-201.5"/>
      <point x="664" y="-324" type="qcurve"/>
    </contour>
  </outline>
</glyph>
<glyph name="parenright" format="1">
  <advance width="709"/>
  <unicode hex="0029"/>
  <note>
parenright
</note>
  <outline>
    <contour>
      <point x="44" y="-324" type="line"/>
      <point x="182.0" y="-138.0"/>
      <point x="332.0" y="313.25"/>
      <point x="332.0" y="563.0" type="qcurve" smooth="yes"/>
      <point x="332.0" y="809.0"/>
      <point x="186.0" y="1272.25"/>
      <point x="42" y="1462" type="qcurve"/>
      <point x="346.0" y="1462.0" type="line"/>
      <point x="648.0" y="1102.040404040404"/>
      <point x="648.0" y="561.0" type="qcurve" smooth="yes"/>
      <point x="648.0" y="294.75"/>
      <point x="493.0" y="-155.25"/>
      <point x="346" y="-324" type="qcurve"/>
    </contour>
  </outline>
</glyph>
<glyph name="slash" format="1">
  <advance width="878"/>
  <unicode hex="002F"/>
  <note>
slash
</note>
  <outline>
    <contour>
      <point x="1" y="0" type="line"/>
      <point x="553" y="1462" type="line"/>
      <point x="878" y="1462" type="line"/>
      <point x="324" y="0" type="line"/>
    </contour>
  </outline>
</glyph>
<glyph name="zero" format="1">
  <advance width="1004"/>
  <unicode hex="0030"/>
  <outline>
    <contour>
      <point x="503.0" y="-20.0" type="qcurve" smooth="yes"/>
      <point x="410.75" y="-20.0"/>
      <point x="260.0" y="29.5"/>
      <point x="206.0" y="94.0" type="qcurve" smooth="yes"/>
      <point x="128.0" y="187.0"/>
      <point x="68.0" y="522.75"/>
      <point x="68.0" y="729.0" type="qcurve" smooth="yes"/>
      <point x="68.0" y="986.25"/>
      <point x="152.0" y="1328.5"/>
      <point x="245.0" y="1408.0" type="qcurve" smooth="yes"/>
      <point x="296.0" y="1451.5"/>
      <point x="428.75" y="1486.0"/>
      <point x="509.0" y="1486.0" type="qcurve" smooth="yes"/>
      <point x="576.5" y="1486.0"/>
      <point x="714.25" y="1457.75"/>
      <point x="766.0" y="1415.0" type="qcurve" smooth="yes"/>
      <point x="859.0" y="1338.5"/>
      <point x="936.0" y="978.25"/>
      <point x="936.0" y="730.0" type="qcurve" smooth="yes"/>
      <point x="936.0" y="496.0"/>
      <point x="869.5" y="172.5"/>
      <point x="793.0" y="87.0" type="qcurve" smooth="yes"/>
      <point x="739.0" y="27.0"/>
      <point x="593.0" y="-20.0"/>
    </contour>
    <contour>
      <point x="502.0" y="269.0" type="qcurve" smooth="yes"/>
      <point x="516.25" y="269.0"/>
      <point x="544.0" y="279.25"/>
      <point x="553.0" y="292.0" type="qcurve" smooth="yes"/>
      <point x="573.0" y="320.0"/>
      <point x="589.6666666666667" y="476.41666666666663"/>
      <point x="593.0" y="702.5"/>
      <point x="593.0" y="835.0" type="qcurve" smooth="yes"/>
      <point x="593.0" y="910.0"/>
      <point x="588.25" y="1049.5"/>
      <point x="583.0" y="1087.0" type="qcurve" smooth="yes"/>
      <point x="568.0" y="1195.0"/>
      <point x="499.0" y="1195.0" type="qcurve" smooth="yes"/>
      <point x="474.25" y="1195.0"/>
      <point x="438.0" y="1157.0"/>
      <point x="429.0" y="1109.0" type="qcurve" smooth="yes"/>
      <point x="420.75" y="1065.5"/>
      <point x="413.0" y="875.0"/>
      <point x="413.0" y="728.0" type="qcurve" smooth="yes"/>
      <point x="413.0" y="432.0"/>
      <point x="429.0" y="352.0" type="qcurve" smooth="yes"/>
      <point x="446.17241379310343" y="269.0"/>
    </contour>
  </outline>
</glyph>
<glyph name="one" format="1">
  <advance width="1004"/>
  <unicode hex="0031"/>
  <outline>
    <contour>
      <point x="480" y="0" type="line"/>
      <point x="480.0" y="764.0" type="line" smooth="yes"/>
      <point x="480.0" y="836.0"/>
      <point x="488.75" y="1006.5"/>
      <point x="497.0" y="1104.0" type="qcurve"/>
      <point x="485.75" y="1087.5"/>
      <point x="474.25" y="1071.75"/>
      <point x="466.0" y="1062.0" type="qcurve" smooth="yes"/>
      <point x="444.25" y="1035.75"/>
      <point x="363.5" y="944.5"/>
      <point x="272" y="850" type="qcurve"/>
      <point x="75" y="1059" type="line"/>
      <point x="511" y="1462" type="line"/>
      <point x="823" y="1462" type="line"/>
      <point x="823" y="0" type="line"/>
    </contour>
  </outline>
</glyph>
<glyph name="two" format="1">
  <advance width="1004"/>
  <unicode hex="0032"/>
  <outline>
    <contour>
      <point x="74" y="0" type="line"/>
      <point x="74" y="256" type="line"/>
      <point x="319.0" y="591.0" type="line" smooth="yes"/>
      <point x="370.0" y="661.5"/>
      <point x="443.75" y="767.5"/>
      <point x="461.0" y="796.0" type="qcurve" smooth="yes"/>
      <point x="506.75" y="871.75"/>
      <point x="543.0" y="995.25"/>
      <point x="543.0" y="1068.0" type="qcurve" smooth="yes"/>
      <point x="543.0" y="1117.5"/>
      <point x="488.0" y="1182.0"/>
      <point x="452.0" y="1182.0" type="qcurve" smooth="yes"/>
      <point x="399.5" y="1182.0"/>
      <point x="313.75" y="1118.25"/>
      <point x="241" y="1032" type="qcurve"/>
      <point x="47.0" y="1229.0" type="line"/>
      <point x="128.5" y="1328.0"/>
      <point x="270.0" y="1438.5"/>
      <point x="409.5" y="1483.0"/>
      <point x="488.0" y="1483.0" type="qcurve" smooth="yes"/>
      <point x="671.75" y="1483.0"/>
      <point x="883.0" y="1264.25"/>
      <point x="883.0" y="1076.0" type="qcurve" smooth="yes"/>
      <point x="883.0" y="995.0"/>
      <point x="855.25" y="871.25"/>
      <point x="820.0" y="800.0" type="qcurve" smooth="yes"/>
      <point x="802.75" y="764.75"/>
      <point x="770.0" y="705.25"/>
      <point x="752.0" y="679.0" type="qcurve"/>
      <point x="751.25" y="677.5"/>
      <point x="596.0" y="479.25"/>
      <point x="461" y="315" type="qcurve"/>
      <point x="461" y="307" type="line"/>
      <point x="914" y="307" type="line"/>
      <point x="914" y="0" type="line"/>
    </contour>
  </outline>
</glyph>
<glyph name="three" format="1">
  <advance width="1004"/>
  <unicode hex="0033"/>
  <outline>
    <contour>
      <point x="402.0" y="-20.0" type="qcurve" smooth="yes"/>
      <point x="195.921568627451" y="-20.0"/>
      <point x="54" y="57" type="qcurve"/>
      <point x="54.0" y="358.0" type="line"/>
      <point x="120.75" y="316.75"/>
      <point x="281.25" y="267.0"/>
      <point x="351.0" y="267.0" type="qcurve" smooth="yes"/>
      <point x="465.0" y="267.0"/>
      <point x="575.0" y="342.75"/>
      <point x="575.0" y="444.0" type="qcurve" smooth="yes"/>
      <point x="575.0" y="564.5"/>
      <point x="467.0" y="602.0" type="qcurve" smooth="yes"/>
      <point x="412.7142857142857" y="622.0"/>
      <point x="325" y="622" type="qcurve" smooth="yes"/>
      <point x="239" y="622" type="line"/>
      <point x="239" y="874" type="line"/>
      <point x="318.0" y="874.0" type="line" smooth="yes"/>
      <point x="432.0" y="874.0"/>
      <point x="545.0" y="956.0"/>
      <point x="545.0" y="1052.0" type="qcurve" smooth="yes"/>
      <point x="545.0" y="1189.0"/>
      <point x="416.0" y="1189.0" type="qcurve" smooth="yes"/>
      <point x="365.75" y="1189.0"/>
      <point x="254.5" y="1140.25"/>
      <point x="208" y="1099" type="qcurve"/>
      <point x="57.0" y="1329.0" type="line"/>
      <point x="209.46" y="1483.0"/>
      <point x="460.0" y="1483.0" type="qcurve" smooth="yes"/>
      <point x="662.5" y="1483.0"/>
      <point x="886.0" y="1297.25"/>
      <point x="886.0" y="1130.0" type="qcurve" smooth="yes"/>
      <point x="886.0" y="992.0"/>
      <point x="741.25" y="808.0"/>
      <point x="616" y="775" type="qcurve"/>
      <point x="616.0" y="767.0" type="line"/>
      <point x="760.75" y="747.5"/>
      <point x="918.0" y="583.0"/>
      <point x="918.0" y="433.0" type="qcurve" smooth="yes"/>
      <point x="918.0" y="226.75"/>
      <point x="642.0" y="-20.0"/>
    </contour>
  </outline>
</glyph>
<glyph name="five" format="1">
  <advance width="1004"/>
  <unicode hex="0035"/>
  <outline>
    <contour>
      <point x="426.0" y="-20.0" type="qcurve" smooth="yes"/>
      <point x="322.5" y="-20.0"/>
      <point x="152.0" y="20.5"/>
      <point x="86" y="61" type="qcurve"/>
      <point x="86.0" y="377.0" type="line"/>
      <point x="119.0" y="352.5"/>
      <point x="224.24999999999997" y="305.58333333333337"/>
      <point x="338.5" y="275.0"/>
      <point x="385.0" y="275.0" type="qcurve" smooth="yes"/>
      <point x="481.0" y="275.0"/>
      <point x="568.0" y="359.75"/>
      <point x="568.0" y="464.0" type="qcurve" smooth="yes"/>
      <point x="568.0" y="559.25"/>
      <point x="478.75" y="657.0"/>
      <point x="382.0" y="657.0" type="qcurve" smooth="yes"/>
      <point x="305.7391304347826" y="657.0"/>
      <point x="220" y="623" type="qcurve"/>
      <point x="116" y="690" type="line"/>
      <point x="161" y="1462" type="line"/>
      <point x="840" y="1462" type="line"/>
      <point x="840" y="1156" type="line"/>
      <point x="458" y="1156" type="line"/>
      <point x="446.0" y="925.0" type="line"/>
      <point x="466.25" y="928.75"/>
      <point x="520.75" y="933.0"/>
      <point x="556.0" y="933.0" type="qcurve" smooth="yes"/>
      <point x="666.0" y="933.0"/>
      <point x="828.1666666666666" y="826.8333333333334"/>
      <point x="917.0" y="630.0"/>
      <point x="917.0" y="494.0" type="qcurve" smooth="yes"/>
      <point x="917.0" y="328.5"/>
      <point x="801.5" y="99.08333333333333"/>
      <point x="582.0" y="-20.0"/>
    </contour>
  </outline>
</glyph>
<glyph name="six" format="1">
  <advance width="1004"/>
  <unicode hex="0036"/>
  <outline>
    <contour>
      <point x="493.0" y="-20.0" type="qcurve" smooth="yes"/>
      <point x="271.75" y="-20.0"/>
      <point x="63.0" y="313.25"/>
      <point x="63.0" y="644.0" type="qcurve" smooth="yes"/>
      <point x="63.0" y="875.75"/>
      <point x="169.0" y="1252.5"/>
      <point x="289.0" y="1356.0" type="qcurve" smooth="yes"/>
      <point x="432.6585365853658" y="1480.0"/>
      <point x="679.0" y="1480.0" type="qcurve" smooth="yes"/>
      <point x="734.5" y="1480.0"/>
      <point x="833.75" y="1470.0"/>
      <point x="857" y="1467" type="qcurve"/>
      <point x="857.0" y="1186.0" type="line"/>
      <point x="782.0" y="1198.0"/>
      <point x="722.0" y="1198.0" type="qcurve" smooth="yes"/>
      <point x="587.0" y="1198.0"/>
      <point x="422.75" y="1085.25"/>
      <point x="392.0" y="984.0" type="qcurve" smooth="yes"/>
      <point x="371.820796460177" y="917.6969026548672"/>
      <point x="364" y="791" type="qcurve"/>
      <point x="377.0" y="791.0" type="line"/>
      <point x="450.0769230769231" y="962.0"/>
      <point x="620.0" y="962.0" type="qcurve" smooth="yes"/>
      <point x="770.75" y="962.0"/>
      <point x="936.0" y="718.5"/>
      <point x="936.0" y="510.0" type="qcurve" smooth="yes"/>
      <point x="936.0" y="256.5"/>
      <point x="698.5" y="-20.0"/>
    </contour>
    <contour>
      <point x="496.0" y="267.0" type="qcurve" smooth="yes"/>
      <point x="517.75" y="267.0"/>
      <point x="559.0" y="295.0"/>
      <point x="574.0" y="328.0" type="qcurve" smooth="yes"/>
      <point x="599.0" y="382.4117647058824"/>
      <point x="599.0" y="484.0" type="qcurve" smooth="yes"/>
      <point x="599.0" y="580.0"/>
      <point x="552.25" y="688.0"/>
      <point x="505.0" y="688.0" type="qcurve" smooth="yes"/>
      <point x="478.75" y="688.0"/>
      <point x="438.25" y="655.25"/>
      <point x="427.0" y="629.0" type="qcurve" smooth="yes"/>
      <point x="416.5" y="605.0"/>
      <point x="404.0" y="538.75"/>
      <point x="404.0" y="523.0" type="qcurve" smooth="yes"/>
      <point x="404.0" y="455.5"/>
      <point x="405.5" y="371.5"/>
      <point x="410.0" y="355.0" type="qcurve" smooth="yes"/>
      <point x="432.0" y="267.0"/>
    </contour>
  </outline>
</glyph>
<glyph name="eight" format="1">
  <advance width="1004"/>
  <unicode hex="0038"/>
  <outline>
    <contour>
      <point x="489.0" y="-20.0" type="qcurve" smooth="yes"/>
      <point x="361.0" y="-20.0"/>
      <point x="173.83333333333331" y="69.25"/>
      <point x="72.0" y="245.5"/>
      <point x="72.0" y="376.0" type="qcurve" smooth="yes"/>
      <point x="72.0" y="505.75"/>
      <point x="177.25" y="696.0"/>
      <point x="280.0" y="762.0" type="qcurve"/>
      <point x="177.25" y="844.5"/>
      <point x="94.0" y="1007.0"/>
      <point x="94.0" y="1103.0" type="qcurve" smooth="yes"/>
      <point x="94.0" y="1222.5"/>
      <point x="199.41666666666669" y="1391.0833333333333"/>
      <point x="384.5" y="1480.0"/>
      <point x="504.0" y="1480.0" type="qcurve" smooth="yes"/>
      <point x="687.0" y="1480.0"/>
      <point x="906.0" y="1279.5"/>
      <point x="906.0" y="1107.0" type="qcurve" smooth="yes"/>
      <point x="906.0" y="1013.25"/>
      <point x="822.0" y="857.0"/>
      <point x="711.0" y="779.0" type="qcurve"/>
      <point x="816.75" y="701.0"/>
      <point x="932.0" y="511.0"/>
      <point x="932.0" y="391.0" type="qcurve" smooth="yes"/>
      <point x="932.0" y="266.0"/>
      <point x="827.1666666666666" y="81.33333333333333"/>
      <point x="629.0" y="-20.0"/>
    </contour>
    <contour>
      <point x="500.0" y="246.0" type="qcurve" smooth="yes"/>
      <point x="554.75" y="246.0"/>
      <point x="605.0" y="325.75"/>
      <point x="605.0" y="397.0" type="qcurve" smooth="yes"/>
      <point x="605.0" y="431.5"/>
      <point x="584.0" y="496.83333333333326"/>
      <point x="535.0" y="569.5"/>
      <point x="493.0" y="615.0" type="qcurve"/>
      <point x="448.75" y="576.75"/>
      <point x="397.0" y="473.0"/>
      <point x="397.0" y="395.0" type="qcurve" smooth="yes"/>
      <point x="397.0" y="329.75"/>
      <point x="442.25" y="246.0"/>
    </contour>
    <contour>
      <point x="503.0" y="926.0" type="qcurve"/>
      <point x="551.0" y="971.75"/>
      <point x="577.0" y="1047.25"/>
      <point x="577.0" y="1093.0" type="qcurve" smooth="yes"/>
      <point x="577.0" y="1159.0"/>
      <point x="542.25" y="1217.0"/>
      <point x="501.0" y="1217.0" type="qcurve" smooth="yes"/>
      <point x="459.75" y="1217.0"/>
      <point x="423.0" y="1158.75"/>
      <point x="423.0" y="1095.0" type="qcurve" smooth="yes"/>
      <point x="423.0" y="1063.0"/>
      <point x="435.0833333333333" y="1009.6666666666665"/>
      <point x="469.5" y="957.0"/>
    </contour>
  </outline>
</glyph>
<glyph name="nine" format="1">
  <advance width="1004"/>
  <unicode hex="0039"/>
  <outline>
    <contour>
      <point x="295.0" y="-20.0" type="qcurve" smooth="yes"/>
      <point x="260.5" y="-20.0"/>
      <point x="180.25" y="-14.5"/>
      <point x="148" y="-7" type="qcurve"/>
      <point x="148.0" y="280.0" type="line"/>
      <point x="188.5" y="268.0"/>
      <point x="243.5" y="259.0"/>
      <point x="278.0" y="259.0" type="qcurve" smooth="yes"/>
      <point x="444.5" y="259.0"/>
      <point x="620.5" y="450.5"/>
      <point x="628" y="668" type="qcurve"/>
      <point x="619.0" y="668.0" type="line"/>
      <point x="585.25" y="587.0"/>
      <point x="470.0" y="497.0"/>
      <point x="380.0" y="497.0" type="qcurve" smooth="yes"/>
      <point x="231.5" y="497.0"/>
      <point x="62.0" y="739.75"/>
      <point x="62.0" y="949.0" type="qcurve" smooth="yes"/>
      <point x="62.0" y="1115.5"/>
      <point x="168.91666666666666" y="1353.2499999999998"/>
      <point x="363.5" y="1480.0"/>
      <point x="495.0" y="1480.0" type="qcurve" smooth="yes"/>
      <point x="651.0" y="1480.0"/>
      <point x="859.75" y="1291.0"/>
      <point x="904.0" y="1099.0" type="qcurve" smooth="yes"/>
      <point x="919.0" y="1032.25"/>
      <point x="935.0" y="875.0"/>
      <point x="935.0" y="785.0" type="qcurve" smooth="yes"/>
      <point x="935.0" y="509.0"/>
      <point x="788.75" y="151.0"/>
      <point x="644.0" y="64.0" type="qcurve" smooth="yes"/>
      <point x="503.0" y="-20.0"/>
    </contour>
    <contour>
      <point x="484.0" y="770.0" type="qcurve" smooth="yes"/>
      <point x="514.0" y="770.0"/>
      <point x="558.5" y="818.75"/>
      <point x="572.0" y="848.0" type="qcurve" smooth="yes"/>
      <point x="583.25" y="872.0"/>
      <point x="595.0" y="913.75"/>
      <point x="595.0" y="922.0" type="qcurve" smooth="yes"/>
      <point x="595.0" y="1028.5"/>
      <point x="568.0" y="1123.5"/>
      <point x="547.0" y="1155.0" type="qcurve" smooth="yes"/>
      <point x="537.25" y="1169.25"/>
      <point x="514.75" y="1189.0"/>
      <point x="496.0" y="1189.0" type="qcurve" smooth="yes"/>
      <point x="470.5" y="1189.0"/>
      <point x="423.5" y="1152.0"/>
      <point x="413.0" y="1119.0" type="qcurve" smooth="yes"/>
      <point x="404.75" y="1093.5"/>
      <point x="399.0" y="1005.5"/>
      <point x="399.0" y="974.0" type="qcurve" smooth="yes"/>
      <point x="399.0" y="876.5"/>
      <point x="442.0" y="770.0"/>
    </contour>
  </outline>
</glyph>
<glyph name="semicolon" format="1">
  <advance width="609"/>
  <unicode hex="003B"/>
  <note>
semicolon
</note>
  <outline>
    <contour>
      <point x="40" y="-264" type="line"/>
      <point x="59.5" y="-173.5"/>
      <point x="95.5" y="1.9166666666666643"/>
      <point x="127.5" y="171.0"/>
      <point x="141" y="252" type="qcurve"/>
      <point x="469" y="252" type="line"/>
      <point x="483.0" y="229.0" type="line"/>
      <point x="459.75" y="132.25"/>
      <point x="370.25" y="-113.25"/>
      <point x="302" y="-264" type="qcurve"/>
    </contour>
    <contour>
      <point x="304.0" y="781.0" type="qcurve" smooth="yes"/>
      <point x="205.0" y="781.0"/>
      <point x="101.0" y="881.25"/>
      <point x="101.0" y="969.0" type="qcurve" smooth="yes"/>
      <point x="101.0" y="1058.25"/>
      <point x="204.25" y="1159.0"/>
      <point x="304.0" y="1159.0" type="qcurve" smooth="yes"/>
      <point x="403.75" y="1159.0"/>
      <point x="508.0" y="1059.0"/>
      <point x="508.0" y="969.0" type="qcurve" smooth="yes"/>
      <point x="508.0" y="882.75"/>
      <point x="403.0" y="781.0"/>
    </contour>
  </outline>
</glyph>
<glyph name="question" format="1">
  <advance width="869"/>
  <unicode hex="003F"/>
  <note>
question
</note>
  <outline>
    <contour>
      <point x="232" y="515" type="line"/>
      <point x="232.0" y="594.0" type="line" smooth="yes"/>
      <point x="232.0" y="647.25"/>
      <point x="276.5" y="792.75"/>
      <point x="344.0" y="864.0" type="qcurve" smooth="yes"/>
      <point x="360.0" y="881.3333333333334"/>
      <point x="385.0" y="903.0" type="qcurve" smooth="yes"/>
      <point x="436.5" y="946.0"/>
      <point x="479.91666666666663" y="1007.3333333333333"/>
      <point x="489.0" y="1066.0"/>
      <point x="489.0" y="1105.0" type="qcurve" smooth="yes"/>
      <point x="489.0" y="1134.25"/>
      <point x="437.25" y="1193.0"/>
      <point x="390.0" y="1193.0" type="qcurve" smooth="yes"/>
      <point x="267.63157894736844" y="1193.0"/>
      <point x="135" y="1109" type="qcurve"/>
      <point x="20.0" y="1362.0" type="line"/>
      <point x="206.0375" y="1483.0"/>
      <point x="424.0" y="1483.0" type="qcurve" smooth="yes"/>
      <point x="542.5" y="1483.0"/>
      <point x="717.75" y="1393.5833333333335"/>
      <point x="814.0" y="1244.5"/>
      <point x="814.0" y="1155.0" type="qcurve" smooth="yes"/>
      <point x="814.0" y="1094.25"/>
      <point x="804.0" y="991.75"/>
      <point x="783.0" y="943.0" type="qcurve" smooth="yes"/>
      <point x="764.25" y="900.25"/>
      <point x="696.0" y="812.25"/>
      <point x="639.0" y="762.0" type="qcurve" smooth="yes"/>
      <point x="577.8506493506494" y="707.961038961039"/>
      <point x="556.0" y="673.0" type="qcurve" smooth="yes"/>
      <point x="542.5" y="649.75"/>
      <point x="536.0" y="610.5"/>
      <point x="536" y="588" type="qcurve" smooth="yes"/>
      <point x="536" y="515" type="line"/>
    </contour>
    <contour>
      <point x="384.0" y="-32.0" type="qcurve" smooth="yes"/>
      <point x="285.75" y="-32.0"/>
      <point x="180.0" y="67.5"/>
      <point x="180.0" y="156.0" type="qcurve" smooth="yes"/>
      <point x="180.0" y="246.0"/>
      <point x="282.75" y="345.0"/>
      <point x="384.0" y="345.0" type="qcurve" smooth="yes"/>
      <point x="486.75" y="345.0"/>
      <point x="586.0" y="241.5"/>
      <point x="586.0" y="156.0" type="qcurve" smooth="yes"/>
      <point x="586.0" y="73.5"/>
      <point x="483.75" y="-32.0"/>
    </contour>
  </outline>
</glyph>
<glyph name="at" format="1">
  <advance width="1593"/>
  <unicode hex="0040"/>
  <note>
at
</note>
  <outline>
    <contour>
      <point x="804.0" y="-163.0" type="qcurve" smooth="yes"/>
      <point x="630.75" y="-163.0"/>
      <point x="354.8645833333333" y="-56.145833333333336"/>
      <point x="160.63541666666666" y="144.64583333333334"/>
      <point x="58.0" y="427.75"/>
      <point x="58.0" y="604.0" type="qcurve" smooth="yes"/>
      <point x="58.0" y="791.5"/>
      <point x="168.76041666666666" y="1110.8125"/>
      <point x="376.7395833333333" y="1348.1875"/>
      <point x="669.75" y="1480.0"/>
      <point x="852.0" y="1480.0" type="qcurve" smooth="yes"/>
      <point x="1020.375" y="1480.0"/>
      <point x="1274.5989583333333" y="1384.9895833333333"/>
      <point x="1445.1510416666667" y="1201.0104166666667"/>
      <point x="1531.0" y="933.5"/>
      <point x="1531.0" y="761.0" type="qcurve" smooth="yes"/>
      <point x="1531.0" y="596.5"/>
      <point x="1445.9166666666665" y="358.91666666666663"/>
      <point x="1292.5" y="231.0"/>
      <point x="1190.0" y="231.0" type="qcurve" smooth="yes"/>
      <point x="1109.75" y="231.0"/>
      <point x="998.75" y="299.25"/>
      <point x="977" y="342" type="qcurve"/>
      <point x="971.0" y="342.0" type="line"/>
      <point x="922.25" y="297.75"/>
      <point x="813.25" y="231.0"/>
      <point x="730.0" y="231.0" type="qcurve" smooth="yes"/>
      <point x="603.25" y="231.0"/>
      <point x="444.0" y="413.25"/>
      <point x="444.0" y="603.0" type="qcurve" smooth="yes"/>
      <point x="444.0" y="746.5"/>
      <point x="541.0" y="975.0833333333333"/>
      <point x="726.0" y="1108.0"/>
      <point x="858.0" y="1108.0" type="qcurve" smooth="yes"/>
      <point x="912.0" y="1108.0"/>
      <point x="1065.25" y="1084.0"/>
      <point x="1147" y="1060" type="qcurve"/>
      <point x="1124.0" y="598.0" type="line"/>
      <point x="1124.0" y="591.25"/>
      <point x="1124.0" y="576.75"/>
      <point x="1124.0" y="570.0" type="qcurve" smooth="yes"/>
      <point x="1124.0" y="492.5"/>
      <point x="1139.0" y="464.0" type="qcurve" smooth="yes"/>
      <point x="1153.7368421052631" y="436.0"/>
      <point x="1182.0" y="436.0" type="qcurve" smooth="yes"/>
      <point x="1209.75" y="436.0"/>
      <point x="1248.3541666666667" y="497.7604166666667"/>
      <point x="1272.1458333333333" y="595.2395833333334"/>
      <point x="1283.0" y="705.0"/>
      <point x="1283.0" y="753.0" type="qcurve" smooth="yes"/>
      <point x="1283.0" y="873.375"/>
      <point x="1234.0104166666667" y="1061.9427083333333"/>
      <point x="1129.9895833333333" y="1192.8072916666667"/>
      <point x="965.5" y="1261.0"/>
      <point x="850.0" y="1261.0" type="qcurve" smooth="yes"/>
      <point x="720.25" y="1261.0"/>
      <point x="519.8854166666666" y="1160.0052083333333"/>
      <point x="382.6145833333333" y="981.2447916666666"/>
      <point x="312.0" y="745.625"/>
      <point x="312.0" y="611.0" type="qcurve" smooth="yes"/>
      <point x="312.0" y="350.0"/>
      <point x="571.0" y="58.0"/>
      <point x="808.0" y="58.0" type="qcurve" smooth="yes"/>
      <point x="900.25" y="58.0"/>
      <point x="1112.5" y="106.0"/>
      <point x="1228" y="157" type="qcurve"/>
      <point x="1228.0" y="-64.0" type="line"/>
      <point x="1131.25" y="-113.5"/>
      <point x="916.5" y="-163.0"/>
    </contour>
    <contour>
      <point x="781.0" y="436.0" type="qcurve" smooth="yes"/>
      <point x="808.75" y="436.0"/>
      <point x="843.5" y="472.0"/>
      <point x="854.0" y="499.0" type="qcurve" smooth="yes"/>
      <point x="864.5" y="526.0"/>
      <point x="882.25" y="621.75"/>
      <point x="886" y="690" type="qcurve" smooth="yes"/>
      <point x="897.0" y="886.0" type="line"/>
      <point x="873.0" y="898.0"/>
      <point x="840.0" y="898.0" type="qcurve" smooth="yes"/>
      <point x="813.0" y="898.0"/>
      <point x="768.25" y="865.0"/>
      <point x="751.0" y="838.0" type="qcurve" smooth="yes"/>
      <point x="727.0" y="800.5"/>
      <point x="698.0" y="686.5"/>
      <point x="698.0" y="613.0" type="qcurve" smooth="yes"/>
      <point x="698.0" y="577.0"/>
      <point x="706.25" y="515.75"/>
      <point x="716.0" y="491.0" type="qcurve" smooth="yes"/>
      <point x="737.1538461538462" y="436.0"/>
    </contour>
  </outline>
</glyph>
<glyph name="C" format="1">
  <advance width="986"/>
  <unicode hex="0043"/>
  <outline>
    <contour>
      <point x="635.0" y="1183.0" type="qcurve" smooth="yes"/>
      <point x="569.0" y="1183.0"/>
      <point x="475.0" y="1076.1666666666665"/>
      <point x="425.0" y="866.0"/>
      <point x="425.0" y="711.0" type="qcurve" smooth="yes"/>
      <point x="425.0" y="593.25"/>
      <point x="457.0" y="410.25"/>
      <point x="493.0" y="357.0" type="qcurve" smooth="yes"/>
      <point x="544.68" y="281.0"/>
      <point x="648.0" y="281.0" type="qcurve" smooth="yes"/>
      <point x="711.75" y="281.0"/>
      <point x="845.25" y="330.75"/>
      <point x="909" y="369" type="qcurve"/>
      <point x="909.0" y="62.0" type="line"/>
      <point x="849.75" y="20.0"/>
      <point x="691.5" y="-20.0"/>
      <point x="609.0" y="-20.0" type="qcurve" smooth="yes"/>
      <point x="492.50000000000006" y="-20.0"/>
      <point x="303.75" y="59.333333333333336"/>
      <point x="166.0" y="220.00000000000003"/>
      <point x="126.0" y="342.0" type="qcurve" smooth="yes"/>
      <point x="99.75" y="422.25"/>
      <point x="73.0" y="616.25"/>
      <point x="73.0" y="725.0" type="qcurve" smooth="yes"/>
      <point x="73.0" y="964.5"/>
      <point x="199.66666666666663" y="1303.0833333333333"/>
      <point x="441.0" y="1482.0"/>
      <point x="613.0" y="1482.0" type="qcurve" smooth="yes"/>
      <point x="694.75" y="1482.0"/>
      <point x="855.0" y="1432.5"/>
      <point x="954" y="1368" type="qcurve"/>
      <point x="845.0" y="1088.0" type="line"/>
      <point x="826.0" y="1102.5"/>
      <point x="759.5833333333334" y="1147.5833333333333"/>
      <point x="677.5" y="1183.0"/>
    </contour>
    <contour>
      <point x="417" y="0" type="move" name="bottom"/>
    </contour>
    <contour>
      <point x="316" y="1462" type="move" name="top"/>
    </contour>
  </outline>
</glyph>
<glyph name="D" format="1">
  <advance width="1206"/>
  <unicode hex="0044"/>
  <outline>
    <contour>
      <point x="1134.0" y="745.0" type="qcurve" smooth="yes"/>
      <point x="1134.0" y="387.25"/>
      <point x="812.25" y="0.0"/>
      <point x="516" y="0" type="qcurve" smooth="yes"/>
      <point x="115" y="0" type="line"/>
      <point x="115" y="1462" type="line"/>
      <point x="561.0" y="1462.0" type="line" smooth="yes"/>
      <point x="739.0" y="1462.0"/>
      <point x="995.8333333333333" y="1288.9166666666665"/>
      <point x="1134.0" y="967.5"/>
    </contour>
    <contour>
      <point x="779.0" y="736.0" type="qcurve" smooth="yes"/>
      <point x="779.0" y="954.25"/>
      <point x="665.0" y="1165.0"/>
      <point x="548" y="1165" type="qcurve" smooth="yes"/>
      <point x="462" y="1165" type="line"/>
      <point x="462" y="301" type="line"/>
      <point x="521.0" y="301.0" type="line" smooth="yes"/>
      <point x="653.0" y="301.0"/>
      <point x="779.0" y="515.5"/>
    </contour>
    <contour>
      <point x="604" y="0" type="move" name="bottom"/>
    </contour>
    <contour>
      <point x="604" y="731" type="move" name="center"/>
    </contour>
    <contour>
      <point x="604" y="1462" type="move" name="top"/>
    </contour>
  </outline>
</glyph>
<glyph name="E" format="1">
  <advance width="907"/>
  <unicode hex="0045"/>
  <outline>
    <contour>
      <point x="830" y="300" type="line"/>
      <point x="830" y="0" type="line"/>
      <point x="115" y="0" type="line"/>
      <point x="115" y="1462" type="line"/>
      <point x="830" y="1462" type="line"/>
      <point x="830" y="1166" type="line"/>
      <point x="462" y="1166" type="line"/>
      <point x="462" y="907" type="line"/>
      <point x="801" y="907" type="line"/>
      <point x="801" y="610" type="line"/>
      <point x="462" y="610" type="line"/>
      <point x="462" y="300" type="line"/>
    </contour>
    <contour>
      <point x="454" y="0" type="move" name="bottom"/>
    </contour>
    <contour>
      <point x="816" y="10" type="move" name="ogonek"/>
    </contour>
    <contour>
      <point x="454" y="1462" type="move" name="top"/>
    </contour>
    <contour>
      <point x="20" y="1462" type="move" name="topleft"/>
    </contour>
  </outline>
</glyph>
<glyph name="G" format="1">
  <advance width="1128"/>
  <unicode hex="0047"/>
  <outline>
    <contour>
      <point x="631.0" y="-20.0" type="qcurve" smooth="yes"/>
      <point x="356.5" y="-20.0"/>
      <point x="73.0" y="357.25"/>
      <point x="73.0" y="703.0" type="qcurve" smooth="yes"/>
      <point x="73.0" y="971.5"/>
      <point x="241.0" y="1330.75"/>
      <point x="397.0" y="1414.0" type="qcurve" smooth="yes"/>
      <point x="524.5" y="1483.0"/>
      <point x="699.0" y="1483.0" type="qcurve" smooth="yes"/>
      <point x="795.0" y="1483.0"/>
      <point x="964.25" y="1439.5"/>
      <point x="1046" y="1396" type="qcurve"/>
      <point x="944.0" y="1114.0" type="line"/>
      <point x="825.5" y="1180.0"/>
      <point x="727.0" y="1180.0" type="qcurve" smooth="yes"/>
      <point x="592.75" y="1180.0"/>
      <point x="425.0" y="934.0"/>
      <point x="425.0" y="688.0" type="qcurve" smooth="yes"/>
      <point x="425.0" y="511.0"/>
      <point x="521.25" y="281.0"/>
      <point x="618.0" y="281.0" type="qcurve" smooth="yes"/>
      <point x="647.4" y="281.0"/>
      <point x="705" y="289" type="qcurve"/>
      <point x="705" y="541" type="line"/>
      <point x="541" y="541" type="line"/>
      <point x="541" y="843" type="line"/>
      <point x="1042" y="843" type="line"/>
      <point x="1042.0" y="69.0" type="line"/>
      <point x="940.75" y="23.25"/>
      <point x="720.25" y="-20.0"/>
    </contour>
    <contour>
      <point x="584" y="0" type="move" name="bottom"/>
    </contour>
    <contour>
      <point x="706" y="1462" type="move" name="top"/>
    </contour>
  </outline>
</glyph>
<glyph name="I" format="1">
  <advance width="698"/>
  <unicode hex="0049"/>
  <outline>
    <contour>
      <point x="509" y="0" type="line"/>
      <point x="186" y="0" type="line"/>
      <point x="186" y="1462" type="line"/>
      <point x="509" y="1462" type="line"/>
    </contour>
    <contour>
      <point x="349" y="0" type="move" name="bottom"/>
    </contour>
    <contour>
      <point x="553" y="10" type="move" name="ogonek"/>
    </contour>
    <contour>
      <point x="349" y="1462" type="move" name="top"/>
    </contour>
    <contour>
      <point x="20" y="1462" type="move" name="topleft"/>
    </contour>
  </outline>
</glyph>
<glyph name="K" format="1">
  <advance width="1133"/>
  <unicode hex="004B"/>
  <outline>
    <contour>
      <point x="813" y="834" type="line"/>
      <point x="1133" y="0" type="line"/>
      <point x="765" y="0" type="line"/>
      <point x="570" y="581" type="line"/>
      <point x="462" y="488" type="line"/>
      <point x="462" y="0" type="line"/>
      <point x="115" y="0" type="line"/>
      <point x="115" y="1462" type="line"/>
      <point x="462" y="1462" type="line"/>
      <point x="462.0" y="759.0" type="line"/>
      <point x="490.5" y="825.0"/>
      <point x="525.75" y="920.75"/>
      <point x="531" y="950" type="qcurve"/>
      <point x="769" y="1462" type="line"/>
      <point x="1139" y="1462" type="line"/>
    </contour>
    <contour>
      <point x="566" y="0" type="move" name="bottom"/>
    </contour>
    <contour>
      <point x="566" y="1462" type="move" name="top"/>
    </contour>
  </outline>
</glyph>
<glyph name="M" format="1">
  <advance width="1694"/>
  <unicode hex="004D"/>
  <outline>
    <contour>
      <point x="115" y="0" type="line"/>
      <point x="115" y="1462" type="line"/>
      <point x="651" y="1462" type="line"/>
      <point x="789.0" y="663.0" type="line" smooth="yes"/>
      <point x="799.5" y="603.0"/>
      <point x="826.5" y="476.25"/>
      <point x="843" y="408" type="qcurve"/>
      <point x="851.0" y="408.0" type="line"/>
      <point x="867.5" y="476.25"/>
      <point x="894.5" y="603.0"/>
      <point x="905" y="663" type="qcurve" smooth="yes"/>
      <point x="1043" y="1462" type="line"/>
      <point x="1579" y="1462" type="line"/>
      <point x="1579" y="0" type="line"/>
      <point x="1258" y="0" type="line"/>
      <point x="1258.0" y="946.0" type="line" smooth="yes"/>
      <point x="1258.0" y="1089.9333333333334"/>
      <point x="1281" y="1208" type="qcurve"/>
      <point x="1269" y="1208" type="line"/>
      <point x="1038" y="0" type="line"/>
      <point x="656" y="0" type="line"/>
      <point x="425" y="1208" type="line"/>
      <point x="413.0" y="1208.0" type="line"/>
      <point x="436.0" y="1089.9333333333334"/>
      <point x="436" y="946" type="qcurve" smooth="yes"/>
      <point x="436" y="0" type="line"/>
    </contour>
    <contour>
      <point x="847" y="0" type="move" name="bottom"/>
    </contour>
    <contour>
      <point x="847" y="1462" type="move" name="top"/>
    </contour>
  </outline>
</glyph>
<glyph name="N" format="1">
  <advance width="1364"/>
  <unicode hex="004E"/>
  <outline>
    <contour>
      <point x="115" y="0" type="line"/>
      <point x="115" y="1462" type="line"/>
      <point x="538" y="1462" type="line"/>
      <point x="943" y="520" type="line"/>
      <point x="956.0" y="520.0" type="line"/>
      <point x="932.0" y="594.8235294117648"/>
      <point x="932" y="760" type="qcurve" smooth="yes"/>
      <point x="932" y="1462" type="line"/>
      <point x="1249" y="1462" type="line"/>
      <point x="1249" y="0" type="line"/>
      <point x="829" y="0" type="line"/>
      <point x="420" y="951" type="line"/>
      <point x="404.0" y="951.0" type="line"/>
      <point x="419.75" y="893.25"/>
      <point x="434.0" y="763.75"/>
      <point x="434" y="691" type="qcurve" smooth="yes"/>
      <point x="434" y="0" type="line"/>
    </contour>
    <contour>
      <point x="682" y="0" type="move" name="bottom"/>
    </contour>
    <contour>
      <point x="682" y="1462" type="move" name="top"/>
    </contour>
  </outline>
</glyph>
<glyph name="Q" format="1">
  <advance width="1285"/>
  <unicode hex="0051"/>
  <outline>
    <contour>
      <point x="852" y="-348" type="line"/>
      <point x="654.0" y="-20.0" type="line"/>
      <point x="653.25" y="-20.0"/>
      <point x="651.75" y="-20.0"/>
      <point x="651.0" y="-20.0" type="qcurve" smooth="yes"/>
      <point x="463.5" y="-19.5"/>
      <point x="205.75" y="153.99999999999997"/>
      <point x="73.0" y="487.49999999999994"/>
      <point x="73.0" y="728.0" type="qcurve" smooth="yes"/>
      <point x="73.0" y="969.0"/>
      <point x="205.66666666666669" y="1307.8333333333335"/>
      <point x="461.00000000000006" y="1486.0"/>
      <point x="645.0" y="1486.0" type="qcurve" smooth="yes"/>
      <point x="827.0" y="1486.0"/>
      <point x="1080.1666666666665" y="1311.3333333333333"/>
      <point x="1212.0" y="976.0"/>
      <point x="1212.0" y="735.0" type="qcurve" smooth="yes"/>
      <point x="1212.0" y="498.75"/>
      <point x="1082.25" y="162.75"/>
      <point x="954" y="69" type="qcurve"/>
      <point x="1247" y="-348" type="line"/>
    </contour>
    <contour>
      <point x="646.0" y="284.0" type="qcurve" smooth="yes"/>
      <point x="752.5" y="284.0"/>
      <point x="859.0" y="510.0"/>
      <point x="859.0" y="735.0" type="qcurve" smooth="yes"/>
      <point x="859.0" y="959.25"/>
      <point x="752.5" y="1183.0"/>
      <point x="646.0" y="1183.0" type="qcurve" smooth="yes"/>
      <point x="538.0" y="1183.0"/>
      <point x="425.0" y="956.0"/>
      <point x="425.0" y="734.0" type="qcurve" smooth="yes"/>
      <point x="425.0" y="515.0"/>
      <point x="536.5" y="284.0"/>
    </contour>
    <contour>
      <point x="643" y="0" type="move" name="bottom"/>
    </contour>
    <contour>
      <point x="643" y="1462" type="move" name="top"/>
    </contour>
  </outline>
</glyph>
<glyph name="S" format="1">
  <advance width="862"/>
  <unicode hex="0053"/>
  <outline>
    <contour>
      <point x="401.0" y="-20.0" type="qcurve" smooth="yes"/>
      <point x="337.5" y="-20.0"/>
      <point x="215.91666666666663" y="-0.8333333333333321"/>
      <point x="106.0" y="37.0"/>
      <point x="60" y="65" type="qcurve"/>
      <point x="60.0" y="404.0" type="line"/>
      <point x="150.75" y="343.25"/>
      <point x="300.5" y="278.0"/>
      <point x="371.0" y="278.0" type="qcurve" smooth="yes"/>
      <point x="429.5" y="278.0"/>
      <point x="484.0" y="324.0"/>
      <point x="484.0" y="369.0" type="qcurve" smooth="yes"/>
      <point x="484.0" y="415.5"/>
      <point x="433.75" y="501.41666666666663"/>
      <point x="350.5" y="581.0"/>
      <point x="301.0" y="618.0" type="qcurve" smooth="yes"/>
      <point x="251.5" y="655.5"/>
      <point x="137.25" y="771.0"/>
      <point x="99.0" y="885.0" type="qcurve" smooth="yes"/>
      <point x="72.0" y="966.0"/>
      <point x="72.0" y="1056.0" type="qcurve" smooth="yes"/>
      <point x="72.0" y="1260.75"/>
      <point x="283.25" y="1483.0"/>
      <point x="479.0" y="1483.0" type="qcurve" smooth="yes"/>
      <point x="562.25" y="1483.0"/>
      <point x="734.25" y="1431.0"/>
      <point x="825" y="1374" type="qcurve"/>
      <point x="713.0" y="1104.0" type="line"/>
      <point x="699.5" y="1113.0"/>
      <point x="634.9166666666666" y="1150.5"/>
      <point x="552.0" y="1182.0"/>
      <point x="511.0" y="1182.0" type="qcurve" smooth="yes"/>
      <point x="456.25" y="1182.0"/>
      <point x="414.0" y="1120.0"/>
      <point x="414.0" y="1078.0" type="qcurve" smooth="yes"/>
      <point x="414.0" y="1045.75"/>
      <point x="433.75" y="990.0"/>
      <point x="451.0" y="966.0" type="qcurve" smooth="yes"/>
      <point x="477.25" y="928.5"/>
      <point x="548.5" y="868.75"/>
      <point x="583.0" y="844.0" type="qcurve" smooth="yes"/>
      <point x="650.5" y="794.5"/>
      <point x="761.25" y="682.0833333333334"/>
      <point x="827.0" y="522.0"/>
      <point x="827.0" y="401.0" type="qcurve" smooth="yes"/>
      <point x="827.0" y="262.5"/>
      <point x="731.9166666666667" y="75.08333333333334"/>
      <point x="542.5" y="-20.0"/>
    </contour>
    <contour>
      <point x="454" y="0" type="move" name="bottom"/>
    </contour>
    <contour>
      <point x="431" y="1462" type="move" name="top"/>
    </contour>
  </outline>
</glyph>
<glyph name="U" format="1">
  <advance width="1211"/>
  <unicode hex="0055"/>
  <outline>
    <contour>
      <point x="594.0" y="-20.0" type="qcurve" smooth="yes"/>
      <point x="359.25" y="-20.0"/>
      <point x="113.0" y="260.75"/>
      <point x="113" y="539" type="qcurve" smooth="yes"/>
      <point x="113" y="1462" type="line"/>
      <point x="456" y="1462" type="line"/>
      <point x="456.0" y="516.0" type="line" smooth="yes"/>
      <point x="456.0" y="397.5"/>
      <point x="529.75" y="284.0"/>
      <point x="607.0" y="284.0" type="qcurve" smooth="yes"/>
      <point x="676.0" y="284.0"/>
      <point x="754.0" y="401.5"/>
      <point x="754" y="505" type="qcurve" smooth="yes"/>
      <point x="754" y="1462" type="line"/>
      <point x="1098" y="1462" type="line"/>
      <point x="1098.0" y="534.0" type="line" smooth="yes"/>
      <point x="1098.0" y="267.0"/>
      <point x="837.0" y="-20.0"/>
    </contour>
    <contour>
      <point x="606" y="0" type="move" name="bottom"/>
    </contour>
    <contour>
      <point x="811" y="10" type="move" name="ogonek"/>
    </contour>
    <contour>
      <point x="606" y="1462" type="move" name="top"/>
    </contour>
    <contour>
      <point x="1191" y="1462" type="move" name="topright"/>
    </contour>
  </outline>
</glyph>
<glyph name="V" format="1">
  <advance width="1132"/>
  <unicode hex="0056"/>
  <outline>
    <contour>
      <point x="341" y="0" type="line"/>
      <point x="0" y="1462" type="line"/>
      <point x="348" y="1462" type="line"/>
      <point x="519.0" y="627.0" type="line" smooth="yes"/>
      <point x="521.0" y="617.5"/>
      <point x="538.9166666666667" y="505.50000000000006"/>
      <point x="560.5" y="357.5"/>
      <point x="568.0" y="294.0" type="qcurve"/>
      <point x="575.0" y="357.5"/>
      <point x="593.9166666666665" y="482.99999999999994"/>
      <point x="616.5" y="608.5"/>
      <point x="629" y="672" type="qcurve" smooth="yes"/>
      <point x="783" y="1462" type="line"/>
      <point x="1132" y="1462" type="line"/>
      <point x="789" y="0" type="line"/>
    </contour>
    <contour>
      <point x="565" y="0" type="move" name="bottom"/>
    </contour>
    <contour>
      <point x="565" y="1462" type="move" name="top"/>
    </contour>
  </outline>
</glyph>
<glyph name="W" format="1">
  <advance width="1720"/>
  <unicode hex="0057"/>
  <outline>
    <contour>
      <point x="265" y="0" type="line"/>
      <point x="22" y="1462" type="line"/>
      <point x="359" y="1462" type="line"/>
      <point x="458.0" y="714.0" type="line" smooth="yes"/>
      <point x="461.5" y="687.5"/>
      <point x="477.24999999999994" y="555.0"/>
      <point x="496.0" y="386.5"/>
      <point x="504.0" y="306.0" type="qcurve"/>
      <point x="511.875" y="397.5"/>
      <point x="523.7083333333334" y="525.4375"/>
      <point x="533.2916666666666" y="614.5625"/>
      <point x="542.125" y="679.5"/>
      <point x="547" y="708" type="qcurve" smooth="yes"/>
      <point x="681" y="1462" type="line"/>
      <point x="1037" y="1462" type="line"/>
      <point x="1170.0" y="706.0" type="line" smooth="yes"/>
      <point x="1182.5" y="635.5"/>
      <point x="1199.0" y="519.5833333333333"/>
      <point x="1211.5" y="392.0"/>
      <point x="1218.0" y="304.0" type="qcurve"/>
      <point x="1229.25" y="406.0"/>
      <point x="1255.5" y="628.5"/>
      <point x="1266" y="714" type="qcurve" smooth="yes"/>
      <point x="1357" y="1462" type="line"/>
      <point x="1699" y="1462" type="line"/>
      <point x="1456" y="0" type="line"/>
      <point x="1021" y="0" type="line"/>
      <point x="911.0" y="625.0" type="line" smooth="yes"/>
      <point x="899.5" y="689.0"/>
      <point x="877.5833333333333" y="832.7499999999999"/>
      <point x="862.0" y="981.5"/>
      <point x="860.0" y="1053.0" type="qcurve"/>
      <point x="848.0" y="939.0"/>
      <point x="821.75" y="712.75"/>
      <point x="806" y="619" type="qcurve" smooth="yes"/>
      <point x="702" y="0" type="line"/>
    </contour>
    <contour>
      <point x="859" y="0" type="move" name="bottom"/>
    </contour>
    <contour>
      <point x="859" y="1462" type="move" name="top"/>
    </contour>
  </outline>
</glyph>
<glyph name="X" format="1">
  <advance width="1078"/>
  <unicode hex="0058"/>
  <outline>
    <contour>
      <point x="720" y="745" type="line"/>
      <point x="1087" y="0" type="line"/>
      <point x="727" y="0" type="line"/>
      <point x="521" y="461" type="line"/>
      <point x="353" y="0" type="line"/>
      <point x="-9" y="0" type="line"/>
      <point x="338" y="752" type="line"/>
      <point x="9" y="1462" type="line"/>
      <point x="356" y="1462" type="line"/>
      <point x="539" y="1036" type="line"/>
      <point x="687" y="1462" type="line"/>
      <point x="1052" y="1462" type="line"/>
    </contour>
    <contour>
      <point x="540" y="0" type="move" name="bottom"/>
    </contour>
    <contour>
      <point x="956" y="0" type="move" name="cyrillicbighook"/>
    </contour>
    <contour>
      <point x="540" y="1462" type="move" name="top"/>
    </contour>
  </outline>
</glyph>
<glyph name="Y" format="1">
  <advance width="1079"/>
  <unicode hex="0059"/>
  <outline>
    <contour>
      <point x="366" y="1462" type="line"/>
      <point x="539" y="961" type="line"/>
      <point x="717" y="1462" type="line"/>
      <point x="1079" y="1462" type="line"/>
      <point x="710" y="592" type="line"/>
      <point x="710" y="0" type="line"/>
      <point x="369" y="0" type="line"/>
      <point x="369" y="578" type="line"/>
      <point x="0" y="1462" type="line"/>
    </contour>
    <contour>
      <point x="541" y="0" type="move" name="bottom"/>
    </contour>
    <contour>
      <point x="541" y="1462" type="move" name="top"/>
    </contour>
    <contour>
      <point x="20" y="1462" type="move" name="topleft"/>
    </contour>
  </outline>
</glyph>
<glyph name="a" format="1">
  <advance width="1030"/>
  <unicode hex="0061"/>
  <outline>
    <contour>
      <point x="945" y="0" type="line"/>
      <point x="700" y="0" type="line"/>
      <point x="629" y="152" type="line"/>
      <point x="622.0" y="152.0" type="line"/>
      <point x="558.25" y="50.75"/>
      <point x="423.25" y="-20.0"/>
      <point x="343.0" y="-20.0" type="qcurve" smooth="yes"/>
      <point x="190.75" y="-20.0"/>
      <point x="45.0" y="168.75"/>
      <point x="45.0" y="336.0" type="qcurve" smooth="yes"/>
      <point x="45.0" y="524.25"/>
      <point x="235.5" y="696.0"/>
      <point x="444" y="705" type="qcurve" smooth="yes"/>
      <point x="604" y="712" type="line"/>
      <point x="604.0" y="786.0" type="line" smooth="yes"/>
      <point x="604.0" y="831.75"/>
      <point x="542.0" y="885.0"/>
      <point x="482.0" y="885.0" type="qcurve" smooth="yes"/>
      <point x="379.1578947368421" y="885.0"/>
      <point x="236" y="800" type="qcurve"/>
      <point x="121.0" y="1029.0" type="line"/>
      <point x="214.0" y="1089.75"/>
      <point x="423.5" y="1151.0"/>
      <point x="527.0" y="1151.0" type="qcurve" smooth="yes"/>
      <point x="731.0" y="1151.0"/>
      <point x="945.0" y="932.0"/>
      <point x="945" y="752" type="qcurve" smooth="yes"/>
    </contour>
    <contour>
      <point x="469.0" y="243.0" type="qcurve" smooth="yes"/>
      <point x="528.25" y="243.0"/>
      <point x="604.0" y="343.5"/>
      <point x="604" y="420" type="qcurve" smooth="yes"/>
      <point x="604" y="506" type="line"/>
      <point x="536.0" y="503.0" type="line" smooth="yes"/>
      <point x="467.0" y="500.0"/>
      <point x="395.0" y="422.0"/>
      <point x="395.0" y="344.0" type="qcurve" smooth="yes"/>
      <point x="395.0" y="293.0"/>
      <point x="429.25" y="243.0"/>
    </contour>
    <contour>
      <point x="515" y="0" type="move" name="bottom"/>
    </contour>
    <contour>
      <point x="972" y="10" type="move" name="ogonek"/>
    </contour>
    <contour>
      <point x="515" y="1127" type="move" name="top"/>
    </contour>
  </outline>
</glyph>
<glyph name="b" format="1">
  <advance width="1069"/>
  <unicode hex="0062"/>
  <outline>
    <contour>
      <point x="654.0" y="-20.0" type="qcurve" smooth="yes"/>
      <point x="591.0" y="-20.0"/>
      <point x="478.5" y="37.5"/>
      <point x="426" y="117" type="qcurve"/>
      <point x="405" y="117" type="line"/>
      <point x="346" y="0" type="line"/>
      <point x="99" y="0" type="line"/>
      <point x="99" y="1556" type="line"/>
      <point x="439" y="1556" type="line"/>
      <point x="439.0" y="1243.0" type="line" smooth="yes"/>
      <point x="439.0" y="1205.5"/>
      <point x="428.5" y="1064.75"/>
      <point x="421" y="980" type="qcurve"/>
      <point x="437.0" y="980.0" type="line"/>
      <point x="484.25" y="1071.5"/>
      <point x="596.0" y="1149.0"/>
      <point x="668.0" y="1149.0" type="qcurve" smooth="yes"/>
      <point x="824.0" y="1149.0"/>
      <point x="1003.0" y="836.25"/>
      <point x="1003.0" y="561.0" type="qcurve" smooth="yes"/>
      <point x="1003.0" y="287.25"/>
      <point x="821.25" y="-20.0"/>
    </contour>
    <contour>
      <point x="544.0" y="270.0" type="qcurve" smooth="yes"/>
      <point x="592.0" y="270.0"/>
      <point x="640.5" y="363.5833333333333"/>
      <point x="657.0" y="501.49999999999994"/>
      <point x="657.0" y="568.0" type="qcurve" smooth="yes"/>
      <point x="657.0" y="713.5"/>
      <point x="600.25" y="863.0"/>
      <point x="541.0" y="863.0" type="qcurve" smooth="yes"/>
      <point x="498.49999999999994" y="863.0"/>
      <point x="454.58333333333337" y="791.25"/>
      <point x="439.0" y="674.5"/>
      <point x="439" y="607" type="qcurve" smooth="yes"/>
      <point x="439.0" y="579.0" type="line" smooth="yes"/>
      <point x="439.0" y="497.00000000000006"/>
      <point x="450.66666666666663" y="356.16666666666663"/>
      <point x="495.0" y="270.0"/>
    </contour>
    <contour>
      <point x="535" y="0" type="move" name="bottom"/>
    </contour>
    <contour>
      <point x="535" y="1127" type="move" name="top"/>
    </contour>
  </outline>
</glyph>
<glyph name="d" format="1">
  <advance width="1069"/>
  <unicode hex="0064"/>
  <outline>
    <contour>
      <point x="409.0" y="-20.0" type="qcurve" smooth="yes"/>
      <point x="304.0" y="-20.0"/>
      <point x="149.5" y="121.33333333333331"/>
      <point x="65.0" y="384.0"/>
      <point x="65.0" y="566.0" type="qcurve" smooth="yes"/>
      <point x="65.0" y="831.5"/>
      <point x="245.25" y="1148.0"/>
      <point x="405.0" y="1148.0" type="qcurve" smooth="yes"/>
      <point x="480.0" y="1148.0"/>
      <point x="582.5" y="1068.75"/>
      <point x="629" y="981" type="qcurve"/>
      <point x="648.0" y="981.0" type="line"/>
      <point x="639.75" y="1075.5"/>
      <point x="633.0" y="1191.0"/>
      <point x="633" y="1233" type="qcurve" smooth="yes"/>
      <point x="633" y="1556" type="line"/>
      <point x="972" y="1556" type="line"/>
      <point x="972" y="0" type="line"/>
      <point x="723" y="0" type="line"/>
      <point x="662" y="141" type="line"/>
      <point x="653.0" y="141.0" type="line"/>
      <point x="605.0" y="49.5"/>
      <point x="475.0" y="-20.0"/>
    </contour>
    <contour>
      <point x="526.0" y="266.0" type="qcurve" smooth="yes"/>
      <point x="574.0" y="266.0"/>
      <point x="617.4999999999999" y="343.33333333333337"/>
      <point x="629.0" y="466.0"/>
      <point x="629" y="534" type="qcurve" smooth="yes"/>
      <point x="629.0" y="558.0" type="line" smooth="yes"/>
      <point x="629.0" y="634.0"/>
      <point x="620.1666666666665" y="770.8333333333333"/>
      <point x="576.0" y="857.0"/>
      <point x="523.0" y="857.0" type="qcurve" smooth="yes"/>
      <point x="477.0" y="857.0"/>
      <point x="430.16666666666663" y="768.3333333333333"/>
      <point x="414.0" y="629.0"/>
      <point x="414.0" y="553.0" type="qcurve" smooth="yes"/>
      <point x="414.0" y="482.5"/>
      <point x="430.0" y="350.75"/>
      <point x="478.0" y="266.0"/>
    </contour>
    <contour>
      <point x="535" y="0" type="move" name="bottom"/>
    </contour>
    <contour>
      <point x="535" y="563" type="move" name="center"/>
    </contour>
    <contour>
      <point x="535" y="1127" type="move" name="top"/>
    </contour>
    <contour>
      <point x="1049" y="1127" type="move" name="topright"/>
    </contour>
  </outline>
</glyph>
<glyph name="e" format="1">
  <advance width="1002"/>
  <unicode hex="0065"/>
  <outline>
    <contour>
      <point x="554.0" y="-20.0" type="qcurve" smooth="yes"/>
      <point x="329.0" y="-20.0"/>
      <point x="64.0" y="278.25"/>
      <point x="64.0" y="555.0" type="qcurve" smooth="yes"/>
      <point x="64.0" y="738.5"/>
      <point x="173.0" y="1004.4166666666665"/>
      <point x="376.0" y="1148.0"/>
      <point x="517.0" y="1148.0" type="qcurve" smooth="yes"/>
      <point x="719.5" y="1148.0"/>
      <point x="953.0" y="880.0"/>
      <point x="953" y="631" type="qcurve" smooth="yes"/>
      <point x="953" y="466" type="line"/>
      <point x="409.0" y="466.0" type="line"/>
      <point x="412.0" y="354.25"/>
      <point x="522.0" y="248.0"/>
      <point x="612.0" y="248.0" type="qcurve" smooth="yes"/>
      <point x="659.5" y="248.0"/>
      <point x="754.25" y="267.83333333333337"/>
      <point x="850.0" y="307.0"/>
      <point x="899" y="336" type="qcurve"/>
      <point x="899.0" y="62.0" type="line"/>
      <point x="830.0" y="22.25"/>
      <point x="656.75" y="-20.0"/>
    </contour>
    <contour>
      <point x="414" y="705" type="qcurve"/>
      <point x="621.0" y="705.0" type="line"/>
      <point x="617.25" y="802.5"/>
      <point x="564.25" y="892.0"/>
      <point x="517.0" y="892.0" type="qcurve" smooth="yes"/>
      <point x="478.0" y="892.0"/>
      <point x="417.75" y="802.5"/>
    </contour>
    <contour>
      <point x="553" y="0" type="move" name="bottom"/>
    </contour>
    <contour>
      <point x="772" y="18" type="move" name="ogonek"/>
    </contour>
    <contour>
      <point x="500" y="1127" type="move" name="top"/>
    </contour>
  </outline>
</glyph>
<glyph name="f" format="1">
  <advance width="680"/>
  <unicode hex="0066"/>
  <outline>
    <contour>
      <point x="158" y="0" type="line"/>
      <point x="158" y="861" type="line"/>
      <point x="33" y="861" type="line"/>
      <point x="33" y="1027" type="line"/>
      <point x="158" y="1125" type="line"/>
      <point x="158.0" y="1210.0" type="line" smooth="yes"/>
      <point x="158.0" y="1383.25"/>
      <point x="333.5" y="1567.0"/>
      <point x="521.0" y="1567.0" type="qcurve" smooth="yes"/>
      <point x="591.5" y="1567.0"/>
      <point x="704.0" y="1540.0"/>
      <point x="761" y="1513" type="qcurve"/>
      <point x="675.0" y="1261.0" type="line"/>
      <point x="642.75" y="1276.75"/>
      <point x="585.0" y="1286.0"/>
      <point x="540.0" y="1286.0" type="qcurve" smooth="yes"/>
      <point x="527.0" y="1286.0"/>
      <point x="522.0" y="1283.0" type="qcurve" smooth="yes"/>
      <point x="510.0" y="1275.5"/>
      <point x="498.0" y="1229.0"/>
      <point x="498" y="1205" type="qcurve" smooth="yes"/>
      <point x="498" y="1127" type="line"/>
      <point x="688" y="1127" type="line"/>
      <point x="688" y="861" type="line"/>
      <point x="498" y="861" type="line"/>
      <point x="498" y="0" type="line"/>
    </contour>
    <contour>
      <point x="340" y="0" type="move" name="bottom"/>
    </contour>
    <contour>
      <point x="340" y="1127" type="move" name="top"/>
    </contour>
  </outline>
</glyph>
<glyph name="g" format="1">
  <advance width="1020"/>
  <unicode hex="0067"/>
  <outline>
    <contour>
      <point x="647" y="1123" type="qcurve"/>
      <point x="1001" y="1123" type="line"/>
      <point x="1001" y="929" type="line"/>
      <point x="876.0" y="894.0" type="line"/>
      <point x="889.5" y="860.25"/>
      <point x="901.0" y="797.5"/>
      <point x="901.0" y="754.0" type="qcurve" smooth="yes"/>
      <point x="901.0" y="568.0"/>
      <point x="687.75" y="367.0"/>
      <point x="492.0" y="367.0" type="qcurve" smooth="yes"/>
      <point x="433.6666666666667" y="367.0"/>
      <point x="407.0" y="377.0" type="qcurve"/>
      <point x="396.5" y="367.25"/>
      <point x="374.0" y="337.0"/>
      <point x="374.0" y="313.0" type="qcurve" smooth="yes"/>
      <point x="374.0" y="254.0"/>
      <point x="490" y="254" type="qcurve" smooth="yes"/>
      <point x="692.0" y="254.0" type="line" smooth="yes"/>
      <point x="831.5" y="254.0"/>
      <point x="982.0" y="99.25"/>
      <point x="982.0" y="-59.0" type="qcurve" smooth="yes"/>
      <point x="982.0" y="-269.0"/>
      <point x="703.0" y="-492.0"/>
      <point x="430.0" y="-492.0" type="qcurve" smooth="yes"/>
      <point x="228.25" y="-492.0"/>
      <point x="10.0" y="-326.0"/>
      <point x="10.0" y="-173.0" type="qcurve" smooth="yes"/>
      <point x="10.0" y="-83.75"/>
      <point x="127.5" y="55.25"/>
      <point x="225.0" y="83.0" type="qcurve"/>
      <point x="174.0" y="101.75"/>
      <point x="107.0" y="189.25"/>
      <point x="107.0" y="247.0" type="qcurve" smooth="yes"/>
      <point x="107.0" y="314.5"/>
      <point x="166.75" y="394.0"/>
      <point x="217.0" y="439.0" type="qcurve"/>
      <point x="154.0" y="482.5"/>
      <point x="76.0" y="659.0"/>
      <point x="76.0" y="761.0" type="qcurve" smooth="yes"/>
      <point x="76.0" y="947.75"/>
      <point x="287.0" y="1148.0"/>
      <point x="488.0" y="1148.0" type="qcurve" smooth="yes"/>
      <point x="521.75" y="1148.0"/>
      <point x="623.75" y="1130.5"/>
    </contour>
    <contour>
      <point x="316.0" y="-148.0" type="qcurve" smooth="yes"/>
      <point x="316.0" y="-198.25"/>
      <point x="389.25" y="-250.0"/>
      <point x="453.0" y="-250.0" type="qcurve" smooth="yes"/>
      <point x="567.75" y="-250.0"/>
      <point x="673.0" y="-179.0"/>
      <point x="673.0" y="-116.0" type="qcurve" smooth="yes"/>
      <point x="673.0" y="-68.75"/>
      <point x="627.0" y="-40.0"/>
      <point x="543" y="-40" type="qcurve" smooth="yes"/>
      <point x="389.0" y="-40.0" type="line" smooth="yes"/>
      <point x="316.0" y="-40.0"/>
    </contour>
    <contour>
      <point x="408.0" y="759.0" type="qcurve" smooth="yes"/>
      <point x="408.0" y="592.0"/>
      <point x="490.0" y="592.0" type="qcurve" smooth="yes"/>
      <point x="570.0" y="592.0"/>
      <point x="570.0" y="757.0" type="qcurve" smooth="yes"/>
      <point x="570.0" y="926.0"/>
      <point x="490.0" y="926.0" type="qcurve" smooth="yes"/>
      <point x="408.0" y="926.0"/>
    </contour>
    <contour>
      <point x="510" y="0" type="move" name="bottom"/>
    </contour>
    <contour>
      <point x="515" y="1127" type="move" name="top"/>
    </contour>
  </outline>
</glyph>
<glyph name="h" format="1">
  <advance width="1110"/>
  <unicode hex="0068"/>
  <outline>
    <contour>
      <point x="99" y="0" type="line"/>
      <point x="99" y="1556" type="line"/>
      <point x="439" y="1556" type="line"/>
      <point x="439.0" y="1278.0" type="line" smooth="yes"/>
      <point x="439.0" y="1244.25"/>
      <point x="430.5" y="1099.25"/>
      <point x="423" y="986" type="qcurve"/>
      <point x="439.0" y="986.0" type="line"/>
      <point x="482.5" y="1070.75"/>
      <point x="607.75" y="1148.0"/>
      <point x="685.0" y="1148.0" type="qcurve" smooth="yes"/>
      <point x="852.25" y="1148.0"/>
      <point x="1025.0" y="928.75"/>
      <point x="1025" y="718" type="qcurve" smooth="yes"/>
      <point x="1025" y="0" type="line"/>
      <point x="682" y="0" type="line"/>
      <point x="682.0" y="629.0" type="line" smooth="yes"/>
      <point x="682.0" y="739.25"/>
      <point x="628.0" y="862.0"/>
      <point x="577.0" y="862.0" type="qcurve" smooth="yes"/>
      <point x="496.655737704918" y="862.0"/>
      <point x="468.0" y="770.0" type="qcurve" smooth="yes"/>
      <point x="439.0" y="677.2"/>
      <point x="439" y="510" type="qcurve" smooth="yes"/>
      <point x="439" y="0" type="line"/>
    </contour>
    <contour>
      <point x="554" y="0" type="move" name="bottom"/>
    </contour>
    <contour>
      <point x="554" y="563" type="move" name="center"/>
    </contour>
    <contour>
      <point x="554" y="1527" type="move" name="top"/>
    </contour>
  </outline>
</glyph>
<glyph name="k" format="1">
  <advance width="1074"/>
  <unicode hex="006B"/>
  <outline>
    <contour>
      <point x="99" y="0" type="line"/>
      <point x="99" y="1556" type="line"/>
      <point x="439" y="1556" type="line"/>
      <point x="439.0" y="867.0" type="line" smooth="yes"/>
      <point x="439.0" y="807.0"/>
      <point x="427.75" y="687.0"/>
      <point x="424" y="627" type="qcurve"/>
      <point x="432.0" y="627.0" type="line"/>
      <point x="449.25" y="663.0"/>
      <point x="482.5" y="734.75"/>
      <point x="502" y="770" type="qcurve" smooth="yes"/>
      <point x="701" y="1127" type="line"/>
      <point x="1059" y="1127" type="line"/>
      <point x="765" y="644" type="line"/>
      <point x="1077" y="0" type="line"/>
      <point x="722" y="0" type="line"/>
      <point x="536" y="416" type="line"/>
      <point x="439" y="350" type="line"/>
      <point x="439" y="0" type="line"/>
    </contour>
    <contour>
      <point x="538" y="0" type="move" name="bottom"/>
    </contour>
    <contour>
      <point x="538" y="1127" type="move" name="top"/>
    </contour>
  </outline>
</glyph>
<glyph name="o" format="1">
  <advance width="1082"/>
  <unicode hex="006F"/>
  <outline>
    <contour>
      <point x="545.0" y="-20.0" type="qcurve" smooth="yes"/>
      <point x="391.0" y="-20.0"/>
      <point x="176.66666666666663" y="137.58333333333331"/>
      <point x="65.0" y="403.5"/>
      <point x="65.0" y="566.0" type="qcurve" smooth="yes"/>
      <point x="65.0" y="743.5"/>
      <point x="182.58333333333331" y="1004.9166666666665"/>
      <point x="396.5" y="1148.0"/>
      <point x="541.0" y="1148.0" type="qcurve" smooth="yes"/>
      <point x="686.5" y="1148.0"/>
      <point x="899.2499999999999" y="1002.8333333333333"/>
      <point x="1015.0" y="739.0"/>
      <point x="1015.0" y="561.0" type="qcurve" smooth="yes"/>
      <point x="1015.0" y="381.0"/>
      <point x="897.9166666666665" y="120.49999999999999"/>
      <point x="686.5" y="-20.0"/>
    </contour>
    <contour>
      <point x="541.0" y="265.0" type="qcurve" smooth="yes"/>
      <point x="611.6779661016949" y="265.0"/>
      <point x="643.0" y="353.0" type="qcurve" smooth="yes"/>
      <point x="656.5" y="391.25"/>
      <point x="670.0" y="500.0"/>
      <point x="670.0" y="572.0" type="qcurve" smooth="yes"/>
      <point x="670.0" y="614.0"/>
      <point x="661.5" y="733.0"/>
      <point x="645.0" y="778.0" type="qcurve" smooth="yes"/>
      <point x="615.0384615384615" y="860.0"/>
      <point x="542.0" y="860.0" type="qcurve" smooth="yes"/>
      <point x="512.75" y="860.0"/>
      <point x="463.5" y="831.75"/>
      <point x="447.0" y="798.0" type="qcurve" smooth="yes"/>
      <point x="431.25" y="765.75"/>
      <point x="412.0" y="652.0"/>
      <point x="412.0" y="568.0" type="qcurve" smooth="yes"/>
      <point x="412.0" y="484.0"/>
      <point x="430.75" y="366.25"/>
      <point x="445.0" y="334.0" type="qcurve" smooth="yes"/>
      <point x="475.1875" y="265.0"/>
    </contour>
    <contour>
      <point x="540" y="0" type="move" name="bottom"/>
    </contour>
    <contour>
      <point x="540" y="563" type="move" name="center"/>
    </contour>
    <contour>
      <point x="973" y="10" type="move" name="ogonek"/>
    </contour>
    <contour>
      <point x="540" y="1127" type="move" name="top"/>
    </contour>
    <contour>
      <point x="1062" y="1127" type="move" name="topright"/>
    </contour>
  </outline>
</glyph>
<glyph name="p" format="1">
  <advance width="1069"/>
  <unicode hex="0070"/>
  <outline>
    <contour>
      <point x="99" y="-492" type="line"/>
      <point x="99" y="1127" type="line"/>
      <point x="360" y="1127" type="line"/>
      <point x="422" y="983" type="line"/>
      <point x="435.0" y="983.0" type="line"/>
      <point x="476.25" y="1067.75"/>
      <point x="598.0" y="1148.0"/>
      <point x="673.0" y="1148.0" type="qcurve" smooth="yes"/>
      <point x="826.75" y="1148.0"/>
      <point x="1003.0" y="837.75"/>
      <point x="1003.0" y="570.0" type="qcurve" smooth="yes"/>
      <point x="1003.0" y="295.5"/>
      <point x="817.25" y="-20.0"/>
      <point x="653.0" y="-20.0" type="qcurve" smooth="yes"/>
      <point x="590.0" y="-20.0"/>
      <point x="487.25" y="39.0"/>
      <point x="437" y="117" type="qcurve"/>
      <point x="422.0" y="117.0" type="line"/>
      <point x="433.25" y="32.25"/>
      <point x="442.0" y="-51.75"/>
      <point x="442" y="-66" type="qcurve" smooth="yes"/>
      <point x="442" y="-492" type="line"/>
    </contour>
    <contour>
      <point x="547.0" y="270.0" type="qcurve" smooth="yes"/>
      <point x="594.0" y="270.0"/>
      <point x="641.1666666666667" y="359.83333333333326"/>
      <point x="657.0" y="498.99999999999994"/>
      <point x="657.0" y="573.0" type="qcurve" smooth="yes"/>
      <point x="657.0" y="644.0"/>
      <point x="643.25" y="777.1666666666665"/>
      <point x="596.5" y="863.0"/>
      <point x="547.0" y="863.0" type="qcurve" smooth="yes"/>
      <point x="501.49999999999994" y="863.0"/>
      <point x="455.08333333333337" y="787.9166666666665"/>
      <point x="439.0" y="668.5"/>
      <point x="439" y="602" type="qcurve" smooth="yes"/>
      <point x="439.0" y="566.0" type="line" smooth="yes"/>
      <point x="439.0" y="488.0"/>
      <point x="454.66666666666663" y="353.0"/>
      <point x="501.00000000000006" y="270.0"/>
    </contour>
    <contour>
      <point x="535" y="0" type="move" name="bottom"/>
    </contour>
    <contour>
      <point x="535" y="1127" type="move" name="top"/>
    </contour>
  </outline>
</glyph>
<glyph name="r" format="1">
  <advance width="746"/>
  <unicode hex="0072"/>
  <outline>
    <contour>
      <point x="99" y="0" type="line"/>
      <point x="99" y="1127" type="line"/>
      <point x="379" y="1127" type="line"/>
      <point x="418" y="959" type="line"/>
      <point x="427.0" y="959.0" type="line"/>
      <point x="471.25" y="1057.25"/>
      <point x="574.5" y="1148.0"/>
      <point x="645.0" y="1148.0" type="qcurve" smooth="yes"/>
      <point x="674.25" y="1148.0"/>
      <point x="721.75" y="1140.5"/>
      <point x="745" y="1133" type="qcurve"/>
      <point x="711.0" y="804.0" type="line"/>
      <point x="698.25" y="807.75"/>
      <point x="662.75" y="812.0"/>
      <point x="632.0" y="812.0" type="qcurve" smooth="yes"/>
      <point x="566.75" y="812.0"/>
      <point x="478.75" y="756.75"/>
      <point x="460.0" y="708.0" type="qcurve" smooth="yes"/>
      <point x="450.25" y="681.75"/>
      <point x="439.0" y="614.0"/>
      <point x="439" y="572" type="qcurve" smooth="yes"/>
      <point x="439" y="0" type="line"/>
    </contour>
    <contour>
      <point x="373" y="0" type="move" name="bottom"/>
    </contour>
    <contour>
      <point x="373" y="1127" type="move" name="top"/>
    </contour>
  </outline>
</glyph>
<glyph name="s" format="1">
  <advance width="818"/>
  <unicode hex="0073"/>
  <outline>
    <contour>
      <point x="345.0" y="-20.0" type="qcurve" smooth="yes"/>
      <point x="258.75" y="-20.0"/>
      <point x="113.5" y="13.5"/>
      <point x="55" y="48" type="qcurve"/>
      <point x="55.0" y="329.0" type="line"/>
      <point x="118.0" y="290.0"/>
      <point x="275.0" y="239.0"/>
      <point x="332.0" y="239.0" type="qcurve" smooth="yes"/>
      <point x="381.5" y="239.0"/>
      <point x="432.0" y="279.0"/>
      <point x="432.0" y="312.0" type="qcurve" smooth="yes"/>
      <point x="432.0" y="346.5"/>
      <point x="384.0" y="402.66666666666663"/>
      <point x="312.0" y="449.5"/>
      <point x="276.0" y="470.0" type="qcurve" smooth="yes"/>
      <point x="225.0" y="499.5"/>
      <point x="150.33333333333331" y="567.1666666666666"/>
      <point x="101.0" y="633.5"/>
      <point x="88.0" y="661.0" type="qcurve" smooth="yes"/>
      <point x="71.5" y="695.5"/>
      <point x="55.0" y="779.0"/>
      <point x="55.0" y="821.0" type="qcurve" smooth="yes"/>
      <point x="55.0" y="974.0"/>
      <point x="265.0" y="1148.0"/>
      <point x="448.0" y="1148.0" type="qcurve" smooth="yes"/>
      <point x="529.0" y="1148.0"/>
      <point x="679.5" y="1108.75"/>
      <point x="762" y="1063" type="qcurve"/>
      <point x="659.0" y="825.0" type="line"/>
      <point x="602.0" y="855.0"/>
      <point x="502.5" y="885.0"/>
      <point x="468.0" y="885.0" type="qcurve" smooth="yes"/>
      <point x="424.5" y="885.0"/>
      <point x="398.0" y="848.25"/>
      <point x="398.0" y="831.0" type="qcurve" smooth="yes"/>
      <point x="398.0" y="816.75"/>
      <point x="409.5" y="788.0"/>
      <point x="420.0" y="776.0" type="qcurve" smooth="yes"/>
      <point x="441.75" y="750.5"/>
      <point x="506.25" y="707.75"/>
      <point x="534.0" y="692.0" type="qcurve" smooth="yes"/>
      <point x="606.0" y="650.75"/>
      <point x="714.5" y="560.75"/>
      <point x="746.0" y="485.0" type="qcurve" smooth="yes"/>
      <point x="771.0" y="424.70588235294116"/>
      <point x="771.0" y="349.0" type="qcurve" smooth="yes"/>
      <point x="771.0" y="175.75"/>
      <point x="560.25" y="-20.0"/>
    </contour>
    <contour>
      <point x="408" y="0" type="move" name="bottom"/>
    </contour>
    <contour>
      <point x="408" y="1127" type="move" name="top"/>
    </contour>
  </outline>
</glyph>
<glyph name="t" format="1">
  <advance width="757"/>
  <unicode hex="0074"/>
  <outline>
    <contour>
      <point x="477.0" y="-20.0" type="qcurve" smooth="yes"/>
      <point x="305.25" y="-20.0"/>
      <point x="141.0" y="173.5"/>
      <point x="141" y="367" type="qcurve" smooth="yes"/>
      <point x="141" y="861" type="line"/>
      <point x="28" y="861" type="line"/>
      <point x="28" y="1007" type="line"/>
      <point x="186" y="1132" type="line"/>
      <point x="270" y="1359" type="line"/>
      <point x="485" y="1359" type="line"/>
      <point x="485" y="1127" type="line"/>
      <point x="699" y="1127" type="line"/>
      <point x="699" y="861" type="line"/>
      <point x="485" y="861" type="line"/>
      <point x="485.0" y="342.0" type="line" smooth="yes"/>
      <point x="485.0" y="309.0"/>
      <point x="528.0" y="263.0"/>
      <point x="567.0" y="263.0" type="qcurve" smooth="yes"/>
      <point x="628.0" y="263.0"/>
      <point x="706" y="299" type="qcurve"/>
      <point x="706.0" y="36.0" type="line"/>
      <point x="631.8378378378378" y="-20.0"/>
    </contour>
    <contour>
      <point x="450" y="0" type="move" name="bottom"/>
    </contour>
    <contour>
      <point x="378" y="563" type="move" name="center"/>
    </contour>
    <contour>
      <point x="378" y="1127" type="move" name="top"/>
    </contour>
    <contour>
      <point x="737" y="1127" type="move" name="topright"/>
    </contour>
  </outline>
</glyph>
<glyph name="u" format="1">
  <advance width="1034"/>
  <unicode hex="0075"/>
  <outline>
    <contour>
      <point x="406.0" y="-20.0" type="qcurve" smooth="yes"/>
      <point x="255.25" y="-20.0"/>
      <point x="86.0" y="188.75"/>
      <point x="86" y="392" type="qcurve" smooth="yes"/>
      <point x="86" y="1127" type="line"/>
      <point x="429" y="1127" type="line"/>
      <point x="429.0" y="483.0" type="line" smooth="yes"/>
      <point x="429.0" y="377.25"/>
      <point x="478.25" y="263.0"/>
      <point x="536.0" y="263.0" type="qcurve" smooth="yes"/>
      <point x="568.25" y="263.0"/>
      <point x="626.5" y="303.25"/>
      <point x="643.0" y="349.0" type="qcurve" smooth="yes"/>
      <point x="672.0" y="429.55555555555554"/>
      <point x="672" y="619" type="qcurve" smooth="yes"/>
      <point x="672" y="1127" type="line"/>
      <point x="1014" y="1127" type="line"/>
      <point x="1014" y="0" type="line"/>
      <point x="745" y="0" type="line"/>
      <point x="704" y="139" type="line"/>
      <point x="687.0" y="139.0" type="line"/>
      <point x="651.0" y="72.25"/>
      <point x="512.5" y="-20.0"/>
    </contour>
    <contour>
      <point x="517" y="0" type="move" name="bottom"/>
    </contour>
    <contour>
      <point x="1031" y="10" type="move" name="ogonek"/>
    </contour>
    <contour>
      <point x="517" y="1127" type="move" name="top"/>
    </contour>
    <contour>
      <point x="1014" y="1127" type="move" name="topright"/>
    </contour>
  </outline>
</glyph>
<glyph name="v" format="1">
  <advance width="1026"/>
  <unicode hex="0076"/>
  <outline>
    <contour>
      <point x="302" y="0" type="line"/>
      <point x="-5" y="1127" type="line"/>
      <point x="348" y="1127" type="line"/>
      <point x="483.0" y="504.0" type="line" smooth="yes"/>
      <point x="488.5" y="478.5"/>
      <point x="502.0833333333333" y="370.0"/>
      <point x="512.0" y="267.5"/>
      <point x="512" y="251" type="qcurve"/>
      <point x="514.0" y="251.0" type="line"/>
      <point x="514.0" y="267.5"/>
      <point x="523.9166666666665" y="370.0"/>
      <point x="537.5" y="478.5"/>
      <point x="543" y="504" type="qcurve" smooth="yes"/>
      <point x="678" y="1127" type="line"/>
      <point x="1031" y="1127" type="line"/>
      <point x="724" y="0" type="line"/>
    </contour>
    <contour>
      <point x="513" y="0" type="move" name="bottom"/>
    </contour>
    <contour>
      <point x="513" y="1127" type="move" name="top"/>
    </contour>
  </outline>
</glyph>
<glyph name="w" format="1">
  <advance width="1631"/>
  <unicode hex="0077"/>
  <outline>
    <contour>
      <point x="236" y="0" type="line"/>
      <point x="20" y="1127" type="line"/>
      <point x="361" y="1127" type="line"/>
      <point x="449.0" y="520.0" type="line" smooth="yes"/>
      <point x="453.875" y="485.125"/>
      <point x="460.2760416666667" y="424.9479166666667"/>
      <point x="464.4739583333333" y="362.0520833333333"/>
      <point x="467.5" y="285.375"/>
      <point x="469" y="234" type="qcurve"/>
      <point x="475.0" y="234.0" type="line"/>
      <point x="475.0" y="261.0"/>
      <point x="479.6770833333333" y="349.234375"/>
      <point x="486.3229166666667" y="442.015625"/>
      <point x="492.5" y="512.625"/>
      <point x="494" y="522" type="qcurve" smooth="yes"/>
      <point x="593" y="1127" type="line"/>
      <point x="1039" y="1127" type="line"/>
      <point x="1137.0" y="520.0" type="line" smooth="yes"/>
      <point x="1143.75" y="476.5"/>
      <point x="1157.5" y="327.75"/>
      <point x="1159" y="234" type="qcurve"/>
      <point x="1162.0" y="234.0" type="line"/>
      <point x="1168.0" y="308.5"/>
      <point x="1181.4166666666665" y="442.5"/>
      <point x="1194.5" y="552.5"/>
      <point x="1200" y="591" type="qcurve" smooth="yes"/>
      <point x="1278" y="1127" type="line"/>
      <point x="1610" y="1127" type="line"/>
      <point x="1396" y="0" type="line"/>
      <point x="950" y="0" type="line"/>
      <point x="855.0" y="609.0" type="line" smooth="yes"/>
      <point x="845.5" y="671.5"/>
      <point x="831.5833333333331" y="771.5833333333334"/>
      <point x="820.0" y="862.0"/>
      <point x="814" y="910" type="qcurve"/>
      <point x="810.0" y="910.0" type="line"/>
      <point x="801.0" y="817.5"/>
      <point x="790.5" y="717.5833333333333"/>
      <point x="782.0" y="654.0"/>
      <point x="776" y="616" type="qcurve" smooth="yes"/>
      <point x="677" y="0" type="line"/>
    </contour>
    <contour>
      <point x="816" y="0" type="move" name="bottom"/>
    </contour>
    <contour>
      <point x="816" y="1127" type="move" name="top"/>
    </contour>
  </outline>
</glyph>
<glyph name="x" format="1">
  <advance width="980"/>
  <unicode hex="0078"/>
  <outline>
    <contour>
      <point x="5" y="0" type="line"/>
      <point x="310" y="572" type="line"/>
      <point x="14" y="1127" type="line"/>
      <point x="365" y="1127" type="line"/>
      <point x="499" y="830" type="line"/>
      <point x="613" y="1127" type="line"/>
      <point x="962" y="1127" type="line"/>
      <point x="666" y="577" type="line"/>
      <point x="974" y="0" type="line"/>
      <point x="620" y="0" type="line"/>
      <point x="481" y="308" type="line"/>
      <point x="358" y="0" type="line"/>
    </contour>
    <contour>
      <point x="491" y="0" type="move" name="bottom"/>
    </contour>
    <contour>
      <point x="491" y="1127" type="move" name="top"/>
    </contour>
  </outline>
</glyph>
<glyph name="y" format="1">
  <advance width="1025"/>
  <unicode hex="0079"/>
  <outline>
    <contour>
      <point x="219.0" y="-492.0" type="qcurve" smooth="yes"/>
      <point x="131.54545454545453" y="-492.0"/>
      <point x="62" y="-475" type="qcurve"/>
      <point x="62.0" y="-194.0" type="line"/>
      <point x="84.5" y="-199.25"/>
      <point x="139.0" y="-204.0"/>
      <point x="157.0" y="-204.0" type="qcurve" smooth="yes"/>
      <point x="237.25" y="-204.0"/>
      <point x="321.25" y="-119.5"/>
      <point x="346.0" y="-46.0" type="qcurve" smooth="yes"/>
      <point x="347.5" y="-41.5"/>
      <point x="350.5" y="-32.25"/>
      <point x="352" y="-27" type="qcurve"/>
      <point x="-5" y="1127" type="line"/>
      <point x="348" y="1127" type="line"/>
      <point x="500.0" y="518.0" type="line" smooth="yes"/>
      <point x="503.5" y="504.5"/>
      <point x="514.4166666666667" y="436.99999999999994"/>
      <point x="525.0" y="347.5"/>
      <point x="528" y="301" type="qcurve"/>
      <point x="533.0" y="301.0" type="line"/>
      <point x="533.75" y="314.125"/>
      <point x="536.3385416666666" y="350.453125"/>
      <point x="539.9114583333334" y="390.296875"/>
      <point x="544.375" y="427.75"/>
      <point x="547" y="442" type="qcurve" smooth="yes"/>
      <point x="670" y="1127" type="line"/>
      <point x="1028" y="1127" type="line"/>
      <point x="711.0" y="-27.0" type="line" smooth="yes"/>
      <point x="665.5" y="-192.5"/>
      <point x="535.8333333333333" y="-397.4166666666667"/>
      <point x="349.5" y="-492.0"/>
    </contour>
    <contour>
      <point x="875" y="0" type="move" name="bottom"/>
    </contour>
    <contour>
      <point x="513" y="1127" type="move" name="top"/>
    </contour>
  </outline>
</glyph>
<glyph name="braceleft" format="1">
  <advance width="737"/>
  <unicode hex="007B"/>
  <note>
braceleft
</note>
  <outline>
    <contour>
      <point x="735" y="-324" type="line"/>
      <point x="558.0" y="-324.0"/>
      <point x="355.25" y="-280.5"/>
      <point x="311.0" y="-222.0" type="qcurve" smooth="yes"/>
      <point x="269.0" y="-166.5"/>
      <point x="269" y="-57" type="qcurve" smooth="yes"/>
      <point x="269.0" y="257.0" type="line" smooth="yes"/>
      <point x="269.0" y="287.0"/>
      <point x="240.75" y="347.0"/>
      <point x="216.0" y="368.0" type="qcurve" smooth="yes"/>
      <point x="182.25" y="396.5"/>
      <point x="65.75" y="424.0"/>
      <point x="-10" y="424" type="qcurve"/>
      <point x="-10.0" y="713.0" type="line"/>
      <point x="64.25" y="713.0"/>
      <point x="190.75" y="739.0"/>
      <point x="229.0" y="775.0" type="qcurve" smooth="yes"/>
      <point x="269.0" y="811.9230769230769"/>
      <point x="269" y="866" type="qcurve" smooth="yes"/>
      <point x="269.0" y="1196.0" type="line" smooth="yes"/>
      <point x="269.0" y="1304.75"/>
      <point x="355.5" y="1420.5"/>
      <point x="459.0" y="1443.0" type="qcurve" smooth="yes"/>
      <point x="507.75" y="1453.5"/>
      <point x="646.5" y="1462.0"/>
      <point x="735" y="1462" type="qcurve"/>
      <point x="735.0" y="1195.0" type="line"/>
      <point x="662.1152073732719" y="1191.963133640553"/>
      <point x="630.0" y="1178.0" type="qcurve" smooth="yes"/>
      <point x="600.0" y="1165.25"/>
      <point x="579.0" y="1121.75"/>
      <point x="579" y="1088" type="qcurve" smooth="yes"/>
      <point x="579.0" y="790.0" type="line" smooth="yes"/>
      <point x="579.0" y="703.75"/>
      <point x="447.75" y="591.0"/>
      <point x="333" y="576" type="qcurve"/>
      <point x="333.0" y="562.0" type="line"/>
      <point x="452.25" y="546.25"/>
      <point x="579.0" y="444.0"/>
      <point x="579" y="366" type="qcurve" smooth="yes"/>
      <point x="579.0" y="51.0" type="line" smooth="yes"/>
      <point x="579.0" y="23.25"/>
      <point x="592.5" y="-17.25"/>
      <point x="612.0" y="-30.0" type="qcurve" smooth="yes"/>
      <point x="646.6483870967742" y="-54.10322580645161"/>
      <point x="735" y="-57" type="qcurve"/>
    </contour>
  </outline>
</glyph>
<glyph name="braceright" format="1">
  <advance width="737"/>
  <unicode hex="007D"/>
  <note>
braceright
</note>
  <outline>
    <contour>
      <point x="3" y="-324" type="qcurve"/>
      <point x="3.0" y="-57.0" type="line"/>
      <point x="110.07655786350148" y="-52.773293768546"/>
      <point x="140.0" y="-20.0" type="qcurve" smooth="yes"/>
      <point x="160.0" y="1.333333333333333"/>
      <point x="160" y="51" type="qcurve" smooth="yes"/>
      <point x="160.0" y="361.0" type="line" smooth="yes"/>
      <point x="160.0" y="439.0"/>
      <point x="291.25" y="546.25"/>
      <point x="409" y="562" type="qcurve"/>
      <point x="409.0" y="576.0" type="line"/>
      <point x="280.0" y="594.75"/>
      <point x="160.0" y="709.0"/>
      <point x="160" y="790" type="qcurve" smooth="yes"/>
      <point x="160.0" y="1088.0" type="line" smooth="yes"/>
      <point x="160.0" y="1123.25"/>
      <point x="139.75" y="1167.0"/>
      <point x="109.0" y="1179.0" type="qcurve" smooth="yes"/>
      <point x="75.87046632124353" y="1191.9637305699482"/>
      <point x="3" y="1195" type="qcurve"/>
      <point x="3.0" y="1462.0" type="line"/>
      <point x="131.25" y="1462.0"/>
      <point x="306.25" y="1441.0"/>
      <point x="361.0" y="1414.0" type="qcurve" smooth="yes"/>
      <point x="421.75" y="1384.75"/>
      <point x="472.0" y="1279.25"/>
      <point x="472" y="1196" type="qcurve" smooth="yes"/>
      <point x="472.0" y="866.0" type="line" smooth="yes"/>
      <point x="472.0" y="857.75"/>
      <point x="476.25" y="813.0"/>
      <point x="489.0" y="795.0" type="qcurve" smooth="yes"/>
      <point x="522.75" y="747.75"/>
      <point x="665.5" y="713.0"/>
      <point x="748" y="713" type="qcurve"/>
      <point x="748.0" y="424.0" type="line"/>
      <point x="667.0" y="424.0"/>
      <point x="550.0" y="396.25"/>
      <point x="517.0" y="364.0" type="qcurve" smooth="yes"/>
      <point x="472.0" y="319.0"/>
      <point x="472" y="257" type="qcurve" smooth="yes"/>
      <point x="472.0" y="-57.0" type="line" smooth="yes"/>
      <point x="472.0" y="-132.0"/>
      <point x="431.5" y="-232.25"/>
      <point x="385.0" y="-263.0" type="qcurve" smooth="yes"/>
      <point x="331.75" y="-297.5"/>
      <point x="145.5" y="-324.0"/>
    </contour>
  </outline>
</glyph>
<glyph name="exclamdown" format="1">
  <advance width="599"/>
  <unicode hex="00A1"/>
  <note>
exclamdown
</note>
  <outline>
    <contour>
      <point x="91" y="-359" type="line"/>
      <point x="150" y="586" type="line"/>
      <point x="442" y="586" type="line"/>
      <point x="499" y="-359" type="line"/>
    </contour>
    <contour>
      <point x="296.0" y="756.0" type="qcurve" smooth="yes"/>
      <point x="200.75" y="756.0"/>
      <point x="96.0" y="852.25"/>
      <point x="96.0" y="943.0" type="qcurve" smooth="yes"/>
      <point x="96.0" y="1031.5"/>
      <point x="203.75" y="1132.0"/>
      <point x="296.0" y="1132.0" type="qcurve" smooth="yes"/>
      <point x="398.0" y="1132.0"/>
      <point x="502.0" y="1028.5"/>
      <point x="502.0" y="943.0" type="qcurve" smooth="yes"/>
      <point x="502.0" y="855.25"/>
      <point x="398.0" y="756.0"/>
    </contour>
  </outline>
</glyph>
<glyph name="cent" format="1">
  <advance width="1004"/>
  <unicode hex="00A2"/>
  <note>
cent
</note>
  <outline>
    <contour>
      <point x="450" y="-20" type="line"/>
      <point x="450.0" y="174.0" type="line"/>
      <point x="297.75" y="221.25"/>
      <point x="138.0" y="487.75"/>
      <point x="138.0" y="742.0" type="qcurve" smooth="yes"/>
      <point x="138.0" y="984.25"/>
      <point x="290.25" y="1273.75"/>
      <point x="450" y="1312" type="qcurve"/>
      <point x="450" y="1476" type="line"/>
      <point x="651" y="1476" type="line"/>
      <point x="651" y="1162" type="line"/>
      <point x="543" y="1335" type="line"/>
      <point x="558.0" y="1334.0" type="line" smooth="yes"/>
      <point x="724.8406125921724" y="1323.382870107771"/>
      <point x="865" y="1242" type="qcurve"/>
      <point x="769.0" y="981.0" type="line"/>
      <point x="723.25" y="1010.25"/>
      <point x="644.0" y="1039.0"/>
      <point x="611.0" y="1039.0" type="qcurve" smooth="yes"/>
      <point x="532.3793103448276" y="1039.0"/>
      <point x="506.0" y="949.0" type="qcurve" smooth="yes"/>
      <point x="494.75" y="910.75"/>
      <point x="485.0" y="794.0"/>
      <point x="485.0" y="725.0" type="qcurve" smooth="yes"/>
      <point x="485.0" y="685.25"/>
      <point x="490.0" y="578.25"/>
      <point x="499.0" y="540.0" type="qcurve" smooth="yes"/>
      <point x="522.2258064516129" y="444.0"/>
      <point x="617.0" y="444.0" type="qcurve" smooth="yes"/>
      <point x="663.5" y="444.0"/>
      <point x="784.75" y="491.25"/>
      <point x="841" y="534" type="qcurve"/>
      <point x="841.0" y="236.0" type="line"/>
      <point x="778.75" y="194.0"/>
      <point x="642.0" y="158.5"/>
      <point x="567" y="160" type="qcurve" smooth="yes"/>
      <point x="541" y="161" type="line"/>
      <point x="651" y="324" type="line"/>
      <point x="651" y="-20" type="line"/>
    </contour>
  </outline>
</glyph>
<glyph name="currency" format="1">
  <advance width="1102"/>
  <unicode hex="00A4"/>
  <note>
currency
</note>
  <outline>
    <contour>
      <point x="854" y="251" type="line"/>
      <point x="729.0" y="371.0" type="line"/>
      <point x="639.32" y="333.0"/>
      <point x="552.0" y="333.0" type="qcurve" smooth="yes"/>
      <point x="441.48" y="333.0"/>
      <point x="367" y="371" type="qcurve"/>
      <point x="246" y="253" type="line"/>
      <point x="77" y="421" type="line"/>
      <point x="201.0" y="542.0" type="line"/>
      <point x="157.0" y="624.1333333333333"/>
      <point x="157.0" y="724.0" type="qcurve" smooth="yes"/>
      <point x="157.0" y="812.6"/>
      <point x="201" y="905" type="qcurve"/>
      <point x="75" y="1027" type="line"/>
      <point x="246" y="1199" type="line"/>
      <point x="370.0" y="1076.0" type="line"/>
      <point x="454.44444444444446" y="1116.0"/>
      <point x="551.0" y="1116.0" type="qcurve" smooth="yes"/>
      <point x="643.0" y="1116.0"/>
      <point x="729" y="1073" type="qcurve"/>
      <point x="855" y="1199" type="line"/>
      <point x="1028" y="1033" type="line"/>
      <point x="902.0" y="907.0" type="line"/>
      <point x="942.0" y="821.0740740740741"/>
      <point x="942.0" y="724.0" type="qcurve" smooth="yes"/>
      <point x="942.0" y="619.0"/>
      <point x="902" y="539" type="qcurve"/>
      <point x="1023" y="419" type="line"/>
    </contour>
    <contour>
      <point x="550.0" y="573.0" type="qcurve" smooth="yes"/>
      <point x="592.5" y="573.0"/>
      <point x="661.9166666666666" y="614.1666666666667"/>
      <point x="703.0" y="682.0"/>
      <point x="703.0" y="722.0" type="qcurve" smooth="yes"/>
      <point x="703.0" y="764.5"/>
      <point x="663.1666666666665" y="833.9166666666666"/>
      <point x="594.0" y="875.0"/>
      <point x="550.0" y="875.0" type="qcurve" smooth="yes"/>
      <point x="508.50000000000006" y="875.0"/>
      <point x="440.41666666666663" y="834.75"/>
      <point x="400.0" y="765.5"/>
      <point x="400.0" y="722.0" type="qcurve" smooth="yes"/>
      <point x="400.0" y="681.0"/>
      <point x="440.41666666666663" y="613.3333333333333"/>
      <point x="508.50000000000006" y="573.0"/>
    </contour>
  </outline>
</glyph>
<glyph name="copyright" format="1">
  <advance width="1680"/>
  <unicode hex="00A9"/>
  <note>
copyright
</note>
  <outline>
    <contour>
      <point x="884.0" y="258.0" type="qcurve" smooth="yes"/>
      <point x="674.75" y="258.0"/>
      <point x="443.0" y="511.75"/>
      <point x="443.0" y="739.0" type="qcurve" smooth="yes"/>
      <point x="443.0" y="960.25"/>
      <point x="662.25" y="1202.0"/>
      <point x="861.0" y="1202.0" type="qcurve" smooth="yes"/>
      <point x="936.0" y="1202.0"/>
      <point x="1095.0" y="1163.0"/>
      <point x="1188" y="1118" type="qcurve"/>
      <point x="1103.0" y="924.0" type="line"/>
      <point x="1046.75" y="954.75"/>
      <point x="934.25" y="986.0"/>
      <point x="890.0" y="986.0" type="qcurve" smooth="yes"/>
      <point x="800.0" y="986.0"/>
      <point x="708.0" y="856.25"/>
      <point x="708.0" y="722.0" type="qcurve" smooth="yes"/>
      <point x="708.0" y="602.0"/>
      <point x="791.5" y="474.0"/>
      <point x="892.0" y="474.0" type="qcurve" smooth="yes"/>
      <point x="948.25" y="474.0"/>
      <point x="1100.0" y="511.0"/>
      <point x="1142" y="538" type="qcurve"/>
      <point x="1142.0" y="316.0" type="line"/>
      <point x="1023.025641025641" y="258.0"/>
    </contour>
    <contour>
      <point x="844.0" y="-20.0" type="qcurve" smooth="yes"/>
      <point x="704.5" y="-20.0"/>
      <point x="454.58333333333326" y="72.08333333333334"/>
      <point x="253.0" y="242.50000000000003"/>
      <point x="186.0" y="360.0" type="qcurve" smooth="yes"/>
      <point x="139.5" y="441.75"/>
      <point x="88.0" y="627.75"/>
      <point x="88.0" y="729.0" type="qcurve" smooth="yes"/>
      <point x="88.0" y="930.75"/>
      <point x="288.25" y="1280.75"/>
      <point x="463.0" y="1382.0" type="qcurve" smooth="yes"/>
      <point x="552.25" y="1433.75"/>
      <point x="741.75" y="1483.0"/>
      <point x="837.0" y="1483.0" type="qcurve" smooth="yes"/>
      <point x="1029.75" y="1483.0"/>
      <point x="1380.25" y="1294.0"/>
      <point x="1486.0" y="1117.0" type="qcurve" smooth="yes"/>
      <point x="1540.0" y="1026.25"/>
      <point x="1591.0" y="831.0"/>
      <point x="1591.0" y="732.0" type="qcurve" smooth="yes"/>
      <point x="1591.0" y="528.0"/>
      <point x="1392.25" y="182.75"/>
      <point x="1216.0" y="80.0" type="qcurve" smooth="yes"/>
      <point x="1127.5" y="28.25"/>
      <point x="940.75" y="-20.0"/>
    </contour>
    <contour>
      <point x="840.0" y="134.0" type="qcurve" smooth="yes"/>
      <point x="1004.25" y="134.0"/>
      <point x="1282.0" y="294.5"/>
      <point x="1360.0" y="431.0" type="qcurve" smooth="yes"/>
      <point x="1399.75" y="500.75"/>
      <point x="1438.0" y="653.5"/>
      <point x="1438.0" y="730.0" type="qcurve" smooth="yes"/>
      <point x="1438.0" y="895.0"/>
      <point x="1276.0" y="1170.5"/>
      <point x="1138.0" y="1250.0" type="qcurve" smooth="yes"/>
      <point x="1067.5" y="1290.5"/>
      <point x="917.75" y="1329.0"/>
      <point x="842.0" y="1329.0" type="qcurve" smooth="yes"/>
      <point x="683.0" y="1329.0"/>
      <point x="405.5" y="1172.75"/>
      <point x="323.0" y="1031.0" type="qcurve" smooth="yes"/>
      <point x="281.75" y="960.5"/>
      <point x="242.0" y="810.5"/>
      <point x="242.0" y="734.0" type="qcurve" smooth="yes"/>
      <point x="242.0" y="574.25"/>
      <point x="401.75" y="291.5"/>
      <point x="542.0" y="212.0" type="qcurve" smooth="yes"/>
      <point x="606.5" y="175.25"/>
      <point x="757.5" y="134.0"/>
    </contour>
  </outline>
</glyph>
<glyph name="ordfeminine" format="1">
  <advance width="726"/>
  <unicode hex="00AA"/>
  <note>
ordfeminine
</note>
  <outline>
    <contour>
      <point x="262.0" y="738.0" type="qcurve" smooth="yes"/>
      <point x="174.25" y="738.0"/>
      <point x="57.0" y="844.5"/>
      <point x="57.0" y="966.0" type="qcurve" smooth="yes"/>
      <point x="57.0" y="1083.0"/>
      <point x="192.5" y="1198.0"/>
      <point x="356" y="1204" type="qcurve" smooth="yes"/>
      <point x="434" y="1207" type="line"/>
      <point x="434.0" y="1187.0" type="line"/>
      <point x="434.0" y="1240.25"/>
      <point x="381.5" y="1298.0"/>
      <point x="332.0" y="1298.0" type="qcurve" smooth="yes"/>
      <point x="296.0" y="1298.0"/>
      <point x="208.5" y="1266.0"/>
      <point x="156" y="1233" type="qcurve"/>
      <point x="87.0" y="1387.0" type="line"/>
      <point x="161.25" y="1432.75"/>
      <point x="308.75" y="1479.0"/>
      <point x="377.0" y="1479.0" type="qcurve" smooth="yes"/>
      <point x="506.0" y="1479.0"/>
      <point x="639.0" y="1325.75"/>
      <point x="639" y="1193" type="qcurve" smooth="yes"/>
      <point x="639" y="750" type="line"/>
      <point x="496" y="750" type="line"/>
      <point x="464" y="863" type="line"/>
      <point x="466.0" y="863.0" type="line"/>
      <point x="433.75" y="803.0"/>
      <point x="334.0" y="738.0"/>
    </contour>
    <contour>
      <point x="321.0" y="912.0" type="qcurve" smooth="yes"/>
      <point x="369.0" y="912.0"/>
      <point x="434.0" y="982.75"/>
      <point x="434" y="1045" type="qcurve" smooth="yes"/>
      <point x="434" y="1073" type="line"/>
      <point x="357.0" y="1066.0" type="line" smooth="yes"/>
      <point x="311.25" y="1061.5"/>
      <point x="266.0" y="1014.75"/>
      <point x="266.0" y="972.0" type="qcurve" smooth="yes"/>
      <point x="266.0" y="941.25"/>
      <point x="291.75" y="912.0"/>
    </contour>
  </outline>
</glyph>
<glyph name="logicalnot" format="1">
  <advance width="960"/>
  <unicode hex="00AC"/>
  <note>
logicalnot
</note>
  <outline>
    <contour>
      <point x="598" y="250" type="line"/>
      <point x="598" y="590" type="line"/>
      <point x="126" y="590" type="line"/>
      <point x="126" y="852" type="line"/>
      <point x="841" y="852" type="line"/>
      <point x="841" y="250" type="line"/>
    </contour>
  </outline>
</glyph>
<glyph name="registered" format="1">
  <advance width="1680"/>
  <unicode hex="00AE"/>
  <note>
registered
</note>
  <outline>
    <contour>
      <point x="844.0" y="-20.0" type="qcurve" smooth="yes"/>
      <point x="704.5" y="-20.0"/>
      <point x="454.58333333333326" y="72.08333333333334"/>
      <point x="253.0" y="242.50000000000003"/>
      <point x="186.0" y="360.0" type="qcurve" smooth="yes"/>
      <point x="139.5" y="441.75"/>
      <point x="88.0" y="627.75"/>
      <point x="88.0" y="729.0" type="qcurve" smooth="yes"/>
      <point x="88.0" y="930.75"/>
      <point x="288.25" y="1280.75"/>
      <point x="463.0" y="1382.0" type="qcurve" smooth="yes"/>
      <point x="552.25" y="1433.75"/>
      <point x="741.75" y="1483.0"/>
      <point x="837.0" y="1483.0" type="qcurve" smooth="yes"/>
      <point x="1029.75" y="1483.0"/>
      <point x="1380.25" y="1294.0"/>
      <point x="1486.0" y="1117.0" type="qcurve" smooth="yes"/>
      <point x="1540.0" y="1026.25"/>
      <point x="1591.0" y="831.0"/>
      <point x="1591.0" y="732.0" type="qcurve" smooth="yes"/>
      <point x="1591.0" y="528.0"/>
      <point x="1392.25" y="182.75"/>
      <point x="1216.0" y="80.0" type="qcurve" smooth="yes"/>
      <point x="1127.5" y="28.25"/>
      <point x="940.75" y="-20.0"/>
    </contour>
    <contour>
      <point x="840.0" y="134.0" type="qcurve" smooth="yes"/>
      <point x="1004.25" y="134.0"/>
      <point x="1282.0" y="294.5"/>
      <point x="1360.0" y="431.0" type="qcurve" smooth="yes"/>
      <point x="1399.75" y="500.75"/>
      <point x="1438.0" y="653.5"/>
      <point x="1438.0" y="730.0" type="qcurve" smooth="yes"/>
      <point x="1438.0" y="895.0"/>
      <point x="1276.0" y="1170.5"/>
      <point x="1138.0" y="1250.0" type="qcurve" smooth="yes"/>
      <point x="1067.5" y="1290.5"/>
      <point x="917.75" y="1329.0"/>
      <point x="842.0" y="1329.0" type="qcurve" smooth="yes"/>
      <point x="683.0" y="1329.0"/>
      <point x="405.5" y="1172.75"/>
      <point x="323.0" y="1031.0" type="qcurve" smooth="yes"/>
      <point x="281.75" y="960.5"/>
      <point x="242.0" y="810.5"/>
      <point x="242.0" y="734.0" type="qcurve" smooth="yes"/>
      <point x="242.0" y="574.25"/>
      <point x="401.75" y="291.5"/>
      <point x="542.0" y="212.0" type="qcurve" smooth="yes"/>
      <point x="606.5" y="175.25"/>
      <point x="757.5" y="134.0"/>
    </contour>
    <contour>
      <point x="515" y="266" type="line"/>
      <point x="515" y="1192" type="line"/>
      <point x="793.0" y="1192.0" type="line" smooth="yes"/>
      <point x="985.0" y="1192.0"/>
      <point x="1158.0" y="1054.0"/>
      <point x="1158.0" y="910.0" type="qcurve" smooth="yes"/>
      <point x="1158.0" y="815.5"/>
      <point x="1085.75" y="704.75"/>
      <point x="1010" y="671" type="qcurve"/>
      <point x="1265" y="266" type="line"/>
      <point x="974" y="266" type="line"/>
      <point x="786" y="601" type="line"/>
      <point x="780" y="601" type="line"/>
      <point x="780" y="266" type="line"/>
    </contour>
    <contour>
      <point x="780" y="795" type="line"/>
      <point x="787.0" y="795.0" type="line" smooth="yes"/>
      <point x="848.5" y="795.0"/>
      <point x="893.0" y="839.0"/>
      <point x="893.0" y="896.0" type="qcurve" smooth="yes"/>
      <point x="893.0" y="960.5"/>
      <point x="842.75" y="997.0"/>
      <point x="785" y="997" type="qcurve" smooth="yes"/>
      <point x="780" y="997" type="line"/>
    </contour>
  </outline>
</glyph>
<glyph name="degree" format="1">
  <advance width="811"/>
  <unicode hex="00B0"/>
  <note>
degree
</note>
  <outline>
    <contour>
      <point x="406.0" y="771.0" type="qcurve" smooth="yes"/>
      <point x="306.5" y="771.0"/>
      <point x="144.58333333333334" y="867.5833333333333"/>
      <point x="49.0" y="1028.5"/>
      <point x="49.0" y="1125.0" type="qcurve" smooth="yes"/>
      <point x="49.0" y="1219.5"/>
      <point x="145.0" y="1382.75"/>
      <point x="307.0" y="1483.0"/>
      <point x="406.0" y="1483.0" type="qcurve" smooth="yes"/>
      <point x="502.0" y="1483.0"/>
      <point x="665.5" y="1383.9999999999998"/>
      <point x="765.0" y="1221.0"/>
      <point x="765.0" y="1125.0" type="qcurve" smooth="yes"/>
      <point x="765.0" y="1028.5"/>
      <point x="668.0" y="867.5833333333333"/>
      <point x="505.0" y="771.0"/>
    </contour>
    <contour>
      <point x="406.0" y="987.0" type="qcurve" smooth="yes"/>
      <point x="463.0" y="987.0"/>
      <point x="549.0" y="1069.5"/>
      <point x="549.0" y="1125.0" type="qcurve" smooth="yes"/>
      <point x="549.0" y="1182.75"/>
      <point x="463.0" y="1266.0"/>
      <point x="406.0" y="1266.0" type="qcurve" smooth="yes"/>
      <point x="349.75" y="1266.0"/>
      <point x="262.0" y="1182.0"/>
      <point x="262.0" y="1125.0" type="qcurve" smooth="yes"/>
      <point x="262.0" y="1068.75"/>
      <point x="349.75" y="987.0"/>
    </contour>
  </outline>
</glyph>
<glyph name="threesuperior" format="1">
  <advance width="720"/>
  <unicode hex="00B3"/>
  <note>
threesuperior
</note>
  <outline>
    <contour>
      <point x="331.0" y="569.0" type="qcurve" smooth="yes"/>
      <point x="156.35" y="569.0"/>
      <point x="68" y="631" type="qcurve"/>
      <point x="68.0" y="842.0" type="line"/>
      <point x="176.9818181818182" y="761.0"/>
      <point x="311.0" y="761.0" type="qcurve" smooth="yes"/>
      <point x="367.25" y="761.0"/>
      <point x="425.0" y="805.25"/>
      <point x="425.0" y="857.0" type="qcurve" smooth="yes"/>
      <point x="425.0" y="899.0"/>
      <point x="360.75" y="938.0"/>
      <point x="294" y="938" type="qcurve" smooth="yes"/>
      <point x="181" y="938" type="line"/>
      <point x="181" y="1118" type="line"/>
      <point x="273.0" y="1118.0" type="line" smooth="yes"/>
      <point x="340.5" y="1118.0"/>
      <point x="408.0" y="1154.5"/>
      <point x="408.0" y="1210.0" type="qcurve" smooth="yes"/>
      <point x="408.0" y="1243.0"/>
      <point x="373.75" y="1285.0"/>
      <point x="337.0" y="1285.0" type="qcurve" smooth="yes"/>
      <point x="292.0" y="1285.0"/>
      <point x="215.25" y="1246.0"/>
      <point x="162" y="1204" type="qcurve"/>
      <point x="62.0" y="1365.0" type="line"/>
      <point x="141.5" y="1430.25"/>
      <point x="283.5" y="1478.0"/>
      <point x="363.0" y="1478.0" type="qcurve" smooth="yes"/>
      <point x="474.0" y="1478.0"/>
      <point x="626.0" y="1352.25"/>
      <point x="626.0" y="1248.0" type="qcurve" smooth="yes"/>
      <point x="626.0" y="1173.0"/>
      <point x="552.0" y="1076.25"/>
      <point x="474" y="1050" type="qcurve"/>
      <point x="474.0" y="1037.0" type="line"/>
      <point x="566.25" y="1017.5"/>
      <point x="652.0" y="901.25"/>
      <point x="652.0" y="836.0" type="qcurve" smooth="yes"/>
      <point x="652.0" y="710.75"/>
      <point x="493.0" y="569.0"/>
    </contour>
  </outline>
</glyph>
<glyph name="micro" format="1">
  <advance width="1108"/>
  <unicode hex="00B5"/>
  <note>
mu
</note>
  <outline>
    <contour>
      <point x="83" y="-492" type="line"/>
      <point x="83" y="1127" type="line"/>
      <point x="427" y="1127" type="line"/>
      <point x="427.0" y="441.0" type="line" smooth="yes"/>
      <point x="427.0" y="341.25"/>
      <point x="478.25" y="263.0"/>
      <point x="530.0" y="263.0" type="qcurve" smooth="yes"/>
      <point x="620.5714285714286" y="263.0"/>
      <point x="648.0" y="359.0" type="qcurve" smooth="yes"/>
      <point x="658.5" y="396.5"/>
      <point x="669.0" y="532.75"/>
      <point x="669" y="619" type="qcurve" smooth="yes"/>
      <point x="669" y="1127" type="line"/>
      <point x="1013" y="1127" type="line"/>
      <point x="1013" y="0" type="line"/>
      <point x="743" y="0" type="line"/>
      <point x="701" y="139" type="line"/>
      <point x="682.0" y="139.0" type="line"/>
      <point x="649.75" y="51.25"/>
      <point x="556.75" y="-20.0"/>
      <point x="493.0" y="-20.0" type="qcurve" smooth="yes"/>
      <point x="475.75" y="-20.0"/>
      <point x="438.5" y="-14.75"/>
      <point x="416" y="-8" type="qcurve"/>
      <point x="418.0" y="-8.0" type="line"/>
      <point x="422.5" y="-76.25"/>
      <point x="427.0" y="-229.5"/>
      <point x="427" y="-318" type="qcurve" smooth="yes"/>
      <point x="427" y="-492" type="line"/>
    </contour>
  </outline>
</glyph>
<glyph name="paragraph" format="1">
  <advance width="1132"/>
  <unicode hex="00B6"/>
  <note>
paragraph
</note>
  <outline>
    <contour>
      <point x="498" y="-260" type="line"/>
      <point x="498.0" y="559.0" type="line"/>
      <point x="447.0" y="541.0"/>
      <point x="377.0" y="541.0" type="qcurve" smooth="yes"/>
      <point x="246.00000000000003" y="541.0"/>
      <point x="92.33333333333331" y="668.1666666666667"/>
      <point x="26.0" y="894.0"/>
      <point x="26.0" y="1042.0" type="qcurve" smooth="yes"/>
      <point x="26.0" y="1300.0"/>
      <point x="201.75" y="1556.0"/>
      <point x="393" y="1556" type="qcurve" smooth="yes"/>
      <point x="1025" y="1556" type="line"/>
      <point x="1025" y="-260" type="line"/>
      <point x="847" y="-260" type="line"/>
      <point x="847" y="1323" type="line"/>
      <point x="677" y="1323" type="line"/>
      <point x="677" y="-260" type="line"/>
    </contour>
  </outline>
</glyph>
<glyph name="periodcentered" format="1">
  <advance width="609"/>
  <unicode hex="00B7"/>
  <note>
periodcentered
</note>
  <outline>
    <contour>
      <point x="304.0" y="535.0" type="qcurve" smooth="yes"/>
      <point x="205.0" y="535.0"/>
      <point x="101.0" y="636.25"/>
      <point x="101.0" y="724.0" type="qcurve" smooth="yes"/>
      <point x="101.0" y="812.5"/>
      <point x="204.25" y="912.0"/>
      <point x="304.0" y="912.0" type="qcurve" smooth="yes"/>
      <point x="403.75" y="912.0"/>
      <point x="508.0" y="813.25"/>
      <point x="508.0" y="724.0" type="qcurve" smooth="yes"/>
      <point x="508.0" y="637.0"/>
      <point x="403.0" y="535.0"/>
    </contour>
  </outline>
</glyph>
<glyph name="onesuperior" format="1">
  <advance width="720"/>
  <unicode hex="00B9"/>
  <note>
onesuperior
</note>
  <outline>
    <contour>
      <point x="299" y="586" type="line"/>
      <point x="299.0" y="981.0" type="line" smooth="yes"/>
      <point x="299.0" y="1019.0"/>
      <point x="302.25" y="1108.5"/>
      <point x="306.5" y="1186.0"/>
      <point x="308.0" y="1206.0" type="qcurve"/>
      <point x="296.0" y="1194.0"/>
      <point x="274.25" y="1172.5"/>
      <point x="263.0" y="1162.0" type="qcurve" smooth="yes"/>
      <point x="245.0" y="1144.0"/>
      <point x="201.25" y="1102.0"/>
      <point x="169" y="1072" type="qcurve"/>
      <point x="58" y="1211" type="line"/>
      <point x="347" y="1462" type="line"/>
      <point x="544" y="1462" type="line"/>
      <point x="544" y="586" type="line"/>
    </contour>
  </outline>
</glyph>
<glyph name="ordmasculine" format="1">
  <advance width="715"/>
  <unicode hex="00BA"/>
  <note>
ordmasculine
</note>
  <outline>
    <contour>
      <point x="658.0" y="1110.0" type="qcurve" smooth="yes"/>
      <point x="658.0" y="936.0"/>
      <point x="493.25" y="738.0"/>
      <point x="356.0" y="738.0" type="qcurve" smooth="yes"/>
      <point x="221.75" y="738.0"/>
      <point x="57.0" y="945.0"/>
      <point x="57.0" y="1110.0" type="qcurve" smooth="yes"/>
      <point x="57.0" y="1284.75"/>
      <point x="217.75" y="1479.0"/>
      <point x="358.0" y="1479.0" type="qcurve" smooth="yes"/>
      <point x="493.0" y="1479.0"/>
      <point x="658.0" y="1273.5"/>
    </contour>
    <contour>
      <point x="265.0" y="1110.0" type="qcurve" smooth="yes"/>
      <point x="265.0" y="1018.5"/>
      <point x="311.0" y="925.0"/>
      <point x="359.0" y="925.0" type="qcurve" smooth="yes"/>
      <point x="405.5" y="925.0"/>
      <point x="450.0" y="1018.5"/>
      <point x="450.0" y="1110.0" type="qcurve" smooth="yes"/>
      <point x="450.0" y="1201.5"/>
      <point x="407.0" y="1291.0"/>
      <point x="359.0" y="1291.0" type="qcurve" smooth="yes"/>
      <point x="307.25" y="1291.0"/>
      <point x="265.0" y="1202.25"/>
    </contour>
  </outline>
</glyph>
<glyph name="Eth" format="1">
  <advance width="1206"/>
  <unicode hex="00D0"/>
  <note>
Eth
</note>
  <outline>
    <contour>
      <point x="115" y="0" type="line"/>
      <point x="115" y="563" type="line"/>
      <point x="-27" y="563" type="line"/>
      <point x="-27" y="864" type="line"/>
      <point x="115" y="864" type="line"/>
      <point x="115" y="1462" type="line"/>
      <point x="561.0" y="1462.0" type="line" smooth="yes"/>
      <point x="739.0" y="1462.0"/>
      <point x="995.8333333333333" y="1288.9166666666665"/>
      <point x="1134.0" y="967.5"/>
      <point x="1134.0" y="745.0" type="qcurve" smooth="yes"/>
      <point x="1134.0" y="387.25"/>
      <point x="812.25" y="0.0"/>
      <point x="516" y="0" type="qcurve" smooth="yes"/>
    </contour>
    <contour>
      <point x="462" y="301" type="line"/>
      <point x="521.0" y="301.0" type="line" smooth="yes"/>
      <point x="653.0" y="301.0"/>
      <point x="779.0" y="515.5"/>
      <point x="779.0" y="736.0" type="qcurve" smooth="yes"/>
      <point x="779.0" y="954.25"/>
      <point x="665.0" y="1165.0"/>
      <point x="548" y="1165" type="qcurve" smooth="yes"/>
      <point x="462" y="1165" type="line"/>
      <point x="462" y="864" type="line"/>
      <point x="627" y="864" type="line"/>
      <point x="627" y="563" type="line"/>
      <point x="462" y="563" type="line"/>
    </contour>
  </outline>
</glyph>
<glyph name="Oslash" format="1">
  <advance width="1285"/>
  <unicode hex="00D8"/>
  <note>
Oslash
</note>
  <outline>
    <contour>
      <point x="351" y="-106" type="line"/>
      <point x="149" y="-11" type="line"/>
      <point x="235.0" y="154.0" type="line"/>
      <point x="73.0" y="345.72477064220186"/>
      <point x="73.0" y="735.0" type="qcurve" smooth="yes"/>
      <point x="73.0" y="972.5"/>
      <point x="206.91666666666669" y="1308.4166666666667"/>
      <point x="462.50000000000006" y="1486.0"/>
      <point x="645.0" y="1486.0" type="qcurve" smooth="yes"/>
      <point x="769.0370370370371" y="1486.0"/>
      <point x="889" y="1445" type="qcurve"/>
      <point x="951" y="1567" type="line"/>
      <point x="1153" y="1475" type="line"/>
      <point x="1062.0" y="1296.0" type="line"/>
      <point x="1212.0" y="1102.060606060606"/>
      <point x="1212.0" y="733.0" type="qcurve" smooth="yes"/>
      <point x="1212.0" y="490.99999999999994"/>
      <point x="1079.5833333333335" y="154.83333333333331"/>
      <point x="825.5" y="-20.0"/>
      <point x="643.0" y="-20.0" type="qcurve" smooth="yes"/>
      <point x="514.304347826087" y="-20.0"/>
      <point x="411" y="13" type="qcurve"/>
    </contour>
    <contour>
      <point x="431" y="542" type="qcurve"/>
      <point x="753.0" y="1172.0" type="line"/>
      <point x="733.5" y="1178.0"/>
      <point x="678.0" y="1183.0"/>
      <point x="645.0" y="1183.0" type="qcurve" smooth="yes"/>
      <point x="537.75" y="1183.0"/>
      <point x="425.0" y="955.0"/>
      <point x="425.0" y="733.0" type="qcurve" smooth="yes"/>
      <point x="425.0" y="629.0"/>
    </contour>
    <contour>
      <point x="643.0" y="284.0" type="qcurve" smooth="yes"/>
      <point x="751.75" y="284.0"/>
      <point x="859.0" y="508.75"/>
      <point x="859.0" y="733.0" type="qcurve" smooth="yes"/>
      <point x="859.0" y="843.0"/>
      <point x="862" y="894" type="qcurve"/>
      <point x="549.0" y="290.0" type="line"/>
      <point x="585.0" y="284.0"/>
    </contour>
    <contour>
      <point x="643" y="0" type="move" name="bottom"/>
    </contour>
    <contour>
      <point x="643" y="1462" type="move" name="top"/>
    </contour>
  </outline>
</glyph>
<glyph name="Thorn" format="1">
  <advance width="1042"/>
  <unicode hex="00DE"/>
  <note>
Thorn
</note>
  <outline>
    <contour>
      <point x="115" y="0" type="line"/>
      <point x="115" y="1462" type="line"/>
      <point x="462" y="1462" type="line"/>
      <point x="462" y="1245" type="line"/>
      <point x="558.0" y="1245.0" type="line" smooth="yes"/>
      <point x="771.75" y="1245.0"/>
      <point x="992.0" y="1007.5"/>
      <point x="992.0" y="775.0" type="qcurve" smooth="yes"/>
      <point x="992.0" y="538.0"/>
      <point x="744.75" y="279.0"/>
      <point x="513" y="279" type="qcurve" smooth="yes"/>
      <point x="462" y="279" type="line"/>
      <point x="462" y="0" type="line"/>
    </contour>
    <contour>
      <point x="462" y="573" type="line"/>
      <point x="495.0" y="573.0" type="line" smooth="yes"/>
      <point x="564.0" y="573.0"/>
      <point x="642.0" y="666.75"/>
      <point x="642.0" y="765.0" type="qcurve" smooth="yes"/>
      <point x="642.0" y="854.25"/>
      <point x="573.5" y="952.0"/>
      <point x="512" y="952" type="qcurve" smooth="yes"/>
      <point x="462" y="952" type="line"/>
    </contour>
    <contour>
      <point x="521" y="0" type="move" name="bottom"/>
    </contour>
    <contour>
      <point x="521" y="1462" type="move" name="top"/>
    </contour>
  </outline>
</glyph>
<glyph name="germandbls" format="1">
  <advance width="1230"/>
  <unicode hex="00DF"/>
  <note>
germandbls
</note>
  <outline>
    <contour>
      <point x="764.0" y="-20.0" type="qcurve" smooth="yes"/>
      <point x="683.75" y="-20.0"/>
      <point x="560.5" y="6.75"/>
      <point x="508" y="33" type="qcurve"/>
      <point x="508.0" y="311.0" type="line"/>
      <point x="568.75" y="271.25"/>
      <point x="680.0" y="239.0"/>
      <point x="734.0" y="239.0" type="qcurve" smooth="yes"/>
      <point x="791.75" y="239.0"/>
      <point x="853.0" y="279.0"/>
      <point x="853.0" y="321.0" type="qcurve" smooth="yes"/>
      <point x="853.0" y="346.0"/>
      <point x="834.5" y="398.5"/>
      <point x="772.0" y="463.0"/>
      <point x="706.0" y="506.0" type="qcurve" smooth="yes"/>
      <point x="636.0" y="551.5"/>
      <point x="558.6666666666666" y="634.5833333333333"/>
      <point x="528.0" y="722.0"/>
      <point x="528.0" y="774.0" type="qcurve" smooth="yes"/>
      <point x="528.0" y="826.5"/>
      <point x="576.5" y="945.25"/>
      <point x="638.0" y="997.0" type="qcurve" smooth="yes"/>
      <point x="707.75" y="1055.5"/>
      <point x="748.0" y="1133.5"/>
      <point x="748.0" y="1162.0" type="qcurve" smooth="yes"/>
      <point x="748.0" y="1219.0"/>
      <point x="669.5" y="1290.0"/>
      <point x="593.0" y="1290.0" type="qcurve" smooth="yes"/>
      <point x="515.75" y="1290.0"/>
      <point x="439.0" y="1201.5"/>
      <point x="439" y="1113" type="qcurve" smooth="yes"/>
      <point x="439" y="0" type="line"/>
      <point x="99" y="0" type="line"/>
      <point x="99.0" y="1128.0" type="line" smooth="yes"/>
      <point x="99.0" y="1342.5"/>
      <point x="358.0" y="1567.0"/>
      <point x="592.0" y="1567.0" type="qcurve" smooth="yes"/>
      <point x="748.0" y="1567.0"/>
      <point x="973.0" y="1485.5833333333333"/>
      <point x="1094.0" y="1332.5"/>
      <point x="1094.0" y="1225.0" type="qcurve" smooth="yes"/>
      <point x="1094.0" y="1135.0"/>
      <point x="1059.5" y="1022.75"/>
      <point x="1025.0" y="983.0" type="qcurve" smooth="yes"/>
      <point x="1010.0" y="965.0"/>
      <point x="972.75" y="933.75"/>
      <point x="951.0" y="918.0" type="qcurve" smooth="yes"/>
      <point x="893.25" y="876.75"/>
      <point x="857.0" y="832.0"/>
      <point x="857.0" y="808.0" type="qcurve" smooth="yes"/>
      <point x="857.0" y="787.75"/>
      <point x="890.5" y="756.5"/>
      <point x="937.0" y="731.0" type="qcurve" smooth="yes"/>
      <point x="952.0" y="722.75"/>
      <point x="989.75" y="703.0"/>
      <point x="1013.0" y="691.0" type="qcurve" smooth="yes"/>
      <point x="1085.0" y="654.25"/>
      <point x="1161.0" y="564.75"/>
      <point x="1179.0" y="513.0" type="qcurve" smooth="yes"/>
      <point x="1191.75" y="475.5"/>
      <point x="1199.0" y="394.0"/>
      <point x="1199.0" y="349.0" type="qcurve" smooth="yes"/>
      <point x="1199.0" y="180.25"/>
      <point x="974.0" y="-20.0"/>
    </contour>
    <contour>
      <point x="615" y="0" type="move" name="bottom"/>
    </contour>
    <contour>
      <point x="615" y="1127" type="move" name="top"/>
    </contour>
  </outline>
</glyph>
<glyph name="ae" format="1">
  <advance width="1526"/>
  <unicode hex="00E6"/>
  <note>
ae
</note>
  <outline>
    <contour>
      <point x="394.0" y="-20.0" type="qcurve" smooth="yes"/>
      <point x="45.0" y="-20.0"/>
      <point x="45.0" y="341.0" type="qcurve" smooth="yes"/>
      <point x="45.0" y="524.0"/>
      <point x="236.25" y="696.0"/>
      <point x="444" y="705" type="qcurve" smooth="yes"/>
      <point x="604" y="712" type="line"/>
      <point x="604.0" y="784.0" type="line" smooth="yes"/>
      <point x="604.0" y="885.0"/>
      <point x="483.0" y="885.0" type="qcurve" smooth="yes"/>
      <point x="379.1578947368421" y="885.0"/>
      <point x="236" y="800" type="qcurve"/>
      <point x="121.0" y="1029.0" type="line"/>
      <point x="222.25" y="1093.5"/>
      <point x="430.75" y="1151.0"/>
      <point x="535.0" y="1151.0" type="qcurve" smooth="yes"/>
      <point x="691.6153846153846" y="1151.0"/>
      <point x="807.0" y="1091.0" type="qcurve"/>
      <point x="914.8378378378378" y="1148.0"/>
      <point x="1043.0" y="1148.0" type="qcurve" smooth="yes"/>
      <point x="1247.75" y="1148.0"/>
      <point x="1476.0" y="874.0"/>
      <point x="1476" y="631" type="qcurve" smooth="yes"/>
      <point x="1476" y="466" type="line"/>
      <point x="933.0" y="466.0" type="line"/>
      <point x="936.0" y="364.0"/>
      <point x="1037.25" y="251.0"/>
      <point x="1146.0" y="251.0" type="qcurve" smooth="yes"/>
      <point x="1285.7857142857142" y="251.0"/>
      <point x="1424" y="337" type="qcurve"/>
      <point x="1424.0" y="62.0" type="line"/>
      <point x="1352.0" y="20.75"/>
      <point x="1178.75" y="-20.0"/>
      <point x="1085.0" y="-20.0" type="qcurve" smooth="yes"/>
      <point x="960.5" y="-20.0"/>
      <point x="783.5" y="54.25"/>
      <point x="719.0" y="133.0" type="qcurve"/>
      <point x="656.75" y="54.25"/>
      <point x="503.5" y="-20.0"/>
    </contour>
    <contour>
      <point x="468.0" y="243.0" type="qcurve" smooth="yes"/>
      <point x="528.0" y="243.0"/>
      <point x="604.0" y="343.5"/>
      <point x="604" y="420" type="qcurve" smooth="yes"/>
      <point x="604" y="506" type="line"/>
      <point x="536.0" y="503.0" type="line" smooth="yes"/>
      <point x="461.0" y="499.25"/>
      <point x="395.0" y="414.25"/>
      <point x="395.0" y="343.0" type="qcurve" smooth="yes"/>
      <point x="395.0" y="243.0"/>
    </contour>
    <contour>
      <point x="940" y="705" type="qcurve"/>
      <point x="1148.0" y="705.0" type="line"/>
      <point x="1143.5" y="806.25"/>
      <point x="1089.25" y="892.0"/>
      <point x="1045.0" y="892.0" type="qcurve" smooth="yes"/>
      <point x="950.1472868217054" y="892.0"/>
    </contour>
    <contour>
      <point x="762" y="0" type="move" name="bottom"/>
    </contour>
    <contour>
      <point x="762" y="1127" type="move" name="top"/>
    </contour>
  </outline>
</glyph>
<glyph name="eth" format="1">
  <advance width="1079"/>
  <unicode hex="00F0"/>
  <note>
eth
</note>
  <outline>
    <contour>
      <point x="535.0" y="-20.0" type="qcurve" smooth="yes"/>
      <point x="316.0" y="-20.0"/>
      <point x="65.0" y="250.5"/>
      <point x="65.0" y="489.0" type="qcurve" smooth="yes"/>
      <point x="65.0" y="732.0"/>
      <point x="284.0" y="1007.0"/>
      <point x="482.0" y="1007.0" type="qcurve" smooth="yes"/>
      <point x="586.8" y="1007.0"/>
      <point x="678" y="893" type="qcurve"/>
      <point x="691.0" y="897.0" type="line"/>
      <point x="645.6229669788073" y="1021.4208969935929"/>
      <point x="533" y="1131" type="qcurve"/>
      <point x="293" y="968" type="line"/>
      <point x="173" y="1146" type="line"/>
      <point x="380.0" y="1282.0" type="line"/>
      <point x="356.75" y="1296.25"/>
      <point x="271.75" y="1344.25"/>
      <point x="208" y="1378" type="qcurve"/>
      <point x="322.0" y="1577.0" type="line"/>
      <point x="499.7472463768116" y="1488.8608695652174"/>
      <point x="596" y="1419" type="qcurve"/>
      <point x="812" y="1573" type="line"/>
      <point x="928" y="1395" type="line"/>
      <point x="760.0" y="1281.0" type="line"/>
      <point x="892.0" y="1149.75"/>
      <point x="1013.0" y="809.75"/>
      <point x="1013.0" y="593.0" type="qcurve" smooth="yes"/>
      <point x="1013.0" y="407.0"/>
      <point x="898.5833333333333" y="131.49999999999997"/>
      <point x="684.5" y="-20.0"/>
    </contour>
    <contour>
      <point x="541.0" y="268.0" type="qcurve" smooth="yes"/>
      <point x="610.75" y="268.0"/>
      <point x="666.0" y="409.75"/>
      <point x="666.0" y="550.0" type="qcurve" smooth="yes"/>
      <point x="666.0" y="644.5"/>
      <point x="600.0" y="745.0"/>
      <point x="543.0" y="745.0" type="qcurve" smooth="yes"/>
      <point x="468.75" y="745.0"/>
      <point x="413.0" y="620.5"/>
      <point x="413.0" y="493.0" type="qcurve" smooth="yes"/>
      <point x="413.0" y="268.0"/>
    </contour>
  </outline>
</glyph>
<glyph name="dcroat" format="1">
  <advance width="1069"/>
  <unicode hex="0111"/>
  <note>
dcroat
</note>
  <outline>
    <contour>
      <point x="407.0" y="-20.0" type="qcurve" smooth="yes"/>
      <point x="253.25" y="-20.0"/>
      <point x="65.0" y="270.25"/>
      <point x="65.0" y="529.0" type="qcurve" smooth="yes"/>
      <point x="65.0" y="778.0"/>
      <point x="245.5" y="1076.0"/>
      <point x="406.0" y="1076.0" type="qcurve" smooth="yes"/>
      <point x="478.75" y="1076.0"/>
      <point x="582.5" y="1002.0"/>
      <point x="629" y="912" type="qcurve"/>
      <point x="648.0" y="912.0" type="line"/>
      <point x="641.25" y="987.75"/>
      <point x="633.0" y="1131.0"/>
      <point x="633" y="1167" type="qcurve" smooth="yes"/>
      <point x="633" y="1172" type="line"/>
      <point x="403" y="1172" type="line"/>
      <point x="403" y="1405" type="line"/>
      <point x="633" y="1405" type="line"/>
      <point x="633" y="1556" type="line"/>
      <point x="972" y="1556" type="line"/>
      <point x="972" y="1405" type="line"/>
      <point x="1098" y="1405" type="line"/>
      <point x="1098" y="1172" type="line"/>
      <point x="972" y="1172" type="line"/>
      <point x="972" y="0" type="line"/>
      <point x="723" y="0" type="line"/>
      <point x="667" y="141" type="line"/>
      <point x="654.0" y="141.0" type="line"/>
      <point x="609.75" y="58.5"/>
      <point x="484.25" y="-20.0"/>
    </contour>
    <contour>
      <point x="528.0" y="266.0" type="qcurve" smooth="yes"/>
      <point x="594.0" y="266.0"/>
      <point x="629.0" y="401.25"/>
      <point x="629" y="525" type="qcurve" smooth="yes"/>
      <point x="629.0" y="553.0" type="line" smooth="yes"/>
      <point x="629.0" y="616.5"/>
      <point x="619.1666666666666" y="723.4166666666666"/>
      <point x="576.0" y="788.0"/>
      <point x="526.0" y="788.0" type="qcurve" smooth="yes"/>
      <point x="469.75" y="788.0"/>
      <point x="412.0" y="654.25"/>
      <point x="412.0" y="523.0" type="qcurve" smooth="yes"/>
      <point x="412.0" y="454.0"/>
      <point x="428.3333333333333" y="337.0"/>
      <point x="478.0" y="266.0"/>
    </contour>
  </outline>
</glyph>
<glyph name="hbar" format="1">
  <advance width="1110"/>
  <unicode hex="0127"/>
  <note>
hbar
</note>
  <outline>
    <contour>
      <point x="99" y="0" type="line"/>
      <point x="99" y="1176" type="line"/>
      <point x="-28" y="1176" type="line"/>
      <point x="-28" y="1407" type="line"/>
      <point x="99" y="1407" type="line"/>
      <point x="99" y="1556" type="line"/>
      <point x="439" y="1556" type="line"/>
      <point x="439" y="1407" type="line"/>
      <point x="678" y="1407" type="line"/>
      <point x="678" y="1176" type="line"/>
      <point x="439" y="1176" type="line"/>
      <point x="439.0" y="992.0" type="line" smooth="yes"/>
      <point x="439.0" y="974.75"/>
      <point x="429.75" y="934.5"/>
      <point x="423" y="912" type="qcurve"/>
      <point x="439.0" y="912.0" type="line"/>
      <point x="483.25" y="1001.25"/>
      <point x="612.75" y="1076.0"/>
      <point x="699.0" y="1076.0" type="qcurve" smooth="yes"/>
      <point x="850.5" y="1076.0"/>
      <point x="1025.0" y="870.25"/>
      <point x="1025" y="673" type="qcurve" smooth="yes"/>
      <point x="1025" y="0" type="line"/>
      <point x="682" y="0" type="line"/>
      <point x="682.0" y="575.0" type="line" smooth="yes"/>
      <point x="682.0" y="677.0"/>
      <point x="628.75" y="790.0"/>
      <point x="571.0" y="790.0" type="qcurve" smooth="yes"/>
      <point x="508.2340425531915" y="790.0"/>
      <point x="475.0" y="719.0" type="qcurve" smooth="yes"/>
      <point x="454.75" y="676.25"/>
      <point x="439.0" y="552.0"/>
      <point x="439" y="468" type="qcurve" smooth="yes"/>
      <point x="439" y="0" type="line"/>
    </contour>
  </outline>
</glyph>
<glyph name="Ldot" format="1">
  <advance width="871"/>
  <unicode hex="013F"/>
  <note>
Ldot
</note>
  <outline>
    <contour>
      <point x="825" y="0" type="line"/>
      <point x="115" y="0" type="line"/>
      <point x="115" y="1462" type="line"/>
      <point x="462" y="1462" type="line"/>
      <point x="462" y="300" type="line"/>
      <point x="825" y="300" type="line"/>
    </contour>
    <contour>
      <point x="524.0" y="765.0" type="qcurve" smooth="yes"/>
      <point x="524.0" y="928.0"/>
      <point x="714.0" y="928.0" type="qcurve" smooth="yes"/>
      <point x="908.0" y="928.0"/>
      <point x="908.0" y="765.0" type="qcurve" smooth="yes"/>
      <point x="908.0" y="681.0"/>
      <point x="807.0" y="600.0"/>
      <point x="714.0" y="600.0" type="qcurve" smooth="yes"/>
      <point x="524.0" y="600.0"/>
    </contour>
  </outline>
</glyph>
<glyph name="ldot" format="1">
  <advance width="938"/>
  <unicode hex="0140"/>
  <note>
ldot
</note>
  <outline>
    <contour>
      <point x="439" y="1556" type="line"/>
      <point x="439" y="0" type="line"/>
      <point x="99" y="0" type="line"/>
      <point x="99" y="1556" type="line"/>
    </contour>
    <contour>
      <point x="540.0" y="702.0" type="qcurve" smooth="yes"/>
      <point x="540.0" y="865.0"/>
      <point x="732.0" y="865.0" type="qcurve" smooth="yes"/>
      <point x="926.0" y="865.0"/>
      <point x="926.0" y="702.0" type="qcurve" smooth="yes"/>
      <point x="926.0" y="617.25"/>
      <point x="825.0" y="537.0"/>
      <point x="732.0" y="537.0" type="qcurve" smooth="yes"/>
      <point x="540.0" y="537.0"/>
    </contour>
  </outline>
</glyph>
<glyph name="OE" format="1">
  <advance width="1537"/>
  <unicode hex="0152"/>
  <note>
OE
</note>
  <outline>
    <contour>
      <point x="632.0" y="-26.0" type="qcurve" smooth="yes"/>
      <point x="448.5" y="-26.0"/>
      <point x="199.58333333333331" y="152.75"/>
      <point x="73.0" y="494.5"/>
      <point x="73.0" y="739.0" type="qcurve" smooth="yes"/>
      <point x="73.0" y="978.5"/>
      <point x="198.66666666666666" y="1315.583333333333"/>
      <point x="447.0" y="1493.0"/>
      <point x="631.0" y="1493.0" type="qcurve" smooth="yes"/>
      <point x="660.5" y="1493.0"/>
      <point x="714.4166666666666" y="1486.2499999999998"/>
      <point x="768.0" y="1472.5"/>
      <point x="797" y="1462" type="qcurve"/>
      <point x="1456" y="1462" type="line"/>
      <point x="1456" y="1166" type="line"/>
      <point x="1095" y="1166" type="line"/>
      <point x="1095" y="907" type="line"/>
      <point x="1426" y="907" type="line"/>
      <point x="1426" y="610" type="line"/>
      <point x="1095" y="610" type="line"/>
      <point x="1095" y="300" type="line"/>
      <point x="1456" y="300" type="line"/>
      <point x="1456" y="0" type="line"/>
      <point x="782.0" y="0.0" type="line"/>
      <point x="754.5" y="-9.0"/>
      <point x="705.7499999999999" y="-20.5"/>
      <point x="658.0" y="-26.0"/>
    </contour>
    <contour>
      <point x="620.0" y="278.0" type="qcurve" smooth="yes"/>
      <point x="653.0" y="278.0"/>
      <point x="720.25" y="289.25"/>
      <point x="748" y="299" type="qcurve"/>
      <point x="748.0" y="1170.0" type="line"/>
      <point x="715.0" y="1179.75"/>
      <point x="650.0" y="1189.0"/>
      <point x="623.0" y="1189.0" type="qcurve" smooth="yes"/>
      <point x="527.0" y="1189.0"/>
      <point x="425.0" y="949.0"/>
      <point x="425.0" y="733.0" type="qcurve" smooth="yes"/>
      <point x="425.0" y="517.75"/>
      <point x="527.0" y="278.0"/>
    </contour>
    <contour>
      <point x="769" y="0" type="move" name="bottom"/>
    </contour>
    <contour>
      <point x="769" y="1462" type="move" name="top"/>
    </contour>
  </outline>
</glyph>
<glyph name="oe" format="1">
  <advance width="1604"/>
  <unicode hex="0153"/>
  <note>
oe
</note>
  <outline>
    <contour>
      <point x="544.0" y="-20.0" type="qcurve" smooth="yes"/>
      <point x="390.0" y="-20.0"/>
      <point x="176.16666666666666" y="138.0"/>
      <point x="65.0" y="406.0"/>
      <point x="65.0" y="571.0" type="qcurve" smooth="yes"/>
      <point x="65.0" y="745.5"/>
      <point x="183.08333333333331" y="1004.9166666666666"/>
      <point x="397.5" y="1148.0"/>
      <point x="542.0" y="1148.0" type="qcurve" smooth="yes"/>
      <point x="621.5" y="1148.0"/>
      <point x="768.25" y="1098.75"/>
      <point x="838.0" y="1044.0" type="qcurve"/>
      <point x="957.2941176470588" y="1148.0"/>
      <point x="1126.0" y="1148.0" type="qcurve" smooth="yes"/>
      <point x="1326.25" y="1148.0"/>
      <point x="1554.0" y="875.5"/>
      <point x="1554" y="631" type="qcurve" smooth="yes"/>
      <point x="1554" y="466" type="line"/>
      <point x="1015.0" y="466.0" type="line"/>
      <point x="1019.5" y="359.5"/>
      <point x="1121.25" y="251.0"/>
      <point x="1221.0" y="251.0" type="qcurve" smooth="yes"/>
      <point x="1262.5" y="251.0"/>
      <point x="1357.1666666666665" y="269.8333333333333"/>
      <point x="1456.5" y="308.0"/>
      <point x="1505" y="337" type="qcurve"/>
      <point x="1505.0" y="62.0" type="line"/>
      <point x="1437.5" y="23.0"/>
      <point x="1261.25" y="-20.0"/>
      <point x="1166.0" y="-20.0" type="qcurve" smooth="yes"/>
      <point x="1070.0" y="-20.0"/>
      <point x="912.5" y="28.25"/>
      <point x="845.0" y="83.0" type="qcurve"/>
      <point x="779.75" y="31.25"/>
      <point x="625.75" y="-20.0"/>
    </contour>
    <contour>
      <point x="541.0" y="268.0" type="qcurve" smooth="yes"/>
      <point x="597.3513513513514" y="268.0"/>
      <point x="628.0" y="322.0" type="qcurve" smooth="yes"/>
      <point x="653.5" y="367.75"/>
      <point x="671.0" y="506.25"/>
      <point x="671.0" y="570.0" type="qcurve" smooth="yes"/>
      <point x="671.0" y="639.0"/>
      <point x="658.0" y="751.5"/>
      <point x="640.0" y="789.0" type="qcurve" smooth="yes"/>
      <point x="606.6734693877551" y="860.0"/>
      <point x="541.0" y="860.0" type="qcurve" smooth="yes"/>
      <point x="466.47169811320754" y="860.0"/>
      <point x="436.0" y="775.0" type="qcurve" smooth="yes"/>
      <point x="424.0" y="741.25"/>
      <point x="412.0" y="632.75"/>
      <point x="412.0" y="563.0" type="qcurve" smooth="yes"/>
      <point x="412.0" y="485.0"/>
      <point x="427.75" y="371.75"/>
      <point x="445.0" y="335.0" type="qcurve" smooth="yes"/>
      <point x="460.75" y="302.0"/>
      <point x="509.5" y="268.0"/>
    </contour>
    <contour>
      <point x="1020" y="705" type="qcurve"/>
      <point x="1226.0" y="705.0" type="line"/>
      <point x="1223.0" y="810.0"/>
      <point x="1166.5" y="892.0"/>
      <point x="1126.0" y="892.0" type="qcurve" smooth="yes"/>
      <point x="1080.25" y="892.0"/>
      <point x="1023.75" y="796.5"/>
    </contour>
    <contour>
      <point x="803" y="0" type="move" name="bottom"/>
    </contour>
    <contour>
      <point x="803" y="1127" type="move" name="top"/>
    </contour>
  </outline>
</glyph>
<glyph name="tbar" format="1">
  <advance width="757"/>
  <unicode hex="0167"/>
  <note>
tbar
</note>
  <outline>
    <contour>
      <point x="477.0" y="-20.0" type="qcurve" smooth="yes"/>
      <point x="305.25" y="-20.0"/>
      <point x="141.0" y="173.5"/>
      <point x="141" y="367" type="qcurve" smooth="yes"/>
      <point x="141" y="473" type="line"/>
      <point x="28" y="473" type="line"/>
      <point x="28" y="705" type="line"/>
      <point x="141" y="705" type="line"/>
      <point x="141" y="861" type="line"/>
      <point x="28" y="861" type="line"/>
      <point x="28" y="1007" type="line"/>
      <point x="186" y="1132" type="line"/>
      <point x="270" y="1359" type="line"/>
      <point x="485" y="1359" type="line"/>
      <point x="485" y="1127" type="line"/>
      <point x="699" y="1127" type="line"/>
      <point x="699" y="861" type="line"/>
      <point x="485" y="861" type="line"/>
      <point x="485" y="705" type="line"/>
      <point x="671" y="705" type="line"/>
      <point x="671" y="473" type="line"/>
      <point x="485" y="473" type="line"/>
      <point x="485.0" y="342.0" type="line" smooth="yes"/>
      <point x="485.0" y="309.0"/>
      <point x="528.0" y="263.0"/>
      <point x="567.0" y="263.0" type="qcurve" smooth="yes"/>
      <point x="628.0" y="263.0"/>
      <point x="706" y="299" type="qcurve"/>
      <point x="706.0" y="36.0" type="line"/>
      <point x="631.8378378378378" y="-20.0"/>
    </contour>
  </outline>
</glyph>
<glyph name="longs" format="1">
  <advance width="638"/>
  <unicode hex="017F"/>
  <note>
longs
</note>
  <outline>
    <contour>
      <point x="99" y="0" type="line"/>
      <point x="99.0" y="1210.0" type="line" smooth="yes"/>
      <point x="99.0" y="1325.0"/>
      <point x="179.49999999999997" y="1484.3333333333333"/>
      <point x="344.0" y="1567.0"/>
      <point x="470.0" y="1567.0" type="qcurve" smooth="yes"/>
      <point x="592.4571428571428" y="1567.0"/>
      <point x="702" y="1513" type="qcurve"/>
      <point x="616.0" y="1261.0" type="line"/>
      <point x="597.0" y="1271.5"/>
      <point x="561.1666666666667" y="1288.75"/>
      <point x="520.0" y="1299.0"/>
      <point x="493.0" y="1299.0" type="qcurve" smooth="yes"/>
      <point x="484.0" y="1299.0"/>
      <point x="462.25" y="1290.25"/>
      <point x="457.0" y="1282.0" type="qcurve" smooth="yes"/>
      <point x="448.75" y="1269.25"/>
      <point x="439.0" y="1238.75"/>
      <point x="439" y="1208" type="qcurve" smooth="yes"/>
      <point x="439" y="0" type="line"/>
    </contour>
    <contour>
      <point x="319" y="0" type="move" name="bottom"/>
    </contour>
    <contour>
      <point x="319" y="1127" type="move" name="top"/>
    </contour>
  </outline>
</glyph>
<glyph name="Ohorn" format="1">
  <advance width="1421"/>
  <unicode hex="01A0"/>
  <note>
Ohorn
</note>
  <outline>
    <contour>
      <point x="643.0" y="-20.0" type="qcurve" smooth="yes"/>
      <point x="460.0" y="-20.0"/>
      <point x="205.49999999999997" y="152.91666666666663"/>
      <point x="73.0" y="489.50000000000006"/>
      <point x="73.0" y="735.0" type="qcurve" smooth="yes"/>
      <point x="73.0" y="972.5"/>
      <point x="206.91666666666669" y="1308.4166666666667"/>
      <point x="462.50000000000006" y="1486.0"/>
      <point x="645.0" y="1486.0" type="qcurve" smooth="yes"/>
      <point x="903.5714285714286" y="1486.0"/>
      <point x="1057.0" y="1307.0" type="qcurve"/>
      <point x="1073.5" y="1346.75"/>
      <point x="1096.75" y="1475.75"/>
      <point x="1099" y="1556" type="qcurve"/>
      <point x="1464" y="1556" type="line"/>
      <point x="1477.0" y="1537.0" type="line"/>
      <point x="1430.5" y="1360.0"/>
      <point x="1279.75" y="1149.5"/>
      <point x="1162.0" y="1094.0" type="qcurve"/>
      <point x="1212.0" y="926.3529411764706"/>
      <point x="1212.0" y="733.0" type="qcurve" smooth="yes"/>
      <point x="1212.0" y="490.99999999999994"/>
      <point x="1079.5833333333335" y="154.83333333333331"/>
      <point x="825.5" y="-20.0"/>
    </contour>
    <contour>
      <point x="643.0" y="284.0" type="qcurve" smooth="yes"/>
      <point x="751.75" y="284.0"/>
      <point x="859.0" y="508.75"/>
      <point x="859.0" y="733.0" type="qcurve" smooth="yes"/>
      <point x="859.0" y="959.5"/>
      <point x="753.0" y="1183.0"/>
      <point x="645.0" y="1183.0" type="qcurve" smooth="yes"/>
      <point x="537.75" y="1183.0"/>
      <point x="425.0" y="955.0"/>
      <point x="425.0" y="733.0" type="qcurve" smooth="yes"/>
      <point x="425.0" y="515.5"/>
      <point x="535.75" y="284.0"/>
    </contour>
    <contour>
      <point x="638" y="0" type="move" name="bottom"/>
    </contour>
    <contour>
      <point x="645" y="1462" type="move" name="top"/>
    </contour>
  </outline>
</glyph>
<glyph name="ohorn" format="1">
  <advance width="1235"/>
  <unicode hex="01A1"/>
  <note>
ohorn
</note>
  <outline>
    <contour>
      <point x="544.0" y="-20.0" type="qcurve" smooth="yes"/>
      <point x="389.0" y="-20.0"/>
      <point x="175.33333333333331" y="139.5"/>
      <point x="65.0" y="407.0"/>
      <point x="65.0" y="569.0" type="qcurve" smooth="yes"/>
      <point x="65.0" y="745.0"/>
      <point x="182.16666666666666" y="1005.1666666666665"/>
      <point x="396.0" y="1148.0"/>
      <point x="541.0" y="1148.0" type="qcurve" smooth="yes"/>
      <point x="628.75" y="1148.0"/>
      <point x="777.75" y="1094.0"/>
      <point x="840.0" y="1043.0" type="qcurve"/>
      <point x="928.4796625489605" y="1115.6797228080748"/>
      <point x="933" y="1298" type="qcurve"/>
      <point x="1297" y="1298" type="line"/>
      <point x="1311.0" y="1279.0" type="line"/>
      <point x="1261.5" y="1090.0"/>
      <point x="1099.0" y="900.0"/>
      <point x="964.0" y="849.0" type="qcurve"/>
      <point x="1015.0" y="727.5"/>
      <point x="1015.0" y="563.0" type="qcurve" smooth="yes"/>
      <point x="1015.0" y="381.5"/>
      <point x="898.6666666666666" y="120.25"/>
      <point x="687.0" y="-20.0"/>
    </contour>
    <contour>
      <point x="539.0" y="268.0" type="qcurve" smooth="yes"/>
      <point x="606.9259259259259" y="268.0"/>
      <point x="641.0" y="348.0" type="qcurve" smooth="yes"/>
      <point x="656.75" y="384.0"/>
      <point x="670.0" y="493.0"/>
      <point x="670.0" y="565.0" type="qcurve" smooth="yes"/>
      <point x="670.0" y="717.5555555555555"/>
      <point x="642.0" y="786.0" type="qcurve" smooth="yes"/>
      <point x="612.0851063829787" y="860.0"/>
      <point x="541.0" y="860.0" type="qcurve" smooth="yes"/>
      <point x="475.0625" y="860.0"/>
      <point x="444.0" y="789.0" type="qcurve" smooth="yes"/>
      <point x="426.75" y="749.25"/>
      <point x="412.0" y="637.75"/>
      <point x="412.0" y="568.0" type="qcurve" smooth="yes"/>
      <point x="412.0" y="481.75"/>
      <point x="431.25" y="360.25"/>
      <point x="447.0" y="328.0" type="qcurve" smooth="yes"/>
      <point x="462.75" y="295.75"/>
      <point x="511.25" y="268.0"/>
    </contour>
    <contour>
      <point x="539" y="0" type="move" name="bottom"/>
    </contour>
    <contour>
      <point x="543" y="1127" type="move" name="top"/>
    </contour>
  </outline>
</glyph>
<glyph name="Uhorn" format="1">
  <advance width="1513"/>
  <unicode hex="01AF"/>
  <note>
Uhorn
</note>
  <outline>
    <contour>
      <point x="594.0" y="-20.0" type="qcurve" smooth="yes"/>
      <point x="358.5" y="-20.0"/>
      <point x="113.0" y="260.75"/>
      <point x="113" y="539" type="qcurve" smooth="yes"/>
      <point x="113" y="1462" type="line"/>
      <point x="456" y="1462" type="line"/>
      <point x="456.0" y="516.0" type="line" smooth="yes"/>
      <point x="456.0" y="399.0"/>
      <point x="528.5" y="284.0"/>
      <point x="602.0" y="284.0" type="qcurve" smooth="yes"/>
      <point x="682.25" y="284.0"/>
      <point x="754.0" y="407.0"/>
      <point x="754" y="509" type="qcurve" smooth="yes"/>
      <point x="754" y="1462" type="line"/>
      <point x="1098" y="1462" type="line"/>
      <point x="1098.0" y="1274.0" type="line"/>
      <point x="1167.75" y="1295.75"/>
      <point x="1244.0" y="1443.5"/>
      <point x="1244" y="1556" type="qcurve"/>
      <point x="1610" y="1556" type="line"/>
      <point x="1625.0" y="1537.0" type="line"/>
      <point x="1594.25" y="1410.25"/>
      <point x="1509.0" y="1242.0"/>
      <point x="1443.0" y="1188.0" type="qcurve" smooth="yes"/>
      <point x="1382.25" y="1138.5"/>
      <point x="1213.5" y="1081.5"/>
      <point x="1098" y="1065" type="qcurve"/>
      <point x="1098.0" y="534.0" type="line" smooth="yes"/>
      <point x="1098.0" y="356.0"/>
      <point x="980.5833333333333" y="108.66666666666666"/>
      <point x="755.5" y="-20.0"/>
    </contour>
    <contour>
      <point x="593" y="0" type="move" name="bottom"/>
    </contour>
    <contour>
      <point x="607" y="1462" type="move" name="top"/>
    </contour>
  </outline>
</glyph>
<glyph name="uhorn" format="1">
  <advance width="1466"/>
  <unicode hex="01B0"/>
  <note>
uhorn
</note>
  <outline>
    <contour>
      <point x="406.0" y="-20.0" type="qcurve" smooth="yes"/>
      <point x="255.25" y="-20.0"/>
      <point x="86.0" y="188.75"/>
      <point x="86" y="392" type="qcurve" smooth="yes"/>
      <point x="86" y="1127" type="line"/>
      <point x="429" y="1127" type="line"/>
      <point x="429.0" y="483.0" type="line" smooth="yes"/>
      <point x="429.0" y="377.25"/>
      <point x="478.5" y="263.0"/>
      <point x="537.0" y="263.0" type="qcurve" smooth="yes"/>
      <point x="597.0" y="263.0"/>
      <point x="654.5" y="364.74999999999994"/>
      <point x="672.0" y="527.5"/>
      <point x="672" y="619" type="qcurve" smooth="yes"/>
      <point x="672" y="1127" type="line"/>
      <point x="1014" y="1127" type="line"/>
      <point x="1014.0" y="1015.0" type="line"/>
      <point x="1077.179487179487" y="1037.5641025641025"/>
      <point x="1114.0" y="1102.0" type="qcurve" smooth="yes"/>
      <point x="1135.75" y="1139.5"/>
      <point x="1159.0" y="1238.75"/>
      <point x="1159" y="1298" type="qcurve"/>
      <point x="1526" y="1298" type="line"/>
      <point x="1540.0" y="1279.0" type="line"/>
      <point x="1501.0" y="1110.25"/>
      <point x="1360.0" y="901.5"/>
      <point x="1243.0" y="855.0" type="qcurve" smooth="yes"/>
      <point x="1188.25" y="833.25"/>
      <point x="1065.0" y="811.0"/>
      <point x="1014" y="805" type="qcurve"/>
      <point x="1014" y="0" type="line"/>
      <point x="745" y="0" type="line"/>
      <point x="704" y="139" type="line"/>
      <point x="687.0" y="139.0" type="line"/>
      <point x="651.0" y="72.25"/>
      <point x="512.5" y="-20.0"/>
    </contour>
    <contour>
      <point x="615" y="0" type="move" name="bottom"/>
    </contour>
    <contour>
      <point x="548" y="1127" type="move" name="top"/>
    </contour>
  </outline>
</glyph>
<glyph name="jdotless" format="1">
  <advance width="549"/>
  <unicode hex="0237"/>
  <note>
uni0237
</note>
  <outline>
    <contour>
      <point x="88.0" y="-492.0" type="qcurve" smooth="yes"/>
      <point x="-16.299999999999997" y="-492.0"/>
      <point x="-83" y="-463" type="qcurve"/>
      <point x="-83.0" y="-186.0" type="line"/>
      <point x="-56.0" y="-195.0"/>
      <point x="-8.75" y="-206.0"/>
      <point x="13.0" y="-206.0" type="qcurve" smooth="yes"/>
      <point x="57.16" y="-206.0"/>
      <point x="83.0" y="-168.0" type="qcurve" smooth="yes"/>
      <point x="111.0" y="-126.73684210526316"/>
      <point x="111" y="-42" type="qcurve" smooth="yes"/>
      <point x="111" y="1127" type="line"/>
      <point x="450" y="1127" type="line"/>
      <point x="450.0" y="-99.0" type="line" smooth="yes"/>
      <point x="450.0" y="-283.5"/>
      <point x="257.5" y="-492.0"/>
    </contour>
    <contour>
      <point x="274" y="0" type="move" name="bottom"/>
    </contour>
    <contour>
      <point x="274" y="1127" type="move" name="top"/>
    </contour>
  </outline>
</glyph>
<glyph name="firsttonechinese" format="1">
  <advance width="1074"/>
  <unicode hex="02C9"/>
  <note>
uni02C9
</note>
  <outline>
    <contour>
      <point x="202" y="1287" type="line"/>
      <point x="202" y="1536" type="line"/>
      <point x="874" y="1536" type="line"/>
      <point x="874" y="1287" type="line"/>
    </contour>
  </outline>
</glyph>
<glyph name="lowringmod" format="1">
  <advance width="658"/>
  <unicode hex="02F3"/>
  <note>
uni02F3
</note>
  <outline>
    <contour>
      <point x="323.0" y="-629.0" type="qcurve" smooth="yes"/>
      <point x="205.25" y="-629.0"/>
      <point x="62.0" y="-491.75"/>
      <point x="62.0" y="-374.0" type="qcurve" smooth="yes"/>
      <point x="62.0" y="-257.75"/>
      <point x="205.25" y="-121.0"/>
      <point x="323.0" y="-121.0" type="qcurve" smooth="yes"/>
      <point x="441.5" y="-121.0"/>
      <point x="594.0" y="-262.25"/>
      <point x="594.0" y="-374.0" type="qcurve" smooth="yes"/>
      <point x="594.0" y="-488.75"/>
      <point x="442.25" y="-629.0"/>
    </contour>
    <contour>
      <point x="323.0" y="-466.0" type="qcurve" smooth="yes"/>
      <point x="361.25" y="-466.0"/>
      <point x="414.0" y="-419.75"/>
      <point x="414.0" y="-374.0" type="qcurve" smooth="yes"/>
      <point x="414.0" y="-331.25"/>
      <point x="358.25" y="-282.0"/>
      <point x="323.0" y="-282.0" type="qcurve" smooth="yes"/>
      <point x="283.25" y="-282.0"/>
      <point x="234.0" y="-331.25"/>
      <point x="234.0" y="-374.0" type="qcurve" smooth="yes"/>
      <point x="234.0" y="-466.0"/>
    </contour>
    <contour>
      <point x="323" y="-1" type="move" name="_bottom"/>
    </contour>
  </outline>
</glyph>
<glyph name="gravecomb" format="1">
  <unicode hex="0300"/>
  <note>
gravecomb
</note>
  <outline>
    <contour>
      <point x="36" y="1241" type="line"/>
      <point x="-2.625" y="1272.125"/>
      <point x="-102.02083333333333" y="1360.0208333333333"/>
      <point x="-198.97916666666666" y="1451.4791666666667"/>
      <point x="-271.375" y="1526.625"/>
      <point x="-283" y="1545" type="qcurve"/>
      <point x="-283" y="1569" type="line"/>
      <point x="120.0" y="1569.0" type="line"/>
      <point x="137.5" y="1531.0"/>
      <point x="198.58333333333331" y="1412.9166666666665"/>
      <point x="262.0" y="1300.5"/>
      <point x="283" y="1271" type="qcurve"/>
      <point x="283" y="1241" type="line"/>
    </contour>
    <contour>
      <point x="1" y="1127" type="move" name="_top"/>
    </contour>
    <contour>
      <point x="1" y="1569" type="move" name="top"/>
    </contour>
  </outline>
</glyph>
<glyph name="acutecomb" format="1">
  <unicode hex="0301"/>
  <note>
acutecomb
</note>
  <outline>
    <contour>
      <point x="-282" y="1241" type="line"/>
      <point x="-282.0" y="1271.0" type="line"/>
      <point x="-265.5" y="1291.625"/>
      <point x="-217.82291666666666" y="1372.7864583333333"/>
      <point x="-168.17708333333334" y="1466.4635416666667"/>
      <point x="-128.0" y="1548.0"/>
      <point x="-119" y="1569" type="qcurve"/>
      <point x="282" y="1569" type="line"/>
      <point x="282.0" y="1545.0" type="line"/>
      <point x="273.375" y="1529.625"/>
      <point x="209.09895833333334" y="1460.6666666666667"/>
      <point x="116.65104166666667" y="1371.8333333333333"/>
      <point x="13.0" y="1279.625"/>
      <point x="-35" y="1241" type="qcurve"/>
    </contour>
    <contour>
      <point x="-69" y="1158" type="move" name="_top"/>
    </contour>
    <contour>
      <point x="0" y="1569" type="move" name="top"/>
    </contour>
  </outline>
</glyph>
<glyph name="circumflexcomb" format="1">
  <advance width="1510"/>
  <unicode hex="0302"/>
  <note>
circumflex
</note>
  <outline>
    <contour>
      <point x="347" y="1241" type="line"/>
      <point x="347.0" y="1272.0" type="line"/>
      <point x="549.5022421524664" y="1524.372197309417"/>
      <point x="576" y="1569" type="qcurve"/>
      <point x="932.0" y="1569.0" type="line"/>
      <point x="954.5" y="1532.25"/>
      <point x="1062.5" y="1393.5"/>
      <point x="1160" y="1272" type="qcurve"/>
      <point x="1160" y="1241" type="line"/>
      <point x="940.0" y="1241.0" type="line"/>
      <point x="880.75" y="1286.0"/>
      <point x="846.5" y="1312.5"/>
      <point x="830.0" y="1326.0" type="qcurve" smooth="yes"/>
      <point x="820.25" y="1333.5"/>
      <point x="790.0" y="1363.5"/>
      <point x="751.0" y="1404.0" type="qcurve"/>
      <point x="732.25" y="1382.25"/>
      <point x="692.5" y="1343.0"/>
      <point x="673.0" y="1325.0" type="qcurve" smooth="yes"/>
      <point x="649.0" y="1303.25"/>
      <point x="591.25" y="1258.25"/>
      <point x="568" y="1241" type="qcurve"/>
    </contour>
    <contour>
      <point x="755" y="1127" type="move" name="_top"/>
    </contour>
    <contour>
      <point x="755" y="1569" type="move" name="top"/>
    </contour>
  </outline>
</glyph>
<glyph name="brevecomb" format="1">
  <advance width="1530"/>
  <unicode hex="0306"/>
  <note>
breve
</note>
  <outline>
    <contour>
      <point x="762.0" y="1238.0" type="qcurve" smooth="yes"/>
      <point x="594.75" y="1238.0"/>
      <point x="419.25" y="1433.25"/>
      <point x="414" y="1605" type="qcurve"/>
      <point x="614.0" y="1605.0" type="line"/>
      <point x="620.75" y="1534.5"/>
      <point x="671.75" y="1490.0"/>
      <point x="764.0" y="1490.0" type="qcurve" smooth="yes"/>
      <point x="847.25" y="1490.0"/>
      <point x="904.25" y="1539.75"/>
      <point x="914" y="1605" type="qcurve"/>
      <point x="1113.0" y="1605.0" type="line"/>
      <point x="1098.75" y="1428.0"/>
      <point x="915.75" y="1238.0"/>
    </contour>
    <contour>
      <point x="764" y="1127" type="move" name="_top"/>
    </contour>
    <contour>
      <point x="764" y="1605" type="move" name="top"/>
    </contour>
  </outline>
</glyph>
<glyph name="dotaccentcomb" format="1">
  <advance width="815"/>
  <unicode hex="0307"/>
  <note>
dotaccent
</note>
  <outline>
    <contour>
      <point x="407.0" y="1249.0" type="qcurve" smooth="yes"/>
      <point x="215.0" y="1249.0"/>
      <point x="215.0" y="1414.0" type="qcurve" smooth="yes"/>
      <point x="215.0" y="1577.0"/>
      <point x="407.0" y="1577.0" type="qcurve" smooth="yes"/>
      <point x="600.0" y="1577.0"/>
      <point x="600.0" y="1414.0" type="qcurve" smooth="yes"/>
      <point x="600.0" y="1329.25"/>
      <point x="499.25" y="1249.0"/>
    </contour>
    <contour>
      <point x="408" y="1127" type="move" name="_top"/>
    </contour>
    <contour>
      <point x="408" y="1577" type="move" name="top"/>
    </contour>
  </outline>
</glyph>
<glyph name="dieresiscomb" format="1">
  <advance width="1529"/>
  <unicode hex="0308"/>
  <note>
dieresis
</note>
  <outline>
    <contour>
      <point x="985.0" y="1263.0" type="qcurve" smooth="yes"/>
      <point x="906.25" y="1263.0"/>
      <point x="821.0" y="1343.75"/>
      <point x="821.0" y="1409.0" type="qcurve" smooth="yes"/>
      <point x="821.0" y="1478.0"/>
      <point x="905.5" y="1559.0"/>
      <point x="985.0" y="1559.0" type="qcurve" smooth="yes"/>
      <point x="1060.0" y="1559.0"/>
      <point x="1147.0" y="1478.75"/>
      <point x="1147.0" y="1409.0" type="qcurve" smooth="yes"/>
      <point x="1147.0" y="1342.25"/>
      <point x="1062.25" y="1263.0"/>
    </contour>
    <contour>
      <point x="544.0" y="1263.0" type="qcurve" smooth="yes"/>
      <point x="466.0" y="1263.0"/>
      <point x="383.0" y="1340.75"/>
      <point x="383.0" y="1409.0" type="qcurve" smooth="yes"/>
      <point x="383.0" y="1478.75"/>
      <point x="466.0" y="1559.0"/>
      <point x="544.0" y="1559.0" type="qcurve" smooth="yes"/>
      <point x="622.0" y="1559.0"/>
      <point x="708.0" y="1474.25"/>
      <point x="708.0" y="1409.0" type="qcurve" smooth="yes"/>
      <point x="708.0" y="1345.25"/>
      <point x="622.0" y="1263.0"/>
    </contour>
    <contour>
      <point x="765" y="1152" type="move" name="_top"/>
    </contour>
    <contour>
      <point x="765" y="1559" type="move" name="top"/>
    </contour>
  </outline>
</glyph>
<glyph name="hookabovecomb" format="1">
  <unicode hex="0309"/>
  <note>
hookabovecomb
</note>
  <outline>
    <contour>
      <point x="-129" y="1221" type="line"/>
      <point x="-156.0" y="1362.0" type="line"/>
      <point x="-77.25" y="1380.0"/>
      <point x="-28.0" y="1423.75"/>
      <point x="-28.0" y="1456.0" type="qcurve" smooth="yes"/>
      <point x="-28.0" y="1486.0"/>
      <point x="-70.75" y="1513.0"/>
      <point x="-97.0" y="1513.0" type="qcurve" smooth="yes"/>
      <point x="-165.64705882352942" y="1513.0"/>
      <point x="-248" y="1488" type="qcurve"/>
      <point x="-248.0" y="1680.0" type="line"/>
      <point x="-189.1764705882353" y="1705.0"/>
      <point x="-56.0" y="1705.0" type="qcurve" smooth="yes"/>
      <point x="248.0" y="1705.0"/>
      <point x="248.0" y="1479.0" type="qcurve" smooth="yes"/>
      <point x="248.0" y="1322.1351351351352"/>
      <point x="83" y="1282" type="qcurve"/>
      <point x="73" y="1221" type="line"/>
    </contour>
    <contour>
      <point x="-1" y="1127" type="move" name="_top"/>
    </contour>
    <contour>
      <point x="-1" y="1705" type="move" name="top"/>
    </contour>
  </outline>
</glyph>
<glyph name="hungarumlautcomb" format="1">
  <advance width="1468"/>
  <unicode hex="030B"/>
  <note>
hungarumlaut
</note>
  <outline>
    <contour>
      <point x="694" y="1241" type="line"/>
      <point x="694.0" y="1271.0" type="line"/>
      <point x="725.0" y="1315.0"/>
      <point x="796.1666666666666" y="1432.083333333333"/>
      <point x="856.0" y="1539.5"/>
      <point x="870" y="1569" type="qcurve"/>
      <point x="1219" y="1569" type="line"/>
      <point x="1219.0" y="1545.0" type="line"/>
      <point x="1209.25" y="1530.375"/>
      <point x="1140.3802083333333" y="1462.1666666666667"/>
      <point x="1042.8697916666667" y="1373.3333333333333"/>
      <point x="935.375" y="1280.375"/>
      <point x="887" y="1241" type="qcurve"/>
    </contour>
    <contour>
      <point x="250" y="1241" type="line"/>
      <point x="250.0" y="1271.0" type="line"/>
      <point x="281.0" y="1315.0"/>
      <point x="351.6666666666667" y="1431.6666666666665"/>
      <point x="411.0" y="1539.0"/>
      <point x="425" y="1569" type="qcurve"/>
      <point x="775" y="1569" type="line"/>
      <point x="775.0" y="1545.0" type="line"/>
      <point x="760.75" y="1524.375"/>
      <point x="681.875" y="1445.1197916666667"/>
      <point x="580.125" y="1352.1302083333333"/>
      <point x="480.25" y="1267.25"/>
      <point x="445" y="1241" type="qcurve"/>
    </contour>
    <contour>
      <point x="735" y="1127" type="move" name="_top"/>
    </contour>
    <contour>
      <point x="735" y="1569" type="move" name="top"/>
    </contour>
  </outline>
</glyph>
<glyph name="caroncomb" format="1">
  <advance width="1510"/>
  <unicode hex="030C"/>
  <note>
caron
</note>
  <outline>
    <contour>
      <point x="578" y="1241" type="line"/>
      <point x="571.25" y="1253.0"/>
      <point x="542.5" y="1293.75"/>
      <point x="520.0" y="1323.0" type="qcurve" smooth="yes"/>
      <point x="490.75" y="1361.25"/>
      <point x="405.25" y="1469.0"/>
      <point x="349" y="1538" type="qcurve"/>
      <point x="349" y="1569" type="line"/>
      <point x="570.0" y="1569.0" type="line"/>
      <point x="602.0" y="1547.5"/>
      <point x="667.8333333333333" y="1497.5"/>
      <point x="731.0" y="1439.5"/>
      <point x="759.0" y="1406.0" type="qcurve"/>
      <point x="777.0" y="1427.0"/>
      <point x="834.25" y="1480.0"/>
      <point x="904.5" y="1539.0"/>
      <point x="942" y="1569" type="qcurve"/>
      <point x="1162" y="1569" type="line"/>
      <point x="1162.0" y="1538.0" type="line"/>
      <point x="1106.5" y="1468.25"/>
      <point x="1024.25" y="1364.25"/>
      <point x="995.0" y="1326.0" type="qcurve" smooth="yes"/>
      <point x="974.75" y="1299.75"/>
      <point x="944.5" y="1257.5"/>
      <point x="934" y="1241" type="qcurve"/>
    </contour>
    <contour>
      <point x="757" y="1127" type="move" name="_top"/>
    </contour>
    <contour>
      <point x="757" y="1569" type="move" name="top"/>
    </contour>
  </outline>
</glyph>
<glyph name="dblgravecomb" format="1">
  <unicode hex="030F"/>
  <note>
uni030F
</note>
  <outline>
    <contour>
      <point x="-393" y="1241" type="line"/>
      <point x="-436.125" y="1275.125"/>
      <point x="-541.6666666666666" y="1364.6927083333333"/>
      <point x="-642.3333333333334" y="1455.0572916666667"/>
      <point x="-716.375" y="1527.75"/>
      <point x="-728" y="1545" type="qcurve"/>
      <point x="-728" y="1569" type="line"/>
      <point x="-374.0" y="1569.0" type="line"/>
      <point x="-342.5" y="1504.5"/>
      <point x="-242.25" y="1331.75"/>
      <point x="-198" y="1271" type="qcurve"/>
      <point x="-198" y="1241" type="line"/>
    </contour>
    <contour>
      <point x="-837" y="1241" type="line"/>
      <point x="-877.875" y="1272.5"/>
      <point x="-981.5885416666666" y="1361.5677083333333"/>
      <point x="-1082.1614583333333" y="1453.6822916666667"/>
      <point x="-1157.0" y="1528.125"/>
      <point x="-1169" y="1545" type="qcurve"/>
      <point x="-1169" y="1569" type="line"/>
      <point x="-818.0" y="1569.0" type="line"/>
      <point x="-799.5" y="1526.0"/>
      <point x="-730.0833333333333" y="1403.75"/>
      <point x="-661.0" y="1294.5"/>
      <point x="-643" y="1271" type="qcurve"/>
      <point x="-643" y="1241" type="line"/>
    </contour>
    <contour>
      <point x="-684" y="1127" type="move" name="_top"/>
    </contour>
    <contour>
      <point x="-684" y="1569" type="move" name="top"/>
    </contour>
  </outline>
</glyph>
<glyph name="commaturnedabovecomb" format="1">
  <advance width="827"/>
  <unicode hex="0312"/>
  <outline>
    <contour>
      <point x="222" y="1241" type="line"/>
      <point x="222.0" y="1262.0" type="line"/>
      <point x="249.5" y="1318.0"/>
      <point x="300.0833333333333" y="1413.4166666666667"/>
      <point x="355.0" y="1510.5"/>
      <point x="389" y="1569" type="qcurve"/>
      <point x="605" y="1569" type="line"/>
      <point x="605.0" y="1539.0" type="line"/>
      <point x="593.0" y="1487.5"/>
      <point x="572.75" y="1376.6666666666665"/>
      <point x="557.5" y="1276.5"/>
      <point x="553" y="1241" type="qcurve"/>
    </contour>
    <contour>
      <point x="414" y="1127" type="move" name="_top"/>
    </contour>
    <contour>
      <point x="414" y="1569" type="move" name="top"/>
    </contour>
  </outline>
</glyph>
<glyph name="dotbelowcomb" format="1">
  <unicode hex="0323"/>
  <note>
dotbelowcomb
</note>
  <outline>
    <contour>
      <point x="-765.0" y="-458.0" type="qcurve" smooth="yes"/>
      <point x="-959.0" y="-458.0"/>
      <point x="-959.0" y="-296.0" type="qcurve" smooth="yes"/>
      <point x="-959.0" y="-131.0"/>
      <point x="-765.0" y="-131.0" type="qcurve" smooth="yes"/>
      <point x="-666.75" y="-131.0"/>
      <point x="-570.0" y="-219.5"/>
      <point x="-570.0" y="-296.0" type="qcurve" smooth="yes"/>
      <point x="-570.0" y="-458.0"/>
    </contour>
    <contour>
      <point x="-766" y="0" type="move" name="_bottom"/>
    </contour>
    <contour>
      <point x="-766" y="-458" type="move" name="bottom"/>
    </contour>
  </outline>
</glyph>
<glyph name="commaaccentcomb" format="1">
  <advance width="868"/>
  <unicode hex="0326"/>
  <outline>
    <contour>
      <point x="379" y="-453" type="line"/>
      <point x="379.0" y="-423.0" type="line"/>
      <point x="391.0" y="-380.0"/>
      <point x="415.83333333333326" y="-269.0"/>
      <point x="436.0" y="-162.0"/>
      <point x="441" y="-125" type="qcurve"/>
      <point x="768" y="-125" type="line"/>
      <point x="768.0" y="-145.0" type="line"/>
      <point x="724.5" y="-237.25"/>
      <point x="640.25" y="-383.25"/>
      <point x="593" y="-453" type="qcurve"/>
    </contour>
    <contour>
      <point x="573" y="0" type="move" name="_bottom"/>
    </contour>
    <contour>
      <point x="573" y="-453" type="move" name="bottom"/>
    </contour>
  </outline>
</glyph>
<glyph name="cedillacomb" format="1">
  <advance width="455"/>
  <unicode hex="0327"/>
  <note>
cedilla
</note>
  <outline>
    <contour>
      <point x="110.0" y="-492.0" type="qcurve" smooth="yes"/>
      <point x="26.88888888888889" y="-492.0"/>
      <point x="-41" y="-466" type="qcurve"/>
      <point x="-41.0" y="-280.0" type="line"/>
      <point x="34.38461538461539" y="-300.0"/>
      <point x="99.0" y="-300.0" type="qcurve" smooth="yes"/>
      <point x="159.0" y="-300.0"/>
      <point x="159.0" y="-257.0" type="qcurve" smooth="yes"/>
      <point x="159.0" y="-182.17307692307693"/>
      <point x="5" y="-157" type="qcurve"/>
      <point x="88" y="0" type="line"/>
      <point x="303" y="0" type="line"/>
      <point x="271.0" y="-60.0" type="line"/>
      <point x="334.0" y="-75.75"/>
      <point x="425.0" y="-168.0"/>
      <point x="425.0" y="-246.0" type="qcurve" smooth="yes"/>
      <point x="425.0" y="-357.0"/>
      <point x="276.5" y="-492.0"/>
    </contour>
    <contour>
      <point x="192" y="0" type="move" name="_bottom"/>
    </contour>
    <contour>
      <point x="192" y="-492" type="move" name="bottom"/>
    </contour>
  </outline>
</glyph>
<glyph name="ogonekcomb" format="1">
  <advance width="674"/>
  <unicode hex="0328"/>
  <note>
ogonek
</note>
  <outline>
    <contour>
      <point x="522.0" y="-499.0" type="qcurve" smooth="yes"/>
      <point x="409.5" y="-499.0"/>
      <point x="265.0" y="-368.25"/>
      <point x="265.0" y="-261.0" type="qcurve" smooth="yes"/>
      <point x="265.0" y="-192.0"/>
      <point x="342.0" y="-68.25"/>
      <point x="429" y="0" type="qcurve"/>
      <point x="637.0" y="0.0" type="line"/>
      <point x="512.0" y="-128.0487804878049"/>
      <point x="512.0" y="-215.0" type="qcurve" smooth="yes"/>
      <point x="512.0" y="-255.5"/>
      <point x="551.5" y="-289.0"/>
      <point x="574.0" y="-289.0" type="qcurve" smooth="yes"/>
      <point x="609.9090909090909" y="-289.0"/>
      <point x="664" y="-272" type="qcurve"/>
      <point x="664.0" y="-481.0" type="line"/>
      <point x="575.5" y="-499.0"/>
    </contour>
    <contour>
      <point x="681" y="10" type="move" name="_ogonek"/>
    </contour>
  </outline>
</glyph>
<glyph name="tonos" format="1">
  <advance width="1063"/>
  <unicode hex="0384"/>
  <note>
tonos
</note>
  <outline>
    <contour>
      <point x="384" y="1241" type="line"/>
      <point x="384.0" y="1277.0" type="line"/>
      <point x="405.0" y="1340.0"/>
      <point x="430.25" y="1452.75"/>
      <point x="446" y="1548" type="qcurve"/>
      <point x="773" y="1548" type="line"/>
      <point x="773.0" y="1522.0" type="line"/>
      <point x="742.25" y="1463.5"/>
      <point x="658.0" y="1334.0"/>
      <point x="595" y="1241" type="qcurve"/>
    </contour>
    <contour>
      <point x="579" y="1127" type="move" name="_top"/>
    </contour>
    <contour>
      <point x="757.58" y="1556" type="move" name="_topleft"/>
    </contour>
  </outline>
</glyph>
<glyph name="dieresistonos" format="1">
  <advance width="1147"/>
  <unicode hex="0385"/>
  <note>
dieresistonos
</note>
  <outline>
    <contour>
      <point x="452" y="1388" type="line"/>
      <point x="452.0" y="1417.0" type="line"/>
      <point x="475.25" y="1501.0"/>
      <point x="502.5" y="1633.0"/>
      <point x="516" y="1714" type="qcurve"/>
      <point x="832" y="1714" type="line"/>
      <point x="832.0" y="1695.0" type="line"/>
      <point x="790.0" y="1621.5"/>
      <point x="692.25" y="1490.0"/>
      <point x="612" y="1388" type="qcurve"/>
    </contour>
    <contour>
      <point x="264.0" y="1263.0" type="qcurve" smooth="yes"/>
      <point x="198.75" y="1263.0"/>
      <point x="119.0" y="1331.25"/>
      <point x="119.0" y="1410.0" type="qcurve" smooth="yes"/>
      <point x="119.0" y="1489.5"/>
      <point x="199.5" y="1557.0"/>
      <point x="264.0" y="1557.0" type="qcurve" smooth="yes"/>
      <point x="330.0" y="1557.0"/>
      <point x="416.0" y="1488.75"/>
      <point x="416.0" y="1410.0" type="qcurve" smooth="yes"/>
      <point x="416.0" y="1332.0"/>
      <point x="330.75" y="1263.0"/>
    </contour>
    <contour>
      <point x="876.0" y="1263.0" type="qcurve" smooth="yes"/>
      <point x="809.25" y="1263.0"/>
      <point x="728.0" y="1332.0"/>
      <point x="728.0" y="1410.0" type="qcurve" smooth="yes"/>
      <point x="728.0" y="1557.0"/>
      <point x="875.0" y="1557.0" type="qcurve" smooth="yes"/>
      <point x="942.5" y="1557.0"/>
      <point x="1027.0" y="1487.0"/>
      <point x="1027.0" y="1409.0" type="qcurve" smooth="yes"/>
      <point x="1027.0" y="1331.75"/>
      <point x="942.75" y="1263.0"/>
    </contour>
    <contour>
      <point x="573" y="1127" type="move" name="_top"/>
    </contour>
  </outline>
</glyph>
<glyph name="anoteleia" format="1">
  <advance width="609"/>
  <unicode hex="0387"/>
  <note>
anoteleia
</note>
  <outline>
    <contour>
      <point x="304.0" y="535.0" type="qcurve" smooth="yes"/>
      <point x="205.0" y="535.0"/>
      <point x="101.0" y="636.25"/>
      <point x="101.0" y="724.0" type="qcurve" smooth="yes"/>
      <point x="101.0" y="812.5"/>
      <point x="204.25" y="912.0"/>
      <point x="304.0" y="912.0" type="qcurve" smooth="yes"/>
      <point x="406.75" y="912.0"/>
      <point x="508.0" y="811.75"/>
      <point x="508.0" y="724.0" type="qcurve" smooth="yes"/>
      <point x="508.0" y="637.0"/>
      <point x="403.0" y="535.0"/>
    </contour>
  </outline>
</glyph>
<glyph name="Alpha" format="1">
  <advance width="1214"/>
  <unicode hex="0391"/>
  <note>
Alpha
</note>
  <outline>
    <component base="A"/>
    <contour>
      <point x="220" y="1512" type="move" name="topleft"/>
    </contour>
  </outline>
</glyph>
<glyph name="Epsilon" format="1">
  <advance width="907"/>
  <unicode hex="0395"/>
  <note>
    Epsilon
  </note>
  <outline>
    <component base="E"/>
    <contour>
      <point x="20" y="1512" type="move" name="topleft"/>
    </contour>
  </outline>
</glyph>
<glyph name="Theta" format="1">
  <advance width="1285"/>
  <unicode hex="0398"/>
  <note>
Theta
</note>
  <outline>
    <contour>
      <point x="643.0" y="-20.0" type="qcurve" smooth="yes"/>
      <point x="368.5" y="-20.0"/>
      <point x="73.0" y="366.75"/>
      <point x="73.0" y="735.0" type="qcurve" smooth="yes"/>
      <point x="73.0" y="1091.25"/>
      <point x="371.25" y="1486.0"/>
      <point x="645.0" y="1486.0" type="qcurve" smooth="yes"/>
      <point x="918.75" y="1486.0"/>
      <point x="1212.0" y="1096.75"/>
      <point x="1212.0" y="733.0" type="qcurve" smooth="yes"/>
      <point x="1212.0" y="370.0"/>
      <point x="916.75" y="-20.0"/>
    </contour>
    <contour>
      <point x="643.0" y="284.0" type="qcurve" smooth="yes"/>
      <point x="859.0" y="284.0"/>
      <point x="859.0" y="733.0" type="qcurve" smooth="yes"/>
      <point x="859.0" y="1183.0"/>
      <point x="645.0" y="1183.0" type="qcurve" smooth="yes"/>
      <point x="425.0" y="1183.0"/>
      <point x="425.0" y="733.0" type="qcurve" smooth="yes"/>
      <point x="425.0" y="515.5"/>
      <point x="535.75" y="284.0"/>
    </contour>
    <contour>
      <point x="501" y="593" type="line"/>
      <point x="501" y="891" type="line"/>
      <point x="784" y="891" type="line"/>
      <point x="784" y="593" type="line"/>
    </contour>
  </outline>
</glyph>
<glyph name="Pi" format="1">
  <advance width="1219"/>
  <unicode hex="03A0"/>
  <note>
Pi
</note>
  <outline>
    <contour>
      <point x="115" y="0" type="line"/>
      <point x="115" y="1462" type="line"/>
      <point x="1103" y="1462" type="line"/>
      <point x="1103" y="0" type="line"/>
      <point x="759" y="0" type="line"/>
      <point x="759" y="1161" type="line"/>
      <point x="462" y="1161" type="line"/>
      <point x="462" y="0" type="line"/>
    </contour>
  </outline>
</glyph>
<glyph name="Sigma" format="1">
  <advance width="936"/>
  <unicode hex="03A3"/>
  <note>
Sigma
</note>
  <outline>
    <contour>
      <point x="77" y="0" type="line"/>
      <point x="77" y="286" type="line"/>
      <point x="386" y="769" type="line"/>
      <point x="83" y="1185" type="line"/>
      <point x="83" y="1462" type="line"/>
      <point x="821" y="1462" type="line"/>
      <point x="821" y="1166" type="line"/>
      <point x="562.0" y="1166.0" type="line" smooth="yes"/>
      <point x="560.5" y="1166.0"/>
      <point x="498.0" y="1169.75"/>
      <point x="435" y="1178" type="qcurve"/>
      <point x="732" y="772" type="line"/>
      <point x="416.0" y="284.0" type="line"/>
      <point x="457.25" y="290.75"/>
      <point x="539.0" y="300.0"/>
      <point x="581" y="300" type="qcurve" smooth="yes"/>
      <point x="869" y="300" type="line"/>
      <point x="869" y="0" type="line"/>
    </contour>
  </outline>
</glyph>
<glyph name="Psi" format="1">
  <advance width="1569"/>
  <unicode hex="03A8"/>
  <note>
Psi
</note>
  <outline>
    <contour>
      <point x="622" y="0" type="line"/>
      <point x="622" y="432" type="line"/>
      <point x="582.0" y="432.0" type="line" smooth="yes"/>
      <point x="330.75" y="432.0"/>
      <point x="76.0" y="698.75"/>
      <point x="76" y="974" type="qcurve" smooth="yes"/>
      <point x="76" y="1462" type="line"/>
      <point x="397" y="1462" type="line"/>
      <point x="397.0" y="968.0" type="line" smooth="yes"/>
      <point x="397.0" y="907.25"/>
      <point x="418.0" y="807.5"/>
      <point x="442.0" y="782.0" type="qcurve" smooth="yes"/>
      <point x="464.5" y="758.0"/>
      <point x="546.25" y="723.0"/>
      <point x="595" y="723" type="qcurve" smooth="yes"/>
      <point x="622" y="723" type="line"/>
      <point x="622" y="1462" type="line"/>
      <point x="947" y="1462" type="line"/>
      <point x="947" y="723" type="line"/>
      <point x="974.0" y="723.0" type="line" smooth="yes"/>
      <point x="1022.75" y="723.0"/>
      <point x="1106.0" y="756.5"/>
      <point x="1127.0" y="782.0" type="qcurve" smooth="yes"/>
      <point x="1149.5" y="809.0"/>
      <point x="1172.0" y="907.25"/>
      <point x="1172" y="968" type="qcurve" smooth="yes"/>
      <point x="1172" y="1462" type="line"/>
      <point x="1493" y="1462" type="line"/>
      <point x="1493.0" y="974.0" type="line" smooth="yes"/>
      <point x="1493.0" y="698.75"/>
      <point x="1238.25" y="432.0"/>
      <point x="987" y="432" type="qcurve" smooth="yes"/>
      <point x="947" y="432" type="line"/>
      <point x="947" y="0" type="line"/>
    </contour>
  </outline>
</glyph>
<glyph name="Omega" format="1">
  <advance width="1292"/>
  <unicode hex="03A9"/>
  <note>
uni03A9
</note>
  <outline>
    <contour>
      <point x="24" y="0" type="line"/>
      <point x="24" y="305" type="line"/>
      <point x="329.0" y="305.0" type="line"/>
      <point x="266.75" y="360.5"/>
      <point x="174.5" y="477.25"/>
      <point x="143.0" y="541.0" type="qcurve" smooth="yes"/>
      <point x="107.75" y="612.25"/>
      <point x="74.0" y="771.0"/>
      <point x="74.0" y="861.0" type="qcurve" smooth="yes"/>
      <point x="74.0" y="1008.75"/>
      <point x="161.0" y="1247.5"/>
      <point x="242.0" y="1330.0" type="qcurve" smooth="yes"/>
      <point x="316.25" y="1405.0"/>
      <point x="520.0" y="1486.0"/>
      <point x="646.0" y="1486.0" type="qcurve" smooth="yes"/>
      <point x="779.4970000000001" y="1486.0"/>
      <point x="991.5" y="1397.5"/>
      <point x="1065.0" y="1315.0" type="qcurve" smooth="yes"/>
      <point x="1137.0" y="1234.0"/>
      <point x="1214.0" y="1002.75"/>
      <point x="1214.0" y="858.0" type="qcurve" smooth="yes"/>
      <point x="1214.0" y="764.25"/>
      <point x="1175.0" y="594.75"/>
      <point x="1136.0" y="519.0" type="qcurve" smooth="yes"/>
      <point x="1077.2787723785166" y="403.0255754475703"/>
      <point x="967" y="305" type="qcurve"/>
      <point x="1267" y="305" type="line"/>
      <point x="1267" y="0" type="line"/>
      <point x="716" y="0" type="line"/>
      <point x="716.0" y="315.0" type="line"/>
      <point x="749.75" y="349.5"/>
      <point x="803.09375" y="448.8333333333333"/>
      <point x="840.40625" y="575.1666666666666"/>
      <point x="860.0" y="725.5"/>
      <point x="860.0" y="811.0" type="qcurve" smooth="yes"/>
      <point x="860.0" y="932.5"/>
      <point x="819.6666666666665" y="1098.2499999999998"/>
      <point x="726.0" y="1183.0"/>
      <point x="646.0" y="1183.0" type="qcurve" smooth="yes"/>
      <point x="565.5" y="1183.0"/>
      <point x="470.41666666666663" y="1098.4166666666667"/>
      <point x="429.0" y="931.5"/>
      <point x="429.0" y="808.0" type="qcurve" smooth="yes"/>
      <point x="429.0" y="696.0"/>
      <point x="462.16666666666663" y="517.3333333333333"/>
      <point x="530.0" y="374.0"/>
      <point x="582" y="315" type="qcurve"/>
      <point x="582" y="0" type="line"/>
    </contour>
    <contour>
      <point x="647" y="0" type="move" name="bottom"/>
    </contour>
    <contour>
      <point x="150" y="1522" type="move" name="topleft"/>
    </contour>
  </outline>
</glyph>
<glyph name="alpha" format="1">
  <advance width="1124"/>
  <unicode hex="03B1"/>
  <note>
alpha
</note>
  <outline>
    <contour>
      <point x="417.0" y="-20.0" type="qcurve" smooth="yes"/>
      <point x="246.0" y="-20.0"/>
      <point x="64.0" y="268.0"/>
      <point x="64.0" y="544.0" type="qcurve" smooth="yes"/>
      <point x="64.0" y="826.75"/>
      <point x="259.5" y="1148.0"/>
      <point x="453.0" y="1148.0" type="qcurve" smooth="yes"/>
      <point x="525.75" y="1148.0"/>
      <point x="637.5" y="1083.25"/>
      <point x="690" y="985" type="qcurve"/>
      <point x="701.0" y="985.0" type="line"/>
      <point x="709.5" y="1015.0"/>
      <point x="728.9166666666665" y="1064.1666666666667"/>
      <point x="752.0" y="1108.0"/>
      <point x="766" y="1130" type="qcurve"/>
      <point x="1051.0" y="1130.0" type="line"/>
      <point x="1031.0" y="1077.0"/>
      <point x="994.3333333333333" y="903.5"/>
      <point x="971.0" y="712.0"/>
      <point x="971" y="632" type="qcurve" smooth="yes"/>
      <point x="971.0" y="383.0" type="line" smooth="yes"/>
      <point x="971.0" y="325.25"/>
      <point x="998.75" y="282.0"/>
      <point x="1034.0" y="282.0" type="qcurve" smooth="yes"/>
      <point x="1057.0" y="282.0"/>
      <point x="1084" y="291" type="qcurve"/>
      <point x="1084.0" y="11.0" type="line"/>
      <point x="1072.5" y="4.5"/>
      <point x="1022.0833333333333" y="-9.916666666666666"/>
      <point x="958.0" y="-20.0"/>
      <point x="926.0" y="-20.0" type="qcurve" smooth="yes"/>
      <point x="842.75" y="-20.0"/>
      <point x="726.5" y="60.5"/>
      <point x="698" y="143" type="qcurve"/>
      <point x="691.0" y="143.0" type="line"/>
      <point x="637.75" y="57.5"/>
      <point x="502.5" y="-20.0"/>
    </contour>
    <contour>
      <point x="519.0" y="265.0" type="qcurve" smooth="yes"/>
      <point x="552.75" y="265.0"/>
      <point x="606.5" y="301.5"/>
      <point x="617.0" y="336.0" type="qcurve" smooth="yes"/>
      <point x="626.75" y="368.25"/>
      <point x="630.0" y="478.75"/>
      <point x="630" y="538" type="qcurve" smooth="yes"/>
      <point x="630.0" y="561.0" type="line" smooth="yes"/>
      <point x="630.0" y="634.5"/>
      <point x="621.5" y="750.5"/>
      <point x="614.0" y="779.0" type="qcurve" smooth="yes"/>
      <point x="603.5" y="818.75"/>
      <point x="553.5" y="857.0"/>
      <point x="525.0" y="857.0" type="qcurve" smooth="yes"/>
      <point x="481.4" y="857.0"/>
      <point x="455.0" y="813.0" type="qcurve" smooth="yes"/>
      <point x="434.75" y="778.5"/>
      <point x="414.0" y="650.25"/>
      <point x="414.0" y="552.0" type="qcurve" smooth="yes"/>
      <point x="414.0" y="414.6111111111111"/>
      <point x="439.0" y="341.0" type="qcurve" smooth="yes"/>
      <point x="453.25" y="299.75"/>
      <point x="488.25" y="265.0"/>
    </contour>
    <contour>
      <point x="563" y="1127" type="move" name="top"/>
    </contour>
  </outline>
</glyph>
<glyph name="beta" format="1">
  <advance width="1135"/>
  <unicode hex="03B2"/>
  <note>
beta
</note>
  <outline>
    <contour>
      <point x="99" y="-492" type="line"/>
      <point x="99.0" y="1064.0" type="line" smooth="yes"/>
      <point x="99.0" y="1309.25"/>
      <point x="339.25" y="1567.0"/>
      <point x="577.0" y="1567.0" type="qcurve" smooth="yes"/>
      <point x="792.25" y="1567.0"/>
      <point x="1031.0" y="1354.75"/>
      <point x="1031.0" y="1165.0" type="qcurve" smooth="yes"/>
      <point x="1031.0" y="1043.5"/>
      <point x="893.75" y="875.0"/>
      <point x="749" y="818" type="qcurve"/>
      <point x="749.0" y="810.0" type="line"/>
      <point x="916.25" y="780.0"/>
      <point x="1088.0" y="615.5"/>
      <point x="1088.0" y="464.0" type="qcurve" smooth="yes"/>
      <point x="1088.0" y="314.0"/>
      <point x="992.0833333333333" y="96.99999999999999"/>
      <point x="810.5" y="-20.0"/>
      <point x="682.0" y="-20.0" type="qcurve" smooth="yes"/>
      <point x="593.5" y="-20.0"/>
      <point x="478.0" y="15.0"/>
      <point x="439" y="39" type="qcurve"/>
      <point x="439" y="-492" type="line"/>
    </contour>
    <contour>
      <point x="585.0" y="263.0" type="qcurve" smooth="yes"/>
      <point x="660.75" y="263.0"/>
      <point x="741.0" y="368.5"/>
      <point x="741.0" y="472.0" type="qcurve" smooth="yes"/>
      <point x="741.0" y="559.0"/>
      <point x="643.0" y="659.0"/>
      <point x="559" y="659" type="qcurve" smooth="yes"/>
      <point x="516" y="659" type="line"/>
      <point x="516" y="943" type="line"/>
      <point x="562.0" y="943.0" type="line" smooth="yes"/>
      <point x="617.5" y="943.0"/>
      <point x="692.0" y="1046.75"/>
      <point x="692.0" y="1124.0" type="qcurve" smooth="yes"/>
      <point x="692.0" y="1209.5"/>
      <point x="629.0" y="1290.0"/>
      <point x="575.0" y="1290.0" type="qcurve" smooth="yes"/>
      <point x="497.0" y="1290.0"/>
      <point x="439.0" y="1163.25"/>
      <point x="439" y="1035" type="qcurve" smooth="yes"/>
      <point x="439.0" y="317.0" type="line"/>
      <point x="477.25" y="290.0"/>
      <point x="546.0" y="263.0"/>
    </contour>
  </outline>
</glyph>
<glyph name="gamma" format="1">
  <advance width="1030"/>
  <unicode hex="03B3"/>
  <note>
gamma
</note>
  <outline>
    <contour>
      <point x="272" y="-492" type="line"/>
      <point x="272.0" y="-438.0"/>
      <point x="288.0833333333333" y="-289.3333333333333"/>
      <point x="320.5" y="-110.0"/>
      <point x="345" y="-10" type="qcurve"/>
      <point x="-2" y="1127" type="line"/>
      <point x="353" y="1127" type="line"/>
      <point x="466.0" y="643.0" type="line" smooth="yes"/>
      <point x="478.0" y="591.5"/>
      <point x="491.25" y="522.4166666666667"/>
      <point x="501.5" y="423.0"/>
      <point x="509" y="326" type="qcurve"/>
      <point x="517.0" y="326.0" type="line"/>
      <point x="520.75" y="404.0"/>
      <point x="528.75" y="490.25"/>
      <point x="537" y="524" type="qcurve" smooth="yes"/>
      <point x="679" y="1127" type="line"/>
      <point x="1032" y="1127" type="line"/>
      <point x="684.0" y="-15.0" type="line" smooth="yes"/>
      <point x="658.5" y="-99.5"/>
      <point x="628.3333333333333" y="-253.08333333333334"/>
      <point x="613.5" y="-407.0"/>
      <point x="611" y="-492" type="qcurve"/>
    </contour>
  </outline>
</glyph>
<glyph name="delta" format="1">
  <advance width="1074"/>
  <unicode hex="03B4"/>
  <note>
delta
</note>
  <outline>
    <contour>
      <point x="530.0" y="-20.0" type="qcurve" smooth="yes"/>
      <point x="390.0" y="-20.0"/>
      <point x="180.33333333333331" y="92.25"/>
      <point x="64.0" y="299.5"/>
      <point x="64.0" y="442.0" type="qcurve" smooth="yes"/>
      <point x="64.0" y="561.0"/>
      <point x="120.58333333333334" y="734.75"/>
      <point x="251.50000000000003" y="861.5"/>
      <point x="363.0" y="910.0" type="qcurve"/>
      <point x="288.5" y="954.0"/>
      <point x="199.91666666666666" y="1047.9166666666665"/>
      <point x="161.0" y="1155.5"/>
      <point x="161.0" y="1220.0" type="qcurve" smooth="yes"/>
      <point x="161.0" y="1378.25"/>
      <point x="398.5" y="1573.0"/>
      <point x="607.0" y="1573.0" type="qcurve" smooth="yes"/>
      <point x="673.5" y="1573.0"/>
      <point x="788.6666666666666" y="1561.4166666666665"/>
      <point x="920.5" y="1523.5"/>
      <point x="1012" y="1484" type="qcurve"/>
      <point x="913.0" y="1229.0" type="line"/>
      <point x="827.5" y="1268.75"/>
      <point x="680.75" y="1309.0"/>
      <point x="617.0" y="1309.0" type="qcurve" smooth="yes"/>
      <point x="555.5" y="1309.0"/>
      <point x="497.0" y="1274.0"/>
      <point x="497.0" y="1232.0" type="qcurve" smooth="yes"/>
      <point x="497.0" y="1195.0"/>
      <point x="545.0" y="1153.0" type="qcurve" smooth="yes"/>
      <point x="569.75" y="1130.5"/>
      <point x="647.0" y="1076.75"/>
      <point x="698.0" y="1043.0" type="qcurve" smooth="yes"/>
      <point x="751.5" y="1007.5"/>
      <point x="838.25" y="933.5"/>
      <point x="906.0" y="855.5"/>
      <point x="931.0" y="814.0" type="qcurve" smooth="yes"/>
      <point x="971.5" y="748.0"/>
      <point x="1009.0" y="600.0"/>
      <point x="1009.0" y="516.0" type="qcurve" smooth="yes"/>
      <point x="1009.0" y="258.75"/>
      <point x="761.75" y="-20.0"/>
    </contour>
    <contour>
      <point x="532.0" y="268.0" type="qcurve" smooth="yes"/>
      <point x="595.75" y="268.0"/>
      <point x="662.0" y="383.75"/>
      <point x="662.0" y="512.0" type="qcurve" smooth="yes"/>
      <point x="662.0" y="595.25"/>
      <point x="604.75" y="731.5"/>
      <point x="556.0" y="766.0" type="qcurve"/>
      <point x="518.5" y="746.5"/>
      <point x="465.0" y="692.75"/>
      <point x="447.0" y="656.0" type="qcurve" smooth="yes"/>
      <point x="428.25" y="618.5"/>
      <point x="411.0" y="521.0"/>
      <point x="411.0" y="461.0" type="qcurve" smooth="yes"/>
      <point x="411.0" y="400.5"/>
      <point x="438.58333333333326" y="314.0833333333333"/>
      <point x="492.5" y="268.0"/>
    </contour>
  </outline>
</glyph>
<glyph name="epsilon" format="1">
  <advance width="956"/>
  <unicode hex="03B5"/>
  <note>
epsilon
</note>
  <outline>
    <contour>
      <point x="529.0" y="-20.0" type="qcurve" smooth="yes"/>
      <point x="307.75" y="-20.0"/>
      <point x="62.0" y="148.0"/>
      <point x="62.0" y="304.0" type="qcurve" smooth="yes"/>
      <point x="62.0" y="524.24"/>
      <point x="321" y="579" type="qcurve"/>
      <point x="321.0" y="591.0" type="line"/>
      <point x="101.0" y="642.2328767123288"/>
      <point x="101.0" y="831.0" type="qcurve" smooth="yes"/>
      <point x="101.0" y="978.0"/>
      <point x="344.25" y="1148.0"/>
      <point x="540.0" y="1148.0" type="qcurve" smooth="yes"/>
      <point x="739.8852459016393" y="1148.0"/>
      <point x="901" y="1057" type="qcurve"/>
      <point x="780.0" y="814.0" type="line"/>
      <point x="718.5" y="851.5"/>
      <point x="622.0" y="885.0"/>
      <point x="562.0" y="885.0" type="qcurve" smooth="yes"/>
      <point x="487.75" y="885.0"/>
      <point x="414.0" y="845.25"/>
      <point x="414.0" y="798.0" type="qcurve" smooth="yes"/>
      <point x="414.0" y="750.0"/>
      <point x="450.0" y="729.0" type="qcurve" smooth="yes"/>
      <point x="472.5" y="716.25"/>
      <point x="545.0" y="707.0"/>
      <point x="596" y="707" type="qcurve" smooth="yes"/>
      <point x="708" y="707" type="line"/>
      <point x="708" y="459" type="line"/>
      <point x="580.0" y="459.0" type="line" smooth="yes"/>
      <point x="484.3529411764706" y="459.0"/>
      <point x="440.0" y="433.0" type="qcurve" smooth="yes"/>
      <point x="399.0" y="408.9655172413793"/>
      <point x="399.0" y="353.0" type="qcurve" smooth="yes"/>
      <point x="399.0" y="293.0"/>
      <point x="510.75" y="255.0"/>
      <point x="585.0" y="255.0" type="qcurve" smooth="yes"/>
      <point x="658.5" y="255.0"/>
      <point x="803.0" y="295.75"/>
      <point x="884" y="337" type="qcurve"/>
      <point x="884.0" y="58.0" type="line"/>
      <point x="820.25" y="23.5"/>
      <point x="629.5" y="-20.0"/>
    </contour>
    <contour>
      <point x="538" y="1127" type="move" name="top"/>
    </contour>
  </outline>
</glyph>
<glyph name="zeta" format="1">
  <advance width="792"/>
  <unicode hex="03B6"/>
  <note>
zeta
</note>
  <outline>
    <contour>
      <point x="334" y="-367" type="line"/>
      <point x="402.25" y="-254.5"/>
      <point x="463.0" y="-103.75"/>
      <point x="463.0" y="-58.0" type="qcurve" smooth="yes"/>
      <point x="463.0" y="-31.75"/>
      <point x="437.5" y="12.0"/>
      <point x="400.0" y="33.0" type="qcurve" smooth="yes"/>
      <point x="379.0" y="44.25"/>
      <point x="337.0" y="67.75"/>
      <point x="316" y="79" type="qcurve" smooth="yes"/>
      <point x="307.0" y="84.0" type="line" smooth="yes"/>
      <point x="250.0" y="115.5"/>
      <point x="160.5" y="190.75"/>
      <point x="132.0" y="235.0" type="qcurve" smooth="yes"/>
      <point x="96.75" y="289.75"/>
      <point x="64.0" y="435.25"/>
      <point x="64.0" y="517.0" type="qcurve" smooth="yes"/>
      <point x="64.0" y="611.5"/>
      <point x="102.5" y="787.25"/>
      <point x="134.0" y="863.0" type="qcurve" smooth="yes"/>
      <point x="152.0" y="905.0"/>
      <point x="192.25" y="979.75"/>
      <point x="214.0" y="1012.0" type="qcurve" smooth="yes"/>
      <point x="244.0" y="1056.25"/>
      <point x="370.75" y="1216.25"/>
      <point x="454.0" y="1313.0" type="qcurve"/>
      <point x="438.25" y="1304.75"/>
      <point x="356.25" y="1296.0"/>
      <point x="288" y="1296" type="qcurve" smooth="yes"/>
      <point x="96" y="1296" type="line"/>
      <point x="96" y="1556" type="line"/>
      <point x="776" y="1556" type="line"/>
      <point x="776.0" y="1341.0" type="line"/>
      <point x="671.0" y="1203.0"/>
      <point x="504.75" y="937.5"/>
      <point x="462.0" y="813.0" type="qcurve" smooth="yes"/>
      <point x="437.25" y="741.0"/>
      <point x="411.0" y="590.5"/>
      <point x="411.0" y="535.0" type="qcurve" smooth="yes"/>
      <point x="411.0" y="474.25"/>
      <point x="444.5" y="393.25"/>
      <point x="479.0" y="364.0" type="qcurve" smooth="yes"/>
      <point x="488.75" y="355.75"/>
      <point x="540.75" y="319.25"/>
      <point x="594.0" y="290.0" type="qcurve" smooth="yes"/>
      <point x="649.0" y="260.0"/>
      <point x="715.4999999999999" y="217.3333333333333"/>
      <point x="756.0" y="164.0"/>
      <point x="772.0" y="118.0" type="qcurve" smooth="yes"/>
      <point x="781.75" y="90.25"/>
      <point x="790.0" y="35.5"/>
      <point x="790.0" y="4.0" type="qcurve" smooth="yes"/>
      <point x="790.0" y="-89.75"/>
      <point x="724.5" y="-275.5"/>
      <point x="657" y="-367" type="qcurve"/>
    </contour>
  </outline>
</glyph>
<glyph name="iota" format="1">
  <advance width="646"/>
  <unicode hex="03B9"/>
  <note>
iota
</note>
  <outline>
    <contour>
      <point x="434.0" y="-20.0" type="qcurve" smooth="yes"/>
      <point x="259.25" y="-20.0"/>
      <point x="96.0" y="167.75"/>
      <point x="96" y="374" type="qcurve" smooth="yes"/>
      <point x="96" y="1127" type="line"/>
      <point x="439" y="1127" type="line"/>
      <point x="439.0" y="385.0" type="line" smooth="yes"/>
      <point x="439.0" y="327.25"/>
      <point x="488.0" y="263.0"/>
      <point x="521.0" y="263.0" type="qcurve" smooth="yes"/>
      <point x="539.75" y="263.0"/>
      <point x="581.25" y="270.5"/>
      <point x="618" y="281" type="qcurve"/>
      <point x="618.0" y="15.0" type="line"/>
      <point x="578.25" y="-3.0"/>
      <point x="485.75" y="-20.0"/>
    </contour>
    <contour>
      <point x="323" y="1127" type="move" name="top"/>
    </contour>
  </outline>
</glyph>
<glyph name="nu" format="1">
  <advance width="1042"/>
  <unicode hex="03BD"/>
  <note>
nu
</note>
  <outline>
    <contour>
      <point x="307" y="0" type="line"/>
      <point x="-14" y="1127" type="line"/>
      <point x="339" y="1127" type="line"/>
      <point x="473.0" y="540.0" type="line" smooth="yes"/>
      <point x="483.5" y="495.0"/>
      <point x="497.5" y="404.75"/>
      <point x="508" y="311" type="qcurve"/>
      <point x="515.0" y="311.0" type="line"/>
      <point x="566.5" y="406.5"/>
      <point x="628.4166666666665" y="619.4166666666667"/>
      <point x="656.0" y="912.0"/>
      <point x="656" y="1127" type="qcurve"/>
      <point x="991.0" y="1127.0" type="line"/>
      <point x="991.0" y="879.0"/>
      <point x="917.5833333333333" y="484.3333333333333"/>
      <point x="762.5" y="153.0"/>
      <point x="640" y="0" type="qcurve"/>
    </contour>
  </outline>
</glyph>
